<svg width="500" height="279" viewBox="0 0 500 279" fill="none" xmlns="http://www.w3.org/2000/svg">
<rect x="82.0905" y="-3.8147e-06" width="140.804" height="41.317" fill="white"/>
<rect y="118.515" width="222.895" height="41.317" fill="white"/>
<rect x="82.0905" y="237.029" width="140.804" height="41.317" fill="white"/>
<path d="M466.448 139.173C466.445 132.774 465.862 126.389 464.708 120.095L500 99.7408L465.207 39.4324L429.903 59.8329C420.156 51.4932 408.955 45.0218 396.861 40.7429V-7.62939e-06H327.274V40.7429C315.181 45.0218 303.98 51.4932 294.232 59.8329L258.929 39.4324L224.135 99.7408L259.427 120.095C257.109 132.708 257.109 145.638 259.427 158.252L224.135 178.606L258.929 238.914L294.232 218.525C303.981 226.861 315.182 233.328 327.274 237.603V278.346H396.861V237.603C408.955 233.325 420.156 226.853 429.903 218.514L465.207 238.914L500 178.606L464.708 158.252C465.862 151.958 466.445 145.572 466.448 139.173ZM396.861 139.173C396.861 146.055 394.82 152.782 390.997 158.503C387.174 164.225 381.74 168.685 375.383 171.318C369.025 173.951 362.029 174.64 355.28 173.298C348.531 171.955 342.331 168.642 337.465 163.776C332.599 158.91 329.285 152.71 327.943 145.961C326.6 139.212 327.289 132.216 329.923 125.858C332.556 119.501 337.016 114.067 342.738 110.244C348.459 106.42 355.186 104.38 362.068 104.38C371.295 104.38 380.145 108.046 386.67 114.571C393.195 121.096 396.861 129.945 396.861 139.173Z" fill="white"/>
</svg>
