<?xml version="1.0" encoding="UTF-8"?>
<!DOCTYPE svg PUBLIC "-//W3C//DTD SVG 1.1//EN" "http://www.w3.org/Graphics/SVG/1.1/DTD/svg11.dtd">
<!-- Creator: CorelDRAW 2018 (64-Bit) -->
<svg xmlns="http://www.w3.org/2000/svg" xml:space="preserve" width="4in" height="4in" version="1.1" style="shape-rendering:geometricPrecision; text-rendering:geometricPrecision; image-rendering:optimizeQuality; fill-rule:evenodd; clip-rule:evenodd"
viewBox="0 0 489.2 489.2"
 xmlns:xlink="http://www.w3.org/1999/xlink">
 <defs>
  <style type="text/css">
   <![CDATA[
    .fil6 {fill:none}
    .fil5 {fill:#626F02;fill-rule:nonzero}
    .fil3 {fill:#8CA101;fill-rule:nonzero}
    .fil2 {fill:#910005;fill-rule:nonzero}
    .fil1 {fill:#AC0006;fill-rule:nonzero}
    .fil0 {fill:#D20007;fill-rule:nonzero}
    .fil4 {fill:#FEFEFE;fill-rule:nonzero}
   ]]>
  </style>
 </defs>
 <g id="Layer_x0020_1">
  <metadata id="CorelCorpID_0Corel-Layer"/>
  <g id="_2258136755968">
   <g>
    <path class="fil0" d="M372.74 339.19c-4.79,5.58 -2.9,12.19 4.25,14.12 5.86,1.59 11.51,0.55 17.05,-1.54 2.09,-0.79 4.13,-1.74 5.73,-3.3 3,-2.92 3.4,-5.94 1.28,-9.57 -2.71,-4.64 -6.82,-6.82 -11.68,-6.69 -6.76,0.31 -12.35,1.99 -16.64,6.98zm61.14 5.24c-0.42,3.06 -0.95,6.11 -1.64,9.13 -1.06,4.68 -2.49,9.23 -4.47,13.59 -2.73,6 -5.88,11.8 -10.1,16.9 -4.04,4.9 -8.51,9.38 -13.68,13.13 -7.21,5.23 -15.13,8.91 -23.8,10.92 -3.37,0.78 -6.79,1.13 -10.25,1.41 -8.11,0.67 -15.93,-0.62 -23.58,-3.09 -6.24,-2.01 -11.99,-5.1 -17.33,-8.92 -3.45,-2.47 -6.78,-5.13 -9.66,-8.24 -6.14,-6.62 -11.09,-14.03 -14.68,-22.36 -2.56,-5.96 -4.4,-12.12 -5.5,-18.48 -0.46,-2.68 -1.01,-5.39 -0.88,-8.16 0.1,-2.15 -0.47,-4.26 -0.36,-6.43 0.4,-8.31 1.5,-16.49 4.15,-24.41 0.29,-0.88 0.57,-1.74 1.69,-1.83 2.81,1.36 5.55,2.96 8.47,4.04 4.33,1.61 8.75,3.03 13.22,4.23 11.55,3.09 21.84,0.48 30.88,-7.26 3.24,-2.78 6.16,-5.85 8.7,-9.3 0.63,-0.86 1.38,-1.64 2.08,-2.46l-0.04 -0.04c0,0 0.01,0.09 0.01,0.09 -3.17,1.76 -6.34,3.52 -9.51,5.28 -5.41,1.11 -10.51,-0.26 -15.55,-2.03 -0.79,-0.28 -1.57,-0.55 -2.35,-0.83 0.49,-2.5 0.98,-4.99 1.47,-7.48 1.76,-0.32 3.53,-0.62 5.29,-0.96 5.98,-1.16 11.85,-2.98 17.96,-3.33 10.11,-0.58 19.61,1.92 28.9,5.76 8.1,3.35 15.46,7.8 21.96,13.66 4.13,3.73 7.56,8.01 10.65,12.68 4.89,7.37 7.89,15.38 9.66,23.95 -0.94,-0.43 -1.51,-0.38 -1.68,0.88z"/>
    <path class="fil1" d="M435.56 343.55c-0.94,-0.43 -1.51,-0.38 -1.68,0.88 -0.42,3.06 -0.96,6.11 -1.64,9.13 -1.07,4.68 -2.49,9.23 -4.47,13.59 -2.73,6 -5.89,11.8 -10.1,16.9 -4.04,4.9 -8.51,9.38 -13.68,13.13 -7.22,5.23 -15.12,8.91 -23.8,10.92 -3.36,0.78 -6.79,1.13 -10.25,1.41 -8.11,0.67 -15.93,-0.62 -23.57,-3.09 -6.24,-2.01 -11.99,-5.1 -17.33,-8.92 -3.46,-2.47 -6.78,-5.13 -9.67,-8.24 -6.14,-6.62 -11.09,-14.03 -14.68,-22.36 -2.56,-5.96 -4.4,-12.12 -5.5,-18.48 -0.47,-2.68 -1.01,-5.39 -0.88,-8.16 0.1,-2.15 -0.47,-4.26 -0.37,-6.43 0.41,-8.31 1.5,-16.49 4.15,-24.41 0.29,-0.88 0.57,-1.74 1.69,-1.83 -2.57,-2.4 -6,-3.71 -8.16,-6.5 2,0.6 4.09,1.22 6.18,1.85 0.18,-0.81 0.01,-1.67 0.43,-2.46 1.21,-2.2 2.12,-4.56 3.5,-6.67 0.56,-0.85 1.09,-1.73 0.14,-2.68 -7.39,-1.23 -14.75,-2.81 -22.31,-2.24 -4.16,0.32 -8.28,0.84 -12.3,2.23 -2.44,0.84 -4.94,1.46 -7.18,2.8 1.92,0.17 2.04,0.39 1.54,2.19 -0.97,3.44 -2.11,6.85 -2.82,10.35 -2.14,10.63 -3.65,21.32 -3.06,32.24 0.33,5.96 0.87,11.86 1.81,17.75 1.88,11.71 5.61,22.83 10.68,33.49 4.19,8.82 9.68,16.84 15.92,24.39 5.37,6.5 11.49,12.16 18.16,17.2 6.01,4.54 12.49,8.36 19.41,11.46 12.76,5.73 26.13,8.49 40.05,8.94 2.46,0.08 4.86,-0.51 7.33,-0.42 1.78,0.07 3.58,-0.1 5.35,-0.38 8.37,-1.35 16.62,-3.19 24.48,-6.52 0.77,-0.33 1.66,-0.68 1.98,0.6 4.43,-4.62 8.01,-9.81 11.23,-15.36 4.56,-7.86 8.25,-16.08 11.56,-24.49 3.84,-9.76 6.65,-19.84 8.17,-30.25 0.51,-3.54 1.11,-7.06 0.98,-10.66 -0.56,-3.12 -0.56,-6.24 -0.01,-9.35 0.12,-3.91 -0.57,-7.73 -1.28,-11.54z"/>
    <path class="fil2" d="M404.91 445.2c-0.32,-1.29 -1.2,-0.94 -1.97,-0.61 -7.85,3.32 -16.1,5.17 -24.48,6.52 -1.76,0.28 -3.57,0.45 -5.34,0.38 -2.47,-0.09 -4.87,0.5 -7.33,0.42 -13.92,-0.45 -27.29,-3.21 -40.05,-8.94 -6.91,-3.1 -13.4,-6.91 -19.41,-11.46 -6.67,-5.05 -12.79,-10.71 -18.16,-17.21 -6.24,-7.55 -11.73,-15.56 -15.92,-24.38 -5.07,-10.66 -8.8,-21.78 -10.68,-33.49 -0.94,-5.89 -1.49,-11.79 -1.81,-17.75 -0.59,-10.92 0.92,-21.61 3.06,-32.24 0.7,-3.5 1.84,-6.91 2.81,-10.35 0.51,-1.79 0.38,-2.01 -1.54,-2.18 -3.58,1.53 -6.62,3.81 -9.68,6.21 -6.18,4.84 -10.59,10.98 -14.07,17.84 -7.31,14.41 -10.47,29.7 -9.32,45.83 0.3,4.17 0.9,8.32 1.54,12.45 2.34,15.28 7.92,29.49 14.57,43.33 5.07,10.56 11.11,20.47 19.21,29.06 6.77,7.19 15.12,11.31 24.54,13.7 8.4,2.13 16.9,3.6 25.48,4.81 9.39,1.31 18.79,2.39 28.28,2.32 9.72,-0.06 19.29,-1.47 28.57,-4.32 4.97,-1.52 9.7,-3.71 14.31,-6.26 6.34,-3.5 11.87,-7.9 16.99,-12.93 0.2,-0.2 0.29,-0.5 0.43,-0.75z"/>
    <path class="fil3" d="M239.64 89.15c0.99,-2.49 1.39,-5.13 1.81,-7.75 0.22,-1.38 0.3,-2.79 0.5,-4.64 2.58,3.88 5.48,7.05 6.55,11.33 0.18,0.74 0.3,1.53 0.82,2.15 0.03,-0.35 0.06,-0.7 0.11,-1.36 1.51,2.76 2.72,5.35 3.57,8.04 1.8,5.68 5.01,10.57 8.26,15.45 6.57,9.88 13.74,19.33 20.82,28.84 14.36,19.3 25.03,40.52 33.16,63.1 5.35,14.86 9.63,30.01 12.11,45.62 1.75,10.96 2.6,22.01 2.16,33.11 -0.14,3.51 -0.19,7.06 -0.96,10.52 -0.45,4.66 -1.41,9.21 -3.16,13.57 -0.98,2.43 -0.98,2.42 1.28,3.68 0.3,0.17 0.53,0.45 0.79,0.68 1.58,0.45 3.15,0.96 4.82,0.42 3.28,-0.1 5.46,-2.12 6.28,-5.99 0.46,-2.2 0.74,-4.44 1.11,-6.67 0.49,-2.5 0.98,-4.99 1.47,-7.48 0.02,-3.83 0.47,-7.65 0.37,-11.49 -0.23,-9.11 -1.15,-18.15 -2.48,-27.16 -2.21,-14.97 -5.23,-29.78 -9.26,-44.36 -7.94,-28.72 -20.69,-55.19 -37.49,-79.77 -7.73,-11.31 -15.19,-22.78 -21.45,-35.01 -3.76,-7.33 -5.9,-14.97 -5.96,-23.2 0,-0.12 0,-0.24 -0.01,-0.36 -0.2,-1.74 0.48,-3.98 -0.9,-5.08 -2.19,-1.76 -4.94,-2.6 -7.9,-2.3 -4.02,0.41 -7.58,2 -11.05,3.94 -1.6,0.9 -3.06,1.92 -4.28,3.28 -1.47,1.66 -1.59,2.95 -0.21,4.61 0.79,0.96 0.94,1.86 0.75,3.1 -0.55,3.72 -1.41,7.4 -1.63,11.17z"/>
    <path class="fil0" d="M305.87 291.1c0.95,0.94 0.42,1.83 -0.13,2.68 -1.39,2.11 -2.29,4.47 -3.5,6.67 -0.43,0.78 -0.25,1.64 -0.44,2.46 0.38,0.22 0.73,0.5 1.21,0.38 1.21,-0.88 2.37,0.07 3.53,0.15 4.12,0.3 8.21,0.52 12.16,-1.05 3.04,-1.21 3.73,-3.38 1.96,-6.09 -0.6,-0.93 -1.22,-1.85 -1.83,-2.77 0.67,-0.54 1.29,-0.2 1.85,-0.34 -4.18,-0.6 -8.35,-1.2 -12.52,-1.8 -0.77,-0.11 -1.53,-0.19 -2.29,-0.29z"/>
    <path class="fil2" d="M320.69 293.19c-0.56,0.14 -1.18,-0.2 -1.85,0.34 0.61,0.92 1.22,1.85 1.83,2.78 1.77,2.71 1.08,4.88 -1.96,6.09 -3.95,1.57 -8.04,1.35 -12.16,1.05 -1.17,-0.08 -2.33,-1.03 -3.54,-0.16 2.26,0.92 4.49,1.88 6.77,2.75 5.78,2.21 11.52,4.54 17.7,5.46 -0.26,-0.23 -0.5,-0.52 -0.79,-0.68 -2.26,-1.26 -2.26,-1.25 -1.28,-3.68 1.75,-4.36 2.71,-8.91 3.16,-13.57 -2.64,0.2 -5.24,-0.41 -7.88,-0.38z"/>
    <path class="fil0" d="M436.84 355.09c-0.55,3.12 -0.55,6.23 0,9.35 0.39,-3.12 0.36,-6.23 -0,-9.35z"/>
    <path class="fil4" d="M389.38 332.21c-6.77,0.31 -12.35,1.98 -16.64,6.98 -4.79,5.57 -2.9,12.19 4.25,14.12 5.86,1.58 11.51,0.55 17.06,-1.54 2.09,-0.79 4.12,-1.74 5.73,-3.3 3,-2.92 3.39,-5.95 1.27,-9.58 -2.71,-4.64 -6.82,-6.82 -11.67,-6.68z"/>
    <path class="fil4" d="M327.48 311.5c-6.18,-0.92 -11.92,-3.26 -17.7,-5.46 -2.28,-0.87 -4.51,-1.83 -6.77,-2.75 -0.49,0.12 -0.84,-0.16 -1.21,-0.38 -2.09,-0.63 -4.18,-1.25 -6.19,-1.85 2.17,2.79 5.59,4.1 8.16,6.5 2.82,1.36 5.55,2.95 8.47,4.04 4.34,1.61 8.75,3.03 13.22,4.23 11.55,3.09 21.84,0.48 30.88,-7.27 3.24,-2.78 6.17,-5.85 8.7,-9.29 0.63,-0.86 1.38,-1.64 2.07,-2.46l-0.03 0.04c-3.17,1.76 -6.34,3.52 -9.51,5.28 0.05,0.03 0.11,0.06 0.14,0.1 0.03,0.04 0.06,0.13 0.05,0.13 -1.47,1.01 -2.94,2 -4.4,3.02 -4.36,3.05 -9.08,5.32 -14.3,6.41 -2.22,0.46 -4.51,1.15 -6.78,0.13 -1.67,0.54 -3.24,0.03 -4.82,-0.42z"/>
    <path class="fil2" d="M332.3 311.92c2.28,1.03 4.57,0.33 6.78,-0.13 5.22,-1.09 9.94,-3.36 14.3,-6.41 1.46,-1.02 2.94,-2.01 4.4,-3.02 0.01,-0.01 -0.01,-0.1 -0.04,-0.13 -0.04,-0.04 -0.1,-0.07 -0.15,-0.1 -5.41,1.11 -10.51,-0.26 -15.55,-2.03 -0.79,-0.28 -1.57,-0.55 -2.36,-0.83 -0.36,2.22 -0.64,4.47 -1.1,6.67 -0.82,3.87 -3,5.89 -6.28,5.99z"/>
    <path class="fil4" d="M367.13 296.8l-0.04 -0.04c0,0 0.01,0.09 0.01,0.09 0,-0 0.03,-0.05 0.03,-0.05z"/>
    <path class="fil4" d="M171.86 253.86c-2.63,-0.04 -5.24,0.58 -7.88,0.38 -0.77,-3.46 -0.82,-7.01 -0.96,-10.52 -0.44,-11.1 0.41,-22.15 2.16,-33.11 2.49,-15.61 6.76,-30.76 12.11,-45.62 8.13,-22.58 18.8,-43.8 33.16,-63.1 7.08,-9.51 14.24,-18.96 20.82,-28.84 3.25,-4.88 6.45,-9.77 8.25,-15.44 0.86,-2.7 2.06,-5.29 3.57,-8.05 0.05,0.67 0.08,1.01 0.11,1.36 -1.13,5.68 -2.09,11.35 -2.36,17.17 -0.63,13.55 0.84,26.8 4.86,39.76 2.02,6.53 3.48,13.27 6.87,19.32 1.45,3.2 2.57,6.61 4.41,9.57 5.05,8.11 10.12,16.18 16.89,23.13 7.07,7.25 13.81,14.77 22.08,20.74 4.07,2.94 8.17,5.95 11.75,9.45 9.22,8.99 18.16,18.22 25.12,29.21 2.72,4.3 5.36,8.56 7.21,13.35 4.02,10.39 8.04,20.73 7.94,32.14 -0.01,1.65 0.24,3.29 -0.02,4.98 -0.37,2.44 -0.8,4.87 -1.59,7.47 0.8,-0.5 1.18,-1.08 1.86,-1.18 0.55,0 0.71,-0.41 0.88,-0.82l0 0.03c3.89,-3.67 6.91,-8.03 10,-12.34 1.22,-1.7 2.59,-3.34 3.49,-5.2 5.15,-10.65 8.18,-21.85 8.73,-33.73 0.29,-6.19 -0.29,-12.3 -0.69,-18.45 -0.68,-10.65 -4.35,-20.46 -8.5,-29.98 -3.12,-7.16 -7.08,-14.1 -12.29,-20.14 -2.66,-3.08 -4.61,-6.83 -7.72,-9.43 -16.64,-13.91 -33.48,-27.59 -50.14,-41.48 -7.67,-6.39 -15.81,-12.25 -22.16,-20.15 -4.53,-5.63 -8.58,-11.48 -11.61,-18.03 -2.44,-5.28 -4.19,-10.77 -5.33,-16.46 -0.21,-3.77 -1.07,-7.45 -1.63,-11.17 -0.18,-1.25 -0.04,-2.13 0.75,-3.1 1.37,-1.67 1.26,-2.96 -0.21,-4.62 -1.22,-1.36 -2.67,-2.38 -4.27,-3.28 -3.47,-1.95 -7.04,-3.53 -11.05,-3.94 -0.35,-0.03 -0.69,-0.05 -1.03,-0.06l-0.34 0c-2.44,0.04 -4.69,0.88 -6.53,2.36 -1.38,1.1 -0.7,3.34 -0.9,5.08 -0.01,0.12 -0.01,0.24 -0.01,0.36 -0.06,8.23 -2.21,15.88 -5.96,23.21 -6.26,12.23 -13.72,23.7 -21.45,35.01 -16.8,24.58 -29.56,51.05 -37.49,79.77 -4.03,14.58 -7.05,29.39 -9.26,44.36 -1.33,9.01 -2.24,18.06 -2.48,27.16 -0.1,3.84 0.35,7.66 0.37,11.49 -1.76,-0.32 -3.53,-0.62 -5.29,-0.96 -5.98,-1.16 -11.84,-2.97 -17.95,-3.33 -10.11,-0.58 -19.61,1.92 -28.9,5.76 -8.11,3.35 -15.46,7.79 -21.96,13.66 -4.13,3.73 -7.56,8.01 -10.65,12.68 -4.88,7.38 -7.89,15.39 -9.66,23.95 -0.71,3.81 -1.41,7.63 -1.29,11.54 -0.18,1.51 -0.27,3.02 -0.28,4.53l0 0.15 0 0.15 0 0.15c0.01,1.46 0.1,2.92 0.28,4.38 -0.13,3.6 0.46,7.12 0.98,10.66 1.52,10.41 4.33,20.48 8.17,30.25 3.31,8.41 7,16.63 11.56,24.49 3.22,5.55 6.8,10.75 11.23,15.36 0.14,0.25 0.23,0.55 0.43,0.75 5.12,5.02 10.65,9.42 16.99,12.93 4.61,2.55 9.34,4.73 14.31,6.25 9.28,2.85 18.85,4.25 28.57,4.32 9.49,0.06 18.88,-1.01 28.28,-2.33 8.58,-1.2 17.08,-2.68 25.48,-4.81 9.41,-2.38 17.77,-6.52 24.54,-13.7 8.09,-8.59 14.14,-18.5 19.21,-29.06 6.64,-13.84 12.23,-28.05 14.57,-43.33 0.63,-4.13 1.24,-8.28 1.54,-12.45 1.15,-16.12 -2.01,-31.42 -9.32,-45.83 -3.48,-6.87 -7.89,-13.01 -14.07,-17.84 -3.06,-2.39 -6.11,-4.68 -9.69,-6.21 -2.24,-1.35 -4.74,-1.96 -7.18,-2.8 -4.02,-1.38 -8.14,-1.91 -12.3,-2.23 -7.56,-0.57 -14.92,1.01 -22.31,2.24 -0.77,0.09 -1.53,0.18 -2.29,0.29 -4.17,0.59 -8.35,1.2 -12.52,1.8z"/>
    <path class="fil0" d="M103.16 292.88c-4.85,-0.13 -8.96,2.04 -11.67,6.68 -2.12,3.63 -1.73,6.66 1.27,9.58 1.61,1.56 3.64,2.51 5.73,3.3 5.54,2.09 11.2,3.13 17.05,1.54 7.15,-1.93 9.04,-8.54 4.25,-14.12 -4.28,-4.99 -9.87,-6.67 -16.64,-6.98zm-46.18 11.34c1.77,-8.57 4.78,-16.58 9.66,-23.95 3.1,-4.67 6.52,-8.96 10.65,-12.68 6.5,-5.86 13.86,-10.3 21.96,-13.66 9.29,-3.84 18.78,-6.34 28.89,-5.76 6.11,0.35 11.98,2.17 17.95,3.32 1.76,0.34 3.53,0.64 5.29,0.96 0.49,2.5 0.98,4.99 1.47,7.48 -0.79,0.28 -1.57,0.56 -2.36,0.83 -5.04,1.77 -10.13,3.14 -15.55,2.03 -3.17,-1.76 -6.34,-3.52 -9.51,-5.28 0,0 0.01,-0.09 0.01,-0.09l-0.04 0.04c0.7,0.82 1.44,1.6 2.08,2.47 2.54,3.44 5.46,6.52 8.7,9.29 9.04,7.75 19.33,10.36 30.88,7.27 4.47,-1.2 8.89,-2.62 13.22,-4.23 2.92,-1.08 5.65,-2.67 8.46,-4.04 1.12,0.1 1.4,0.95 1.7,1.83 2.65,7.92 3.74,16.11 4.15,24.42 0.11,2.17 -0.46,4.28 -0.37,6.43 0.13,2.77 -0.42,5.48 -0.88,8.17 -1.1,6.36 -2.94,12.52 -5.5,18.48 -3.59,8.34 -8.54,15.74 -14.68,22.36 -2.89,3.11 -6.21,5.77 -9.66,8.24 -5.34,3.81 -11.09,6.9 -17.33,8.92 -7.64,2.47 -15.46,3.76 -23.57,3.09 -3.45,-0.28 -6.88,-0.63 -10.25,-1.41 -8.67,-2.01 -16.59,-5.69 -23.8,-10.92 -5.17,-3.75 -9.64,-8.23 -13.68,-13.13 -4.22,-5.1 -7.37,-10.89 -10.1,-16.9 -1.98,-4.36 -3.4,-8.91 -4.47,-13.59 -0.69,-3.02 -1.22,-6.07 -1.64,-9.13 -0.17,-1.26 -0.74,-1.31 -1.68,-0.88z"/>
    <path class="fil1" d="M56.99 304.22c0.94,-0.44 1.51,-0.38 1.68,0.88 0.42,3.06 0.96,6.11 1.64,9.13 1.07,4.68 2.49,9.23 4.47,13.59 2.73,6 5.88,11.8 10.1,16.9 4.04,4.9 8.51,9.38 13.68,13.13 7.21,5.23 15.12,8.91 23.8,10.92 3.36,0.78 6.79,1.13 10.25,1.41 8.11,0.67 15.93,-0.62 23.57,-3.09 6.24,-2.01 11.99,-5.1 17.33,-8.92 3.46,-2.47 6.78,-5.13 9.67,-8.24 6.14,-6.62 11.09,-14.03 14.67,-22.36 2.56,-5.97 4.4,-12.12 5.5,-18.49 0.47,-2.68 1.01,-5.39 0.88,-8.16 -0.1,-2.15 0.47,-4.26 0.37,-6.43 -0.41,-8.31 -1.5,-16.49 -4.15,-24.42 -0.29,-0.88 -0.57,-1.73 -1.69,-1.83 2.57,-2.4 6,-3.71 8.16,-6.5 -2,0.6 -4.09,1.22 -6.18,1.85 -0.18,-0.81 -0.01,-1.67 -0.43,-2.45 -1.21,-2.2 -2.12,-4.56 -3.5,-6.67 -0.56,-0.85 -1.09,-1.73 -0.14,-2.68 7.39,-1.23 14.75,-2.81 22.31,-2.24 4.16,0.31 8.28,0.84 12.3,2.23 2.44,0.84 4.94,1.46 7.18,2.8 -1.92,0.17 -2.04,0.39 -1.54,2.19 0.97,3.44 2.11,6.85 2.81,10.35 2.14,10.63 3.65,21.32 3.06,32.24 -0.33,5.96 -0.87,11.86 -1.81,17.75 -1.88,11.71 -5.61,22.83 -10.68,33.49 -4.19,8.82 -9.68,16.84 -15.92,24.39 -5.37,6.5 -11.49,12.16 -18.16,17.2 -6.01,4.54 -12.49,8.36 -19.41,11.46 -12.76,5.73 -26.13,8.49 -40.05,8.94 -2.46,0.08 -4.86,-0.51 -7.33,-0.42 -1.78,0.07 -3.59,-0.1 -5.35,-0.38 -8.37,-1.35 -16.62,-3.19 -24.48,-6.52 -0.77,-0.33 -1.66,-0.68 -1.98,0.6 -4.43,-4.62 -8.01,-9.81 -11.23,-15.36 -4.56,-7.86 -8.25,-16.08 -11.56,-24.49 -3.84,-9.76 -6.65,-19.84 -8.17,-30.24 -0.51,-3.54 -1.11,-7.06 -0.98,-10.66 0.56,-3.12 0.56,-6.24 0.01,-9.35 -0.12,-3.91 0.57,-7.73 1.28,-11.54z"/>
    <path class="fil2" d="M87.64 405.87c0.32,-1.29 1.2,-0.94 1.97,-0.61 7.85,3.33 16.1,5.17 24.48,6.52 1.76,0.28 3.57,0.45 5.34,0.38 2.47,-0.09 4.87,0.5 7.33,0.42 13.92,-0.45 27.29,-3.21 40.05,-8.94 6.91,-3.1 13.4,-6.91 19.41,-11.46 6.67,-5.05 12.79,-10.71 18.16,-17.21 6.24,-7.55 11.73,-15.56 15.92,-24.38 5.07,-10.66 8.8,-21.78 10.68,-33.49 0.94,-5.89 1.49,-11.79 1.81,-17.75 0.59,-10.92 -0.92,-21.61 -3.06,-32.24 -0.7,-3.5 -1.84,-6.91 -2.81,-10.35 -0.51,-1.79 -0.38,-2.01 1.54,-2.18 3.58,1.53 6.62,3.81 9.68,6.21 6.18,4.84 10.59,10.98 14.07,17.84 7.31,14.41 10.47,29.7 9.32,45.83 -0.3,4.17 -0.9,8.32 -1.54,12.45 -2.34,15.28 -7.92,29.49 -14.57,43.33 -5.07,10.57 -11.11,20.47 -19.21,29.06 -6.77,7.19 -15.12,11.31 -24.54,13.7 -8.4,2.13 -16.9,3.6 -25.48,4.81 -9.39,1.31 -18.79,2.39 -28.28,2.32 -9.72,-0.07 -19.29,-1.47 -28.57,-4.32 -4.97,-1.52 -9.7,-3.71 -14.31,-6.25 -6.34,-3.51 -11.87,-7.9 -16.99,-12.93 -0.2,-0.2 -0.29,-0.5 -0.43,-0.75z"/>
    <path class="fil3" d="M357.75 234.32c-0.02,0.05 -0.05,0.1 -0.05,0.15 0,0.02 0.08,0.04 0.12,0.05 0.01,-0.05 0.04,-0.1 0.04,-0.15 0,-0.02 -0.08,-0.03 -0.12,-0.05zm-82.4 -96.56c0.03,-0.11 0.05,-0.17 0.07,-0.23 -0.04,0.01 -0.12,0.02 -0.12,0.04 0,0.05 0.02,0.1 0.05,0.2zm72.89 138.25c-0.67,0.11 -1.05,0.68 -1.86,1.18 0.79,-2.6 1.22,-5.03 1.59,-7.47 0.26,-1.69 0,-3.32 0.02,-4.98 0.1,-11.42 -3.92,-21.75 -7.94,-32.15 -1.85,-4.79 -4.48,-9.04 -7.21,-13.35 -6.95,-10.99 -15.9,-20.23 -25.12,-29.21 -3.59,-3.49 -7.68,-6.51 -11.75,-9.45 -8.27,-5.97 -15.02,-13.49 -22.08,-20.74 -6.77,-6.95 -11.85,-15.01 -16.89,-23.13 -1.84,-2.96 -2.96,-6.36 -4.41,-9.57 0.36,-0.34 0.3,-0.76 0.19,-1.17 -0.58,-2.13 -1.18,-4.26 -1.76,-6.38 -1.35,-4.95 -2.58,-9.9 -3.27,-15.01 -0.42,-3.09 -0.3,-6.21 -0.9,-9.24 -1.43,-7.24 0.53,-13.61 4.95,-19.79 0.94,2.43 1.74,4.64 2.65,6.81 1.34,3.18 2.19,6.57 4.26,9.45 3.94,5.49 7.73,11.08 11.57,16.63 0.34,0.48 0.64,0.96 0.36,1.65 -1.64,3.9 -1.24,7.93 -0.88,12.01 0.46,5.34 3.05,9.82 5.28,14.48 -0.09,-1.8 -1.24,-3.43 -1.2,-5.11 0.12,-5.55 -1.13,-11.1 -0.11,-16.65 0.09,-0.5 -0.27,-1.25 0.31,-1.47 0.67,-0.25 0.99,0.54 1.38,0.93 5.71,5.63 11.13,11.56 17.69,16.27 0.94,0.67 1.97,1.43 0.88,2.92 -0.35,0.49 -0.11,1.39 0.13,2.1 0.43,1.31 0.41,2.69 0.53,4.07 0.39,4.64 0.95,9.27 3.23,13.46 1.58,2.89 3.06,5.83 4.75,8.66 0.72,1.21 1.15,2.64 2.26,3.74 0.27,-0.68 -0.07,-1.11 -0.24,-1.51 -1.09,-2.57 -2.24,-5.12 -3.39,-7.66 -0.89,-1.96 -1.68,-3.95 -2.38,-5.99 -1.21,-3.56 -0.54,-7.2 -0.66,-10.81 -0.05,-1.42 0.11,-2.8 0.55,-4.27 0.48,0.3 0.91,0.51 1.27,0.8 5.37,4.27 10.74,8.55 16.11,12.83 2.07,1.65 4.48,3.1 3.76,6.4 -0.03,0.15 0.13,0.33 0.16,0.51 1.2,6.77 3.94,13.01 6.61,19.28 1.07,2.52 1.96,5.15 3.93,7.17 0,0.3 0.06,0.57 0.36,0.72 0.01,0.29 0.07,0.56 0.36,0.72 0.05,0.03 0.1,0.05 0.14,0.09 -0.05,-0.03 -0.1,-0.05 -0.16,-0.08 -0,-0.3 -0.05,-0.58 -0.36,-0.73 0.01,-0.3 -0.05,-0.57 -0.35,-0.72 -0.13,-0.58 -0.16,-1.21 -0.42,-1.73 -2.72,-5.37 -4.38,-11.11 -5.71,-16.93 -0.6,-2.63 -0.84,-5.34 -0.68,-8.04 0.6,-0.07 0.87,0.16 1.16,0.37 3.39,2.48 6.46,5.35 9.35,8.35 4.42,4.6 8.46,9.57 12.69,14.36 0.42,0.49 0.47,0.9 0.22,1.45 -1.29,2.83 -0.73,5.77 -0.32,8.65 0.96,6.71 2.89,13.27 2.87,20.26 2.14,-9.35 -0.05,-18.39 -1.09,-27.52 0.33,0.2 0.49,0.42 0.61,0.67 3.9,7.69 7.97,15.3 11.62,23.1 1.38,2.95 2.55,6.19 1.4,9.73 -1.21,3.73 -0.63,7.83 -2.21,11.54 -0.93,2.2 -1.59,4.52 -1.98,6.9 3.1,-4.9 3.95,-10.6 5.81,-15.98 0.84,3.33 1.94,6.54 2.33,9.93 0.27,2.39 -0.03,4.76 -0.39,7.1 -0.67,4.42 -1.27,8.9 -2.69,13.12 -2.69,7.96 -6.66,15.33 -11.3,22.34 -1.09,1.64 -2.53,3.18 -2.76,5.3l0 -0.03c-0.6,-0.06 -0.73,0.38 -0.88,0.81z"/>
    <path class="fil5" d="M362.91 207.42c-0.02,-0.04 -0.05,-0.08 -0.08,-0.12 -0.04,0.03 -0.1,0.09 -0.1,0.09 0.04,0.05 0.09,0.1 0.13,0.15 0.01,-0.04 0.03,-0.08 0.04,-0.13zm0.02 1.14c0.45,1.62 0.9,3.24 1.34,4.86 0.27,-1.8 -0.26,-3.38 -1.34,-4.86zm-13.82 66.68c0.22,-2.12 1.67,-3.66 2.76,-5.3 4.64,-7.01 8.61,-14.38 11.3,-22.34 1.43,-4.22 2.02,-8.7 2.69,-13.12 0.36,-2.34 0.66,-4.71 0.39,-7.1 -0.38,-3.39 -1.48,-6.61 -2.32,-9.93 -1.85,5.38 -2.71,11.08 -5.81,15.98 0.39,-2.38 1.04,-4.71 1.98,-6.9 1.58,-3.71 1,-7.81 2.21,-11.54 1.15,-3.54 -0.01,-6.78 -1.4,-9.73 -3.65,-7.8 -7.72,-15.41 -11.63,-23.1 -0.12,-0.25 -0.29,-0.47 -0.61,-0.67 1.04,9.12 3.23,18.17 1.09,27.52 0.02,-6.98 -1.92,-13.55 -2.87,-20.26 -0.41,-2.87 -0.97,-5.81 0.31,-8.64 0.25,-0.56 0.21,-0.97 -0.21,-1.45 -4.23,-4.79 -8.27,-9.76 -12.69,-14.36 -2.88,-3 -5.96,-5.87 -9.34,-8.35 -0.29,-0.21 -0.57,-0.45 -1.16,-0.37 -0.17,2.7 0.08,5.41 0.68,8.04 1.34,5.83 2.99,11.56 5.71,16.94 0.26,0.51 0.29,1.14 0.42,1.72l-0 0c-1.97,-2.03 -2.85,-4.66 -3.93,-7.17 -2.66,-6.27 -5.41,-12.51 -6.61,-19.28 -0.03,-0.17 -0.2,-0.36 -0.17,-0.51 0.72,-3.3 -1.68,-4.75 -3.76,-6.4 -5.37,-4.28 -10.74,-8.56 -16.11,-12.83 -0.37,-0.29 -0.79,-0.5 -1.28,-0.8 -0.45,1.47 -0.6,2.85 -0.55,4.27 0.12,3.61 -0.55,7.25 0.66,10.81 0.69,2.04 1.48,4.03 2.38,5.99 1.16,2.54 2.3,5.09 3.39,7.66 0.17,0.41 0.51,0.84 0.24,1.51 -1.1,-1.09 -1.54,-2.52 -2.26,-3.74 -1.68,-2.82 -3.17,-5.77 -4.74,-8.66 -2.28,-4.19 -2.84,-8.82 -3.23,-13.46 -0.11,-1.37 -0.09,-2.75 -0.52,-4.07 -0.24,-0.71 -0.48,-1.61 -0.13,-2.09 1.09,-1.49 0.05,-2.25 -0.88,-2.92 -6.56,-4.7 -11.99,-10.64 -17.69,-16.27 -0.4,-0.39 -0.71,-1.18 -1.38,-0.93 -0.58,0.22 -0.21,0.96 -0.31,1.47 -1.02,5.55 0.22,11.1 0.1,16.65 -0.04,1.67 1.12,3.31 1.2,5.1 -2.23,-4.65 -4.81,-9.14 -5.27,-14.48 -0.36,-4.08 -0.76,-8.11 0.88,-12.01 0.29,-0.69 -0.02,-1.17 -0.36,-1.65 -3.85,-5.55 -7.64,-11.14 -11.58,-16.63 -2.07,-2.89 -2.92,-6.27 -4.26,-9.45 -0.91,-2.17 -1.71,-4.38 -2.65,-6.81 -4.42,6.18 -6.37,12.54 -4.94,19.79 0.6,3.04 0.47,6.16 0.9,9.24 0.7,5.11 1.93,10.06 3.28,15.01 0.58,2.13 1.18,4.26 1.76,6.38 0.11,0.41 0.17,0.83 -0.19,1.17 -3.38,-6.05 -4.84,-12.79 -6.86,-19.32 -4.02,-12.96 -5.49,-26.21 -4.86,-39.76 0.27,-5.82 1.23,-11.5 2.36,-17.17 0.51,-0.62 0.63,-1.41 0.82,-2.15 1.07,-4.28 3.98,-7.46 6.55,-11.33 0.19,1.84 0.28,3.25 0.5,4.64 0.42,2.62 0.81,5.26 1.81,7.75 1.15,5.69 2.89,11.19 5.33,16.46 3.03,6.56 7.08,12.41 11.61,18.03 6.36,7.9 14.5,13.76 22.16,20.15 16.66,13.89 33.49,27.57 50.13,41.48 3.11,2.6 5.07,6.35 7.72,9.43 5.21,6.04 9.17,12.98 12.29,20.14 4.15,9.52 7.82,19.34 8.5,29.98 0.39,6.15 0.97,12.26 0.69,18.45 -0.55,11.88 -3.58,23.08 -8.73,33.73 -0.9,1.86 -2.27,3.51 -3.48,5.2 -3.09,4.31 -6.11,8.68 -10,12.34z"/>
    <path class="fil3" d="M252.9 49.83c-0.99,-2.49 -1.39,-5.13 -1.81,-7.75 -0.22,-1.38 -0.3,-2.79 -0.5,-4.64 -2.58,3.88 -5.48,7.05 -6.55,11.33 -0.18,0.74 -0.3,1.53 -0.82,2.15 -0.03,-0.35 -0.06,-0.7 -0.11,-1.36 -1.51,2.76 -2.72,5.35 -3.57,8.04 -1.8,5.68 -5.01,10.57 -8.26,15.45 -6.57,9.88 -13.74,19.33 -20.82,28.84 -14.36,19.3 -25.03,40.52 -33.16,63.1 -5.35,14.86 -9.63,30.01 -12.11,45.62 -1.75,10.96 -2.6,22.01 -2.16,33.11 0.14,3.51 0.19,7.06 0.96,10.52 0.45,4.67 1.41,9.21 3.16,13.58 0.98,2.43 0.98,2.42 -1.28,3.68 -0.3,0.17 -0.53,0.45 -0.79,0.68 -1.58,0.45 -3.16,0.96 -4.82,0.42 -3.28,-0.1 -5.46,-2.12 -6.28,-5.99 -0.46,-2.2 -0.74,-4.44 -1.11,-6.67 -0.49,-2.5 -0.98,-4.99 -1.47,-7.48 -0.02,-3.83 -0.47,-7.65 -0.37,-11.49 0.24,-9.11 1.15,-18.15 2.48,-27.16 2.21,-14.97 5.23,-29.78 9.26,-44.36 7.94,-28.72 20.69,-55.19 37.49,-79.77 7.73,-11.31 15.19,-22.78 21.45,-35.01 3.76,-7.33 5.9,-14.97 5.96,-23.21 0,-0.12 -0,-0.24 0.01,-0.36 0.2,-1.74 -0.48,-3.98 0.9,-5.08 1.85,-1.49 4.1,-2.32 6.53,-2.36l0.34 0c0.34,0 0.68,0.02 1.03,0.06 4.02,0.41 7.58,2 11.05,3.94 1.6,0.9 3.06,1.92 4.28,3.28 1.47,1.65 1.59,2.95 0.21,4.61 -0.79,0.96 -0.94,1.86 -0.75,3.1 0.55,3.72 1.41,7.4 1.63,11.17z"/>
    <path class="fil0" d="M186.67 251.78c-0.95,0.94 -0.42,1.83 0.13,2.68 1.39,2.11 2.29,4.47 3.5,6.67 0.43,0.78 0.25,1.64 0.43,2.46 -0.38,0.22 -0.73,0.5 -1.21,0.38 -1.21,-0.88 -2.36,0.07 -3.53,0.15 -4.12,0.3 -8.21,0.52 -12.15,-1.05 -3.04,-1.21 -3.73,-3.38 -1.96,-6.09 0.6,-0.93 1.22,-1.85 1.83,-2.77 -0.67,-0.54 -1.29,-0.2 -1.85,-0.34 4.18,-0.6 8.35,-1.2 12.52,-1.8 0.76,-0.11 1.53,-0.19 2.29,-0.29z"/>
    <path class="fil2" d="M171.86 253.86c0.56,0.14 1.18,-0.2 1.85,0.34 -0.61,0.92 -1.22,1.85 -1.83,2.78 -1.77,2.71 -1.08,4.88 1.96,6.09 3.95,1.57 8.04,1.35 12.16,1.05 1.17,-0.08 2.33,-1.03 3.53,-0.16 -2.26,0.92 -4.49,1.88 -6.77,2.75 -5.78,2.21 -11.53,4.54 -17.7,5.46 0.26,-0.23 0.5,-0.52 0.79,-0.68 2.26,-1.26 2.26,-1.25 1.28,-3.68 -1.75,-4.36 -2.71,-8.91 -3.16,-13.57 2.64,0.2 5.25,-0.41 7.88,-0.38z"/>
    <path class="fil0" d="M55.7 315.76c0.55,3.12 0.55,6.23 -0,9.35 -0.18,-1.41 -0.27,-2.83 -0.28,-4.24l0 -0.15 0 -0.44c0.01,-1.51 0.11,-3.02 0.28,-4.53z"/>
    <path class="fil5" d="M348.24 276.02c0.14,-0.44 0.27,-0.87 0.88,-0.82 -0.16,0.42 -0.33,0.83 -0.88,0.82z"/>
    <path class="fil4" d="M103.16 292.88c6.76,0.31 12.35,1.98 16.64,6.98 4.79,5.57 2.9,12.19 -4.25,14.12 -5.86,1.58 -11.51,0.55 -17.05,-1.54 -2.09,-0.79 -4.12,-1.74 -5.73,-3.3 -3,-2.92 -3.39,-5.95 -1.27,-9.58 2.71,-4.64 6.82,-6.82 11.67,-6.68z"/>
    <path class="fil4" d="M165.06 272.18c6.18,-0.92 11.92,-3.26 17.7,-5.47 2.27,-0.87 4.51,-1.83 6.76,-2.75 0.48,0.12 0.84,-0.16 1.21,-0.38 2.09,-0.63 4.18,-1.25 6.19,-1.85 -2.17,2.79 -5.59,4.1 -8.16,6.5 -2.82,1.36 -5.55,2.95 -8.47,4.04 -4.34,1.61 -8.75,3.03 -13.22,4.23 -11.55,3.09 -21.84,0.48 -30.88,-7.27 -3.24,-2.78 -6.16,-5.85 -8.7,-9.29 -0.63,-0.86 -1.38,-1.64 -2.08,-2.46l0.03 0.04c3.17,1.76 6.34,3.52 9.51,5.28 -0.05,0.04 -0.11,0.06 -0.14,0.1 -0.03,0.04 -0.06,0.13 -0.05,0.13 1.46,1.01 2.94,2 4.4,3.02 4.36,3.05 9.08,5.32 14.3,6.41 2.22,0.46 4.51,1.16 6.78,0.13 1.67,0.54 3.24,0.03 4.82,-0.42z"/>
    <path class="fil2" d="M160.24 272.59c-2.28,1.03 -4.57,0.33 -6.78,-0.13 -5.22,-1.09 -9.94,-3.36 -14.3,-6.41 -1.46,-1.02 -2.94,-2.01 -4.4,-3.02 -0.01,-0.01 0.02,-0.1 0.04,-0.13 0.04,-0.04 0.1,-0.07 0.15,-0.1 5.41,1.11 10.51,-0.26 15.55,-2.03 0.79,-0.27 1.57,-0.55 2.36,-0.83 0.36,2.22 0.64,4.47 1.1,6.67 0.82,3.87 2.99,5.89 6.28,5.99z"/>
    <path class="fil4" d="M125.41 257.47l0.04 -0.04c0,0 -0.01,0.09 -0.01,0.09 0,-0 -0.03,-0.05 -0.03,-0.05z"/>
    <path class="fil5" d="M275.35 137.76c-0.03,-0.1 -0.05,-0.15 -0.05,-0.2 0,-0.01 0.08,-0.03 0.12,-0.04 -0.02,0.07 -0.04,0.13 -0.07,0.23z"/>
    <path class="fil5" d="M330.62 182.25c0.3,0.15 0.36,0.42 0.36,0.73l0.01 -0.01c-0.3,-0.15 -0.36,-0.42 -0.37,-0.71l0 -0z"/>
    <path class="fil5" d="M331.34 183.68c-0.29,-0.15 -0.36,-0.42 -0.36,-0.72l-0 0.01c0.31,0.14 0.35,0.42 0.36,0.72l0.01 -0.01z"/>
    <path class="fil5" d="M357.75 234.32c0.04,0.02 0.12,0.03 0.12,0.05 0,0.05 -0.03,0.1 -0.04,0.15 -0.04,-0.02 -0.12,-0.03 -0.12,-0.05 0,-0.05 0.03,-0.1 0.05,-0.15z"/>
    <path class="fil5" d="M331.33 183.69c0.05,0.03 0.1,0.05 0.16,0.08 -0.05,-0.03 -0.1,-0.06 -0.14,-0.09l-0.01 0.01z"/>
    <path class="fil3" d="M362.93 208.56c1.09,1.48 1.62,3.06 1.34,4.86 -0.45,-1.62 -0.89,-3.24 -1.34,-4.86z"/>
    <path class="fil3" d="M362.91 207.42c-0.01,0.04 -0.03,0.08 -0.04,0.13 -0.05,-0.05 -0.1,-0.09 -0.13,-0.15 -0,-0.01 0.06,-0.06 0.1,-0.09 0.02,0.04 0.05,0.08 0.08,0.12z"/>
   </g>
   <rect class="fil6" x="-0" width="489.2" height="489.2"/>
  </g>
 </g>
</svg>
