<?xml version="1.0" encoding="UTF-8"?>
<!DOCTYPE svg PUBLIC "-//W3C//DTD SVG 1.1//EN" "http://www.w3.org/Graphics/SVG/1.1/DTD/svg11.dtd">
<!-- Creator: CorelDRAW 2018 (64-Bit) -->
<svg xmlns="http://www.w3.org/2000/svg" xml:space="preserve" width="4.02083in" height="4.02083in" version="1.1" style="shape-rendering:geometricPrecision; text-rendering:geometricPrecision; image-rendering:optimizeQuality; fill-rule:evenodd; clip-rule:evenodd"
viewBox="0 0 660.67 660.67"
 xmlns:xlink="http://www.w3.org/1999/xlink">
 <defs>
  <style type="text/css">
   <![CDATA[
    .str0 {stroke:#D20007;stroke-width:3.42;stroke-miterlimit:2.61313}
    .fil9 {fill:none}
    .fil0 {fill:#282829}
    .fil1 {fill:#EC1E24;fill-rule:nonzero}
    .fil5 {fill:#ED2F24;fill-rule:nonzero}
    .fil7 {fill:#ED3824;fill-rule:nonzero}
    .fil3 {fill:#ED5426;fill-rule:nonzero}
    .fil4 {fill:#EE4123;fill-rule:nonzero}
    .fil8 {fill:#EE5325;fill-rule:nonzero}
    .fil2 {fill:#EF5123;fill-rule:nonzero}
    .fil6 {fill:#F16822;fill-rule:nonzero}
   ]]>
  </style>
   <clipPath id="id0">
    <path d="M1.71 1.71l657.25 0 0 657.25 -657.25 0 0 -657.25z"/>
   </clipPath>
     <clipPath id="id1">
      <path d="M1.71 1.71l657.25 0 0 657.25 -657.25 0 0 -657.25z"/>
     </clipPath>
     <clipPath id="id2">
      <path d="M1.71 1.71l657.25 0 0 657.25 -657.25 0 0 -657.25z"/>
     </clipPath>
 </defs>
 <g id="Layer_x0020_1">
  <metadata id="CorelCorpID_0Corel-Layer"/>
  <polygon class="fil0" points="1.71,1.71 658.96,1.71 658.96,658.96 1.71,658.96 "/>
  <g style="clip-path:url(#id0)">
   <g id="_2258436206704">
    <g>
    </g>
    <g style="clip-path:url(#id1)">
     <image x="-77.48" y="-58.77" width="808.45" height="773.09" xlink:href="wild_Images\wild_ImgID1.png"/>
    </g>
    <g style="clip-path:url(#id2)">
    </g>
    <g>
     <path class="fil1" d="M362.85 181.23c0,1.58 -0,2.64 0,3.7 0.03,4.8 2.1,6.13 6.36,4.08 0.44,-0.21 0.82,-0.56 1.19,-0.88 2.68,-2.39 5.32,-4.81 7.63,-7.57 1.11,-1.32 2.14,-2.72 3.27,-3.99 1.8,-2 3.4,-3.94 3.83,-6.74 0.2,-1.31 -0.1,-1.55 -1.28,-1.82 -5.56,-1.26 -11.32,-1.24 -16.83,-2.73 -0.34,-0.09 -0.69,-0.13 -0.78,0.23 -0.38,1.55 -2,2.41 -2.2,4.03 -0.5,4.06 -1.5,8.07 -1.19,11.7zm-167.7 33.08c0.25,-1.58 -0.11,-3.3 -1.03,-5.02 -0.41,-0.77 -0.31,-1.17 -1.26,-0.56 -3.82,2.43 -7.79,4.66 -11.53,7.21 -4.35,2.98 -8.53,6.21 -12.76,9.35 -0.43,0.32 -1.1,0.92 -1.03,1.24 0.45,1.97 -0.4,4.19 0.47,5.9 1.74,3.38 2.57,7.08 4.29,10.46 1.04,2.03 1.39,4.42 2.51,6.39 1.68,2.94 2.78,6.17 4.85,8.94 1.11,1.5 2.41,2.46 4,2.74 1.65,0.28 2.59,-1.19 3.4,-2.5 2.38,-3.86 3.1,-8.32 4.25,-12.56 1.96,-7.28 2.21,-14.88 3.36,-22.32 0.44,-2.89 0.62,-5.94 0.48,-9.25zm-45.75 111.29c0.04,0.77 0.72,1.04 1.22,1.29 1.73,0.86 3.33,1.91 4.95,2.95 2.76,1.76 5.63,3.35 8.25,5.29 2.43,1.8 5.09,3.26 7.62,4.88 2.58,1.64 5.3,3.15 7.93,4.71 4.6,2.73 9.29,5.32 13.81,8.17 4.23,2.67 8.65,5.05 13.03,7.46 3.09,1.69 6.18,3.35 9.73,4.05 4.22,0.81 6.44,-1.32 5.77,-5.58 -0.45,-2.85 -1.5,-5.45 -2.55,-8.08 -0.92,-2.29 -1.7,-4.62 -2.97,-6.79 -3.44,-5.88 -6.51,-11.95 -9.33,-18.15 -2.27,-5.01 -4.76,-9.93 -6.99,-14.95 -2.42,-5.45 -5.34,-10.62 -7.94,-15.95 -1.74,-3.56 -3.92,-6.92 -5.88,-10.38 -0.5,-0.89 -0.57,-2.08 -1.79,-2.44 -0.85,-2.65 -2.59,-4.75 -4.12,-7.01 -2.19,-3.22 -4.61,-6.24 -7.08,-9.24 -4.06,-4.92 -8.73,-9.23 -13.65,-13.28 -2.01,-1.66 -3.95,-3.42 -6.4,-4.43 -0.84,-0.35 -1.75,-0.88 -2.61,-0.06 -2.1,2.01 -4.37,3.87 -6.21,6.1 -3.52,4.27 -7.5,8.12 -11.07,12.35 -4.92,5.86 -9.65,11.84 -14.14,18.03 -3.98,5.48 -7.81,11.06 -11.09,17 -0.41,0.73 -0.76,1.2 0.13,1.86 2.79,2.12 6.14,3.1 9.22,4.62 3.34,1.65 6.7,3.26 10.02,4.94 4.28,2.17 8.37,4.74 12.45,7.28 1.78,1.11 3.71,1.92 5.42,3.25 1.17,0.91 2.58,1.94 4.26,2.1zm208.2 -106.91c-0.69,1.07 -0.37,2.32 -0.54,3.47 -0.49,3.37 -1.14,6.71 -1.67,10.07 -0.59,3.73 -0.89,7.51 -1.37,11.26 -0.63,4.94 -1.34,9.91 -0.84,14.87 0.38,3.65 1.97,4.86 5.1,3.33 2.41,-1.17 4.81,-2.41 7.04,-4.07 3.54,-2.64 7.16,-5.21 10.55,-8.02 3.36,-2.78 6.85,-5.45 9.94,-8.59 2.9,-2.96 6.11,-5.62 9.02,-8.58 1.19,-1.21 2.6,-2.33 3.3,-3.98 0.81,-0.77 1.76,-1.44 2.4,-2.33 2.01,-2.78 4.33,-5.31 6.41,-8.05 1.93,-2.55 3.89,-5.1 5.75,-7.69 1.25,-1.74 2.55,-3.47 3.8,-5.21 2.44,-3.4 4.98,-6.72 7.12,-10.32 1.73,-2.91 1.38,-3.74 -1.74,-4.81 -3.23,-1.1 -6.42,-2.39 -9.7,-3.31 -7.58,-2.14 -15.19,-4.11 -22.8,-6.16 -0.68,-0.18 -1.61,-0.43 -1.96,0.07 -1.22,1.71 -3.26,2.29 -4.65,3.9 -2.6,3.03 -5.09,6.16 -8.32,8.69 -3.16,2.48 -6.16,4.95 -10.25,5.55 -2.46,0.36 -3.46,1.23 -3.95,3.68 -0.09,0.42 -0.13,0.85 -0.23,1.28 -1.09,4.93 -2.29,9.85 -2.41,14.94zm-7.15 12.76c0.13,-0.67 0.31,-1.33 0.38,-2.01 0.54,-5.4 1.41,-10.74 2.43,-16.06 0.78,-4.06 1.15,-8.21 1.71,-12.32 0.73,-2.13 0.88,-4.39 1.44,-6.57 0.71,-2.74 1.03,-5.61 1.35,-8.43 0.56,-4.85 2.25,-9.47 2.58,-14.36 0.17,-2.46 -0.57,-3.78 -3,-3.97 -4.46,-0.35 -8.93,-0.76 -13.39,-0.76 -9.23,0.01 -18.46,-0.36 -27.69,0.3 -2.97,0.21 -5.93,0.48 -8.9,0.72 -1.93,0.15 -1.84,1.39 -1.73,2.57 0.35,3.87 0.95,7.68 1.99,11.47 1.53,5.58 1.95,11.43 3.71,16.99 0.33,1.05 0.23,2.22 0.88,3.18 0.39,3.52 1.65,6.82 2.37,10.24 1.37,6.51 3.69,12.72 5.45,19.1 0.14,0.49 0.12,1.02 0.81,1.05 0.92,3.69 2.65,7.07 4.13,10.54 0.52,1.2 0.78,2.57 1.52,3.6 1.82,2.51 2.85,5.44 4.57,8.03 1.43,2.15 3.01,4.11 4.9,5.82 0.72,0.66 1.6,1.31 2.77,1.31 1.78,-0.01 4.2,-1.68 5.02,-3.81 1.59,-4.15 3.2,-8.27 3.84,-12.75 0.67,-4.66 1.88,-9.23 2.85,-13.85zm-82.46 391.24c0.64,-6.32 2.76,-11.86 5.02,-17.12 2.14,-4.98 3.81,-10.02 5.89,-15.02 2.4,-5.75 4.99,-10.7 7.25,-16.5 2.08,-5.34 4.34,-11.01 6.41,-16.35 2.18,-5.64 4.59,-11.09 6.73,-16.74 1.26,-4.35 2.12,-6.12 3.09,-9.74 2.61,-6.44 6.61,-17.8 6.61,-17.8 1.21,-3.26 1.92,-6.69 3.29,-9.86 1.21,-2.8 3.65,-5.4 4.14,-8.4 0.52,-0.33 1.19,-0.57 0.99,-1.38 -0.19,-0.74 -0.93,-0.58 -1.41,-0.67 -3.83,-0.68 -7.62,-1.43 -11.39,-2.42 -3.81,-1.01 -7.64,-0.31 -11.52,0.61 -4.61,1.09 -8.96,2.71 -13.29,4.5 -4.04,1.67 -7.91,3.72 -11.66,5.96 -2.62,1.56 -5.39,2.96 -7.81,4.79 -3.5,2.64 -7.18,5 -10.65,7.7 -2.9,2.26 -5.9,4.41 -8.72,6.77 -1.71,0.66 -2.98,1.96 -4.46,2.98 -2.64,1.82 -5.35,3.54 -8.06,5.26 -2.52,1.6 -5.22,2.82 -7.87,4.07 -2.88,1.36 -6.02,2.26 -9.14,2.95 -1.88,0.42 -3.94,0.08 -5.92,0.08 -0,-0.17 -0,-0.34 -0,-0.51 0.51,-0.18 1.02,-0.42 1.55,-0.53 2.96,-0.62 5.81,-1.45 8.62,-2.71 5,-2.24 9.64,-5.02 14.04,-8.24 1.41,-0.26 1.84,-1.79 3.01,-2.38 2.62,-1.31 4.79,-3.31 6.96,-5.15 4.84,-4.1 9.71,-8.13 14.72,-12.01 2.63,-2.04 5.35,-3.96 8.11,-5.82 2.26,-1.52 4.72,-2.7 6.92,-4.21 2.54,-1.74 5.35,-2.92 8.06,-4.1 4.36,-1.91 8.67,-4.02 13.2,-5.55 1.31,-0.44 2.52,-1.25 2.53,-2.39 0.01,-1.11 -1.39,-1.78 -2.53,-2.14 -6.48,-2.06 -12.94,-4.16 -19.45,-6.1 -4.07,-1.22 -8.28,-1.95 -12.32,-3.38 -4.42,-1.58 -9.04,-2.6 -13.49,-4.14 -4.44,-1.54 -8.89,-2.92 -13.48,-3.95 -7.88,-1.78 -14.68,0.45 -21.03,4.99 -2.24,1.6 -4.73,2.85 -7.1,4.25 -2.91,1.27 -5.42,3.22 -8.19,4.73 -5.44,2.97 -10.85,5.99 -16.37,8.82 -4.8,2.45 -9.92,4.07 -15.07,5.57 -2.1,0.61 -4.25,1.01 -6.43,1.19 -3.67,0.3 -7.32,0.61 -10.97,-0.06 -0.55,-0.14 -1.27,0.28 -1.65,-0.32 -0.23,-0.36 0.41,-0.49 0.54,-0.81 1.32,0.42 2.35,-0.56 3.53,-0.81 5,-1.09 10.1,-1.62 15.03,-3.25 4.99,-1.65 9.58,-3.95 14.19,-6.37 3.51,-1.85 6.82,-4.05 10.38,-5.82 3.1,-1.55 6.16,-3.17 9.16,-4.9 2.94,-1.7 6.07,-3.28 8.15,-6.16 0.88,-1.22 0.75,-2.86 -0.5,-3.6 -1.59,-0.94 -3.24,-1.94 -4.99,-2.41 -4.91,-1.28 -9.98,-1.84 -14.91,-3.1 -2.64,-0.67 -5.49,-0.55 -8.05,-1.3 -2.83,-0.83 -5.74,-1.24 -8.59,-1.95 -5.61,-1.4 -11.46,-1.64 -17.13,-3.01 -4.49,-1.08 -9.19,-1.35 -13.8,-1.98 -4.1,-0.36 -8.05,-1.63 -12.17,-1.96 -3.69,-0.3 -7.36,-0.92 -11.03,-1.44 -3.27,-0.47 -6.53,-1.02 -9.8,-1.49 -2.75,-0.4 -5.51,-0.74 -8.27,-1.11 -2.09,-0.22 -4.18,-0.56 -6.27,-0.64 -3.5,-0.13 -6.98,-0.59 -10.39,-1.29 -2.16,-0.44 -4.34,-0.43 -6.48,-0.51 -3.63,-0.15 -7.27,-0.77 -10.93,-0.26 -1.37,0.19 -1.59,0.83 -1.58,1.97 0.01,2.84 0.87,5.67 0.01,8.51 -5.49,-2.79 -11.23,-4.71 -17.28,-6.03 -5.63,-1.22 -11.37,-1.38 -16.97,-2.54 -3.57,-0.74 -7.13,-1.62 -10.23,-3.67 -1.98,-1.31 -3.12,-3.37 -4.3,-5.36 -0.19,-0.32 -0.26,-0.72 -0.75,-0.7l0 -1.5c1.81,1.73 3.95,3.01 6.06,4.33 1.3,0.81 2.83,0.99 4.29,1.23 5.33,0.87 10.66,0.45 15.75,-1.1 4.18,-1.28 8.4,-2.48 12.48,-4.16 3.83,-1.58 7.42,-3.66 11.31,-5.1 0,3.55 0.11,7.1 -0.38,10.64 -0.2,1.41 0.46,1.91 1.78,2.26 1.44,0.38 2.69,-0.29 4.07,-0.25 7.79,0.27 15.59,-0.2 23.39,0.32 3.59,0.24 7.23,0.33 10.82,0.57 2.52,0.17 5.12,-0.1 7.6,0.63 0.24,0 0.49,0 0.74,0 0.5,0 1,0 1.51,0 2.24,0.61 4.57,0.33 6.85,0.56 4.1,0.4 8.1,1.68 12.28,1.33 4.81,1.07 9.79,1.06 14.58,2.38 2.52,0.7 5.11,1.12 7.69,1.53 3.18,0.5 6.35,1.13 9.59,0.96 2.75,-0.14 4.41,-1.78 3.61,-3.87 -0.84,-2.19 -1.82,-4.43 -3.22,-6.27 -2.72,-3.57 -5.35,-7.2 -8.34,-10.57 -1.88,-2.12 -4.1,-3.94 -5.69,-6.29 -1.19,-1.74 -3.13,-2.57 -4.5,-4.08 -1.85,-2.06 -3.89,-3.93 -6.22,-5.46 -0.55,-0.36 -1.54,-0.59 -1.25,-1.36 0.26,-0.71 1.21,-0.28 1.87,-0.29 0.23,-0 0.47,0.15 0.7,0.25 4.25,1.89 7.95,4.59 11.61,7.44 1.83,1.43 3.42,3.08 5.08,4.65 1.42,1.33 3.62,3.6 4.87,5.09 2.64,3.16 5.44,6.17 7.74,9.64 1.94,2.93 4.25,5.6 5.13,9.09 0.73,2.93 2.14,4.85 5.5,4.91 2.09,0.04 4.18,0.51 6.27,0.79 2.67,0.36 5.24,1.39 7.99,1.25 0.18,0.11 0.35,0.33 0.55,0.28 2.08,-0.5 4.11,-1.24 6.04,-0.33 7.92,3.76 16.56,3.86 24.82,6.04 5.26,1.38 10.71,1.82 15.98,3.27 5.05,1.39 10.3,2.04 15.37,3.44 3.47,0.96 7.17,1.2 10.54,2.41 4.79,1.73 9.83,2.32 14.65,3.92 2.73,0.91 5.71,1.2 8.61,1.47 2.13,0.2 4.39,0.61 6.46,-0.39 0.85,-0.42 2.09,-1.06 1.45,-2.21 -1.04,-1.88 -1.75,-3.92 -3.2,-5.63 -2.42,-2.86 -4.79,-5.77 -7.2,-8.64 -2.96,-3.54 -5.35,-7.54 -8.24,-11.13 -1.33,-1.65 -2.27,-3.53 -3.63,-5.14 -2.78,-3.29 -4.99,-7 -7.52,-10.47 -3.15,-4.34 -6.13,-8.78 -9.75,-12.78 -2.82,-3.12 -6.37,-3.92 -10.24,-4.26 -1.12,-0.1 -1.88,0.75 -3,0.81 -2.47,0.11 -4.93,0.56 -7.39,0.87 -5.3,0.66 -10.59,1.47 -15.93,1.7 -8.48,0.37 -16.91,-0.63 -25.36,-1.14 -1.7,-1.17 -3.72,-0.81 -5.59,-1.06 -2.62,-0.35 -4.84,-0.84 -6.55,-2.03 4.21,-0.73 8.37,-0.65 12.51,-0.67 2.56,-0.01 5.11,0.29 7.65,0.31 7.81,0.08 15.63,0.05 23.3,-1.83 3.83,-0.94 7.71,-1.46 11.18,-3.79 2.28,-1.53 3.38,-3.28 3.23,-5.78 -0.2,-3.28 -0.83,-6.4 -3.08,-9.14 -2.55,-3.11 -5.57,-5.64 -8.88,-7.74 -3.28,-2.09 -6.66,-4.1 -10.26,-5.61 -3.5,-1.46 -6.72,-3.54 -10.37,-4.67 -2.5,-1.32 -5.08,-2.53 -7.49,-4 -4.52,-2.76 -9.14,-5.34 -13.63,-8.15 -4.13,-2.58 -8.1,-5.42 -12.34,-7.83 -3.15,-1.79 -6.03,-4.03 -9,-6.12 -0.9,-0.63 -1.87,-1.27 -2.77,-1.74 -2.38,-1.23 -3.85,-3.72 -6.53,-4.42 -2.45,-2.75 -5.83,-4.23 -8.79,-6.27 -2.51,-1.73 -5.18,-3.3 -7.71,-5 -2.34,-1.57 -4.89,-2.78 -7.14,-4.48 -3.11,-2.45 -6.68,-4.18 -10.11,-6.06 -4.9,-2.69 -9.87,-5.33 -15.06,-7.49 -1.36,-0.56 -2.76,-1.01 -4.02,-1.89 -1.36,-0.95 -3.26,-0.27 -4.37,1.07 -0.73,0.88 -1.24,1.86 -1.76,2.85 -1.68,3.24 -3.45,6.44 -5.06,9.71 -0.8,1.62 -1.52,3.01 -3.64,1.87 -2.37,-4.33 -5.37,-8.25 -8.49,-12.02 -2.37,-2.86 -4.57,-5.87 -7.28,-8.46 -1.19,-1.13 -2.1,-2.52 -3.26,-3.73 -4.32,-4.52 -9.7,-7.24 -15.17,-9.97 -2.77,-1.39 -5.8,-2.32 -8.15,-4.56 -3.18,-3.03 -3.85,-6.6 -2.83,-11.06 1.31,4.45 4.03,6.83 8.2,8.04 10.6,3.06 21.29,2.96 32.01,0.85 3.56,-0.7 7.01,-1.86 10.31,-3.36 2.2,-1 4.42,-2.13 6.27,-3.89 1.72,-1.64 3.93,-2.75 5.66,-4.39 2.24,-2.13 4.04,-4.61 4.77,-7.76 1.66,-7.15 0.94,-14.28 0.1,-21.43 -0.61,-5.18 -2.42,-10.05 -4.67,-14.63 -2.3,-4.68 -5.67,-8.75 -9.83,-12.04 -0.53,-0.42 -0.98,-0.85 -1.48,-1.6 3.36,0.28 6.5,0.52 9.68,0.09 5.43,-0.72 9.37,-5.19 10.06,-10.36 1.22,-9.06 2.07,-18.22 4.02,-27.13 2.71,-12.43 2.31,-24.9 2.02,-37.41 -0.16,-7.12 -0.58,-14.24 0.37,-21.34 0.34,-2.54 1.61,-4.66 2.75,-6.83 0.66,-1.26 2.07,-1.64 3.53,-1.93 -2.88,2.15 -3.59,4.99 -2.32,8.08 1.26,3.05 2.6,6.09 4.01,9.08 1.81,3.85 3.11,7.94 4.88,11.81 2.67,5.81 5.65,11.55 10.51,15.83 2.11,1.86 4.57,3.46 7.19,4.78 5.29,2.68 10.79,4.91 16.08,7.54 1.75,0.87 3.57,2.04 4.96,3.71 3.61,4.32 12.23,6.72 16.83,4.53 3.06,-1.46 4.49,-4.52 5.94,-7.48 2.2,-4.51 2.65,-9.39 3.4,-14.22 0.07,-0.42 0.07,-0.89 0.61,-1.1 0.69,0.27 0.46,0.93 0.54,1.43 0.97,5.87 0.85,11.83 1.33,17.75 0.38,4.8 1.96,9.23 3.9,13.51 1.51,3.32 3.59,6.4 5.73,9.4 0.36,0.51 0.64,1.06 0.96,1.59 -0.02,0.59 0.05,1.11 0.84,1.08 0.58,0.51 0.91,1.18 1.25,1.85 -1.65,0.12 -2.74,1.41 -4.13,2.07 -3.24,1.55 -6.41,3.26 -9.56,4.98 -0.59,0.32 -1.42,0.59 -1.51,1.52 -0.27,2.8 -1.08,5.49 -0.85,8.41 0.34,4.33 -0.02,8.71 -0.22,13.08 -0.12,2.59 -0.42,5.16 -0.5,7.76 -0.06,1.92 -0.46,5.01 -0.97,6.86 -1,3.59 -1.28,7.27 -1.97,10.89 -0.12,2.57 -1.38,4.83 -2.04,7.26 -0.74,2.72 -1.56,5.42 -2.83,8.02 -1.08,2.2 -1.64,4.7 -1.26,7.37 0.36,2.53 1.48,4.68 2.42,6.94 1.19,2.85 2.22,5.78 4.08,8.3 0.29,0.81 0.48,1.66 0.86,2.43 2.64,5.28 5.6,10.4 8.03,15.78 1.36,3 3.24,5.64 5,8.36 1.5,2.32 4.08,2.1 5.42,-0.17 1.9,-3.24 2.84,-6.79 3.98,-10.32 1.99,-6.19 3.64,-12.47 5.01,-18.81 1.09,-5.02 1.88,-10.11 2.08,-15.26 0.8,-0.1 0.74,-0.7 0.75,-1.27 0.11,-4.92 0.58,-9.84 0.38,-14.77 -0.13,-3.24 0.2,-6.47 -0.32,-9.71 -0.28,-1.82 -0.05,-3.71 -0.05,-5.57 0.17,0.01 0.33,0.02 0.5,0.03 1.9,4.95 1.81,10.28 2.76,15.42 0.53,2.88 0.63,5.93 0.51,8.93 -0.12,3.18 -0.02,6.37 -0.02,9.56 -0.13,0.92 -0.32,1.84 -0.36,2.76 -0.29,5.97 -1.35,11.84 -2.6,17.64 -1.28,5.95 -2.94,11.82 -5.34,17.5 -1.49,3.52 -3.4,6.75 -5.29,9.99 -1.47,2.54 -1.74,4.89 -0.64,7.41 2.53,5.77 5.67,11.23 8.75,16.72 3.02,5.38 6.12,10.72 9.2,16.07 1.24,2.15 2.72,4.12 4.59,5.79 1.54,1.38 3.9,1.32 5.28,-0.67 2.51,-3.62 3.88,-7.73 5.4,-11.75 1.28,-3.4 1.78,-7.05 3.03,-10.51 1.5,-4.17 1.79,-8.69 3,-12.99 0.85,-3.01 1.04,-6.25 1.18,-9.4 0.27,-6.39 0.6,-12.77 0.53,-19.18 -0.12,-9.29 -0.37,-18.59 -0.45,-27.88 0.24,0 0.48,-0 0.72,-0 0.57,2.32 0.94,4.68 1.44,7.01 0.5,2.35 0.68,4.78 0.94,7.19 0.56,5.24 1.13,10.49 1.32,15.75 0.17,4.58 0.13,9.16 0.06,13.74 -0.04,2.71 -0.34,7.12 -0.66,9.81 -0.5,4.17 -1.07,8.33 -1.62,12.5 -0.54,0.07 -0.65,0.44 -0.73,0.92 -0.46,2.88 -1.2,5.73 -1.8,8.54 -0.54,2.55 -1.13,5.09 -1.77,7.61 -0.72,2.81 -1.14,5.71 -1.51,8.6 -0.51,3.97 -1.49,7.89 -1.63,11.9 -0.13,3.84 0.33,7.57 1.29,11.37 1.01,3.99 2.8,7.51 5.21,10.59 2.39,3.05 4.68,6.28 7.91,8.65 3.35,2.46 6.81,3.9 11.11,3.15 3.81,-0.67 6.25,-3.14 8.06,-6.06 2.99,-4.85 4.79,-10.31 6.6,-15.69 1.3,-3.85 2.09,-7.88 2.93,-11.87 1.15,-5.46 1.11,-11.01 1.17,-16.57 0.06,-5.68 -1.06,-11.08 -3.08,-16.34 -0.17,-0.42 -0.51,-0.85 0.23,-1.43 0.19,1.33 1.31,1.91 1.78,2.9 2.46,5.19 4.3,10.56 4.4,16.4 0.14,7.91 -0.23,15.75 -2.41,23.43 -0.73,2.57 -0.91,5.32 -1.82,7.81 -1.72,4.7 -2.54,9.65 -4.31,14.34 -1.54,4.09 -2.19,8.53 -2.92,12.82 -0.96,5.56 -1.39,11.3 0.58,16.94 1.29,3.69 3.48,6.75 5.98,9.52 2.61,2.88 5.15,5.82 7.42,8.95 1.98,2.72 4.07,5.34 6.39,7.74 3.54,3.66 7.27,3.69 9.39,-0.04 1.13,-1.99 1.96,-4.18 2.69,-6.38 0.36,-1.1 0.63,-2.22 0.83,-3.35 1.28,-7.24 2.75,-14.36 3.37,-21.63 0.36,-4.14 1.14,-8.26 1.36,-12.42 0.22,-4.22 1.43,-8.26 1.68,-12.47 0.24,-4.09 1.01,-8.14 1.35,-12.22 0.36,-4.44 1.04,-8.83 1.6,-13.24 0.51,-4.01 1.03,-8.01 1.41,-12.03 0.26,-2.79 0.37,-5.6 0.39,-8.4 0.03,-3.39 -1.14,-5.99 -4.79,-7.06 -2.87,-0.84 -5.5,-2.44 -7.75,-4.28 -2.84,-2.32 -5.43,-4.99 -7.79,-7.88 -3.05,-3.73 -5.78,-7.69 -8.29,-11.75 -1.86,-3.01 -3.75,-6.11 -5.11,-9.44 -1.04,-2.96 -2.36,-5.82 -3.67,-8.64 -2.01,-4.3 -2.77,-8.95 -4.47,-13.32 -1.34,-3.42 -1.59,-7.19 -2.6,-10.77 -1.02,-3.6 -1.24,-7.45 -1.6,-11.2 -0.53,-5.52 -1.11,-11.03 -2.02,-16.5 -0.76,-4.59 -1.04,-9.22 -1.41,-13.84l0 -8.96c1.15,3.52 1.93,7.08 2.62,10.65 0.18,0.96 0.27,1.93 0.75,2.81 0.48,4.96 1.2,9.87 2.17,14.78 1.26,6.33 1.61,12.81 3.04,19.15 1.44,6.39 2.58,12.83 4.97,18.96 -0.1,0.85 0.41,1.52 0.73,2.23 -0.01,0.5 0.25,0.74 0.74,0.76 -0.02,0.63 0.19,1.19 0.41,1.78 0.98,2.61 2.17,5.09 3.42,7.58 2.15,4.27 4.77,8.23 7.67,11.96 3.29,4.22 6.66,8.43 11.33,11.38 2.62,1.66 5.12,2.35 8.02,1.02 2.92,-1.34 3.94,-4.24 5.24,-6.74 1.62,-3.11 2,-6.7 2.89,-10.1 1.19,-4.55 1.58,-9.25 2.29,-13.89 1.2,-0.27 0.58,-1.25 0.74,-1.92 0.33,-2.05 0.66,-4.05 0.99,-6.1 -0.09,-3.76 0.71,-7.45 0.54,-11.21 -0.11,-2.26 -0.42,-4.61 -1.56,-6.45 -1.66,-2.69 -3.01,-5.56 -4.41,-8.33 -2.61,-5.18 -5.51,-10.22 -7.84,-15.55 -2.2,-5.02 -4.9,-9.82 -6.84,-14.96 -1.93,-2.9 -2.85,-6.27 -4.11,-9.45 -1.96,-4.93 -3.83,-9.92 -5.01,-15.13 -0.9,-3.96 -2.43,-7.75 -3.01,-11.81 -0.33,-2.27 -0.52,-4.67 -1.74,-6.75 -0.01,-0.44 0.05,-0.89 -0.03,-1.31 -1.31,-6.86 -2.56,-13.73 -3.98,-20.57 -0.74,-3.56 -0.92,-7.21 -2.26,-10.69 -1.04,-2.71 -1.07,-3.36 -3.86,-3.01 -5.53,0.68 -11.1,1.16 -16.52,2.61 -2.27,0.61 -4.57,1.23 -6.97,1.08 -0.51,-5.2 -0.02,-10.38 0.81,-15.48 1.37,-8.46 3.01,-16.88 4.1,-25.4 1.08,-8.41 2.23,-16.83 0.66,-25.24 -1.02,-5.47 -3.36,-10.53 -7.75,-14.32 -0.13,-0.12 -0.2,-0.31 -0.3,-0.46 0.04,-0.05 0.08,-0.1 0.12,-0.15 2.13,0.03 3.6,1.5 5.25,2.5 2.73,1.65 5.04,3.81 7.26,6.14 3.16,3.31 5.75,7.04 8.52,10.63 1.32,1.69 2.6,3.42 4.01,5.03 0.9,1.02 2.24,1.33 3.44,1.82 1.76,0.72 3.61,1.21 5.4,1.87 1.96,0.73 3.87,1.39 5.51,2.94 1.48,1.39 3.47,2.34 5.37,3.17 1.49,0.65 2.89,0.15 4.24,-0.47 2.17,-1 4.24,-2.2 6.09,-3.72 2.93,-2.41 5.63,-5.27 7.92,-8.2 1.58,-2.01 3.07,-4.15 4.58,-6.25 2.51,-3.52 5.24,-6.89 8.1,-10.17 3.11,-3.56 6.37,-6.97 9.68,-10.32 3.34,-3.37 6.9,-6.52 10.42,-9.71 3.1,-2.81 5.94,-5.93 8.83,-8.97 0.7,-0.74 1.08,-1.81 1.54,-2.75 1.31,-2.71 2.64,-5.4 3.75,-8.22 1.27,-3.22 2.21,-6.57 3.62,-9.71 1.87,-4.13 3.55,-8.41 6.5,-11.95 1.43,-1.71 3.03,-3.28 4.73,-5.1 0.34,0.97 0.07,1.52 -0.18,1.9 -2.41,3.65 -2.69,7.84 -2.82,11.98 -0.25,7.49 -0.48,14.99 0.51,22.46 0.65,4.93 3,9.18 5.06,13.6 1.84,3.97 3.87,7.95 4.34,12.43 0.31,2.98 1.69,5.58 3.51,7.84 3.3,4.11 10.57,5.69 14.69,3.13 1.77,-1.1 3.81,-2.21 5,-4.26 0.79,-1.33 2.53,-1.95 3.01,-3.65 0.15,0.07 0.3,0.15 0.46,0.22 -0.54,1.62 -0.91,3.33 -1.64,4.86 -1.87,3.89 -2.57,8.06 -3.06,12.25 -0.58,4.87 -1.51,9.71 -1.36,14.66 0.09,3.08 0.76,6.05 1.68,8.91 1.75,5.45 5.64,7.72 11.23,8.02 3.93,0.21 7.67,-0.89 11.49,-1.52 5.03,-0.83 9.99,-2.01 14.76,-3.77 2.72,-1 5.19,-2.62 7.59,-4.34 2.65,-1.9 5.3,-3.91 8.42,-4.97 2.49,-0.85 4.94,-2.04 7.7,-1.78 0.9,0.08 1.85,-0.07 2.94,0.73 -4.39,1.11 -7.75,3.52 -10.61,6.63 -1.83,1.99 -3.35,4.21 -4.75,6.55 -3.21,5.41 -5.29,11.24 -7.23,17.18 -1,3.05 -2.65,5.88 -3.96,8.82 -0.76,1.7 -1.26,3.51 -1.59,5.35 -1.2,6.51 -2.33,13.01 -4.14,19.39 -0.26,0.93 -0.91,1.56 -1.27,2.39 -1.25,0.18 -2.31,-0.35 -3.36,-0.93 -4.92,-2.7 -10.2,-4.63 -15.26,-7.05 -1.03,-0.49 -1.95,-0.37 -2.94,0.4 -1.81,1.4 -3.11,3.28 -4.27,5.09 -2.64,4.11 -5.26,8.22 -8,12.25 -1.63,2.39 -3.04,4.92 -4.86,7.21 -0.9,1.13 -1.95,2.43 -2.2,4.04 -0.84,0.07 -1.15,0.81 -1.39,1.37 -0.96,2.23 -2.73,3.86 -4.14,5.75 -3.35,4.5 -6.86,8.86 -10.62,13.02 -1.11,1.23 -2.13,2.58 -3.41,3.65 -1.91,1.63 -3.46,3.65 -5.53,5.1 -0.06,0.17 -0.08,0.42 -0.21,0.51 -3.16,2.06 -5.74,4.83 -8.7,7.14 -2.24,1.75 -4.5,3.47 -6.66,5.32 -6.1,5.22 -12.19,10.27 -17.25,16.5 -2.73,3.36 -4.92,6.92 -6.2,11.04 -0.26,1 -0.51,2 -0.77,2.99 -0.49,0.02 -0.75,0.25 -0.72,0.76 -0.23,1.09 -0.46,2.18 -0.7,3.27 -1.13,5.01 -1.5,10.14 -2.33,15.19 -0.27,1.69 -0.51,3.38 -0.64,5.08 -0.32,3.98 -0.71,7.97 -0.76,11.96 -0.02,1.84 0.1,3.9 2.02,5.13 1.53,0.98 3.07,0.49 4.46,-0.11 2.76,-1.2 5.32,-2.76 7.83,-4.47 5.64,-3.83 11.05,-7.86 15.68,-12.94 1.08,-1.18 2.04,-2.47 3.16,-3.58 3.66,-3.69 7.32,-7.36 10.27,-11.67 0.49,-0.01 0.74,-0.26 0.73,-0.76 0.29,-0.16 0.38,-0.43 0.42,-0.73 2.51,-2.22 4.26,-5.09 6.25,-7.71 2.22,-2.91 4.33,-5.92 6.49,-8.87 1.6,-2.18 3.03,-4.47 4.64,-6.63 4.08,-5.48 7.97,-11.12 12.59,-16.19 0.71,-0.26 1.02,-1.19 1.92,-1.12 -0.83,1.48 -1.58,3.02 -2.49,4.44 -2.98,4.6 -6.16,9.09 -9,13.78 -2.52,4.17 -5.37,8.12 -7.93,12.27 -1.65,2.67 -3.53,5.2 -5.3,7.8 -1.62,2.39 -3.04,4.94 -4.9,7.12 -1.49,1.74 -2.91,3.57 -4.26,5.38 -2.5,3.33 -5.18,6.47 -8.14,9.36 -2.43,2.37 -4.75,4.83 -7.44,6.97 -1.75,1.4 -3.52,2.95 -5.35,4.17 -4.16,2.78 -8.7,4.97 -13.01,7.55 -1.87,1.11 -3.39,2.64 -4.67,4.16 -3.03,3.6 -4.34,8.1 -5.66,12.54 -0.78,2.63 -1.72,7.01 -2.01,9.74 -0.38,3.48 -1.23,6.88 -1.7,10.34 -0.49,3.57 -0.74,7.17 -1.19,10.75 -0.66,5.22 -0.86,10.46 -0.56,15.68 0.32,5.67 2.77,6.93 8.12,4.95 2.85,-1.06 5.21,-2.84 7.64,-4.47 3.84,-2.59 7.48,-5.44 11.05,-8.39 2,-1.65 4.39,-2.99 6.03,-4.95 1.42,-1.69 3.17,-2.98 4.76,-4.38 2.93,-2.6 5.27,-5.72 8.01,-8.47 1.54,-1.55 3.08,-3.28 4.35,-5.17 1.35,-1.98 3.07,-3.71 4.52,-5.63 1.97,-2.61 3.85,-5.29 5.77,-7.94 2.7,-3.74 5.11,-7.66 7.69,-11.46 1.46,-2.15 2.96,-4.28 4.58,-6.61 0.42,1.35 -0.07,2.17 -0.56,2.97 -0.81,1.32 -1.5,2.72 -2.19,4.07 -2.09,4.13 -4.37,8.15 -6.61,12.21 -2.42,4.39 -5.15,8.59 -7.85,12.8 -2.12,3.29 -4.42,6.46 -6.85,9.51 -1.39,1.75 -2.69,3.59 -4.19,5.23 -1.7,1.85 -3.58,3.53 -5.31,5.37 -1.2,1.28 -3.35,3.18 -4.73,4.26 -2.33,1.81 -4.75,3.54 -7.08,5.34 -1.73,1.33 -3.54,2.72 -5.3,3.99 -4.3,3.1 -8.37,6.43 -12.31,9.95 -3.71,3.3 -6.98,6.9 -9.63,11.12 -2.47,3.94 -4.01,8.22 -4.98,12.69 -0.28,1.28 -0.43,2.58 -0.55,3.88 -0.73,8.17 -1.95,15.99 -0.46,23.79 0.57,2.97 2.22,4.31 5.27,4.15 3.59,-0.2 6.34,-2.38 9.16,-4.23 2.2,-1.45 4.26,-3.14 6.37,-4.74 1.93,-1.46 3.75,-3.06 5.58,-4.59 3.54,-2.97 6.72,-6.38 10.11,-9.54 4.21,-3.93 8.42,-7.85 12.75,-11.63 1.46,-1.28 2.53,-2.92 4.09,-4.05 1.71,-1.23 2.95,-2.92 4.6,-4.24 2.91,-2.35 5.24,-5.4 7.99,-7.96 1.08,-1.01 1.91,-2.32 3.2,-3.04 2.17,-1.22 3.53,-3.29 5.25,-4.95 1.71,-1.65 3.61,-3.1 5.17,-4.94 1.39,-1.64 3.23,-2.89 4.73,-4.44 1.72,-1.77 3.36,-3.66 5.14,-5.35 3.96,-3.78 5.73,-8.61 6.97,-13.63 1.72,-6.91 1.62,-14.1 2.9,-21.13 1.27,-6.96 2.43,-13.93 4.38,-20.73 1.48,-5.11 3.17,-10.16 4.77,-15.24 0.69,0.01 0.71,-0.57 0.9,-1.02 1.08,-2.42 1.75,-4.99 2.81,-7.44 1.65,-3.81 3.05,-7.74 4.97,-11.42 1.8,-3.46 3.47,-6.99 5.24,-10.46 1.52,-2.99 3.48,-5.69 4.99,-8.67 0.23,-0.46 0.51,-1.01 1.32,-0.74 -0.15,0.64 -0.22,1.28 -0.46,1.85 -0.77,1.8 -1.7,3.52 -2.37,5.37 -2.48,6.77 -5.71,13.27 -8.12,20.07 -1.84,5.2 -3.75,10.39 -5.51,15.63 -1.65,4.93 -2.82,9.99 -4.34,14.94 -1.39,4.54 -1.6,9.35 -2.73,13.98 -1.2,4.92 -0.98,10.04 -0.82,15.09 0.12,3.76 2.43,5.75 5.63,4.89 3.72,-0.99 6.48,-3.62 9.3,-5.97 2.78,-2.33 5.04,-5.28 7.76,-7.7 1.24,-1.1 2.35,-2.44 3.73,-3.3 2.07,-1.29 3.63,-3.13 5.42,-4.68 1.7,-1.47 3.49,-2.91 5.06,-4.56 1.52,-1.6 3.46,-2.82 4.85,-4.51 2.32,-2.8 4.95,-5.32 7.04,-8.36 2.18,-3.16 3.77,-6.56 4.8,-10.18 0.91,-3.21 1.13,-6.61 1.96,-9.85 0.77,-3 1.31,-6.01 1.47,-9.09 0.49,-0.39 0.56,-1 0.65,-1.51 0.53,-3.15 1.09,-6.27 2.05,-9.34 1.03,-3.31 2.08,-6.52 3.67,-9.65 2.34,-4.58 5.42,-8.64 8.24,-12.89 0.63,0.01 0.79,-0.51 1.05,-0.93 1.59,-2.57 3.63,-4.84 5.54,-7.12 2.83,-3.39 5.57,-6.83 8.22,-10.35 0.27,-0.36 0.38,-1.13 1.01,-0.86 0.58,0.25 0.2,0.84 0.11,1.32 -0.63,3.49 -2.94,6.14 -4.67,9.04 -3.14,5.25 -7.03,10.01 -10.12,15.3 -0.53,0.6 -1.27,1.11 -1.56,1.81 -1.27,3.11 -3.38,5.74 -4.84,8.77 -1.65,3.41 -2.94,6.93 -4.23,10.43 -1.32,3.57 -1.63,7.4 -1.39,11.23 0.19,2.98 2.16,4.87 5.24,4.87 3.36,0 6.52,-0.99 9.51,-2.41 5.33,-2.53 10.15,-5.94 15.22,-8.9 0.87,-0.51 1.62,-1.08 2.28,-1.81 2.15,-0.87 3.85,-2.42 5.68,-3.78 2.5,-1.87 4.87,-3.91 7.46,-5.64 1.7,-1.13 3.18,-2.59 4.91,-3.6 2.49,-1.45 4.6,-3.36 6.9,-5.03 1.31,-0.95 1.35,-2.35 0.45,-3.64 -3.43,-4.94 -7.17,-9.63 -10.93,-14.32 -2.45,-3.06 -5.15,-5.89 -7.61,-8.93 -2.66,-3.28 -5.71,-6.2 -8.51,-9.32 -2.93,-3.26 -6.27,-6.13 -9.44,-9.17 -0.51,-0.49 -0.95,-1 -1.01,-1.73 3.3,-5.73 4.66,-12.18 6.92,-18.3 1.02,-2.76 2.31,-5.51 3.91,-8.09 1.07,-1.71 1.49,-3.82 2.2,-5.74 0.17,-0.45 0.17,-1.19 0.75,-1.16 0.71,0.04 0.63,0.79 0.66,1.32 0.2,3.35 0.07,6.65 -0.62,9.99 -0.57,2.7 -0.14,5.49 0.47,8.28 1.02,4.7 3.41,8.51 6.39,12.14 6.29,7.67 14.85,8.29 23.69,7.56 5.98,-0.49 11.89,-1.7 17.86,-0.02 4.88,1.38 9.46,3.48 14.08,5.48 2.64,1.14 5.46,1.72 8.29,2.29 5.07,1.03 9.92,-0.16 14.42,-2.08 3.57,-1.52 7.2,-2.99 10.86,-4.09 4.2,-1.26 8.7,-1.55 12.96,0.46 0.33,0.16 0.73,0.18 1.09,0.28 0.29,0.08 0.58,0.18 1.31,0.41 -2.06,0.43 -2.95,0.54 -4.51,1.1 -2.52,0.9 -4.91,2.18 -6.98,3.88 -4.09,3.36 -7.32,7.46 -10.8,11.35 -1.26,1.4 -2.81,2.49 -4.5,3.33 -2.58,1.27 -4.66,2.98 -6.2,5.55 -1.81,3 -2.22,6.42 -3.56,9.51 -1.1,2.55 -2.37,5.06 -4.09,7.35 -2.44,3.29 -4.03,6.99 -5.01,11.06 -1.48,6.17 -3.12,12.29 -3.59,18.64 -0.05,0.69 -0.35,1.28 -0.8,1.64 -3.4,2.71 -5.91,6.26 -8.95,9.3 -0.77,-0.07 -0.87,0.43 -0.87,1.02 -0.22,0.28 -0.44,0.56 -0.66,0.84 -0.85,0.05 -1.38,-0.32 -1.74,-1.11 -2.79,-6.11 -5.77,-12.12 -8.81,-18.1 -2.07,-4.08 -4.25,-8.11 -6.68,-11.99 -1.98,-3.17 -3.7,-6.63 -6.05,-9.67 -0.57,-0.74 -1.22,-1.02 -1.91,-0.69 -1.01,0.47 -2.13,0.59 -3.1,1.2 -3.41,2.12 -6.53,4.63 -9.79,6.93 -5.09,3.58 -9.83,7.61 -14.9,11.2 -0.56,0.39 -1.38,0.68 -1.47,1.58 -1.28,0.85 -2.74,1.52 -3.79,2.6 -1.91,1.95 -4.31,3.24 -6.24,5.14 -1.14,1.12 -2.3,2.24 -3.62,3.15 -2.95,2.01 -5.62,4.33 -8.35,6.59 -1.83,1.52 -3.81,2.85 -5.4,4.64 -1.55,1.29 -3.09,2.67 -4.66,3.84 -3.72,2.79 -7.06,6.01 -10.64,8.96 -2.82,2.31 -5.48,4.94 -8.24,7.36 -2.87,2.52 -5.64,5.21 -8.7,7.53 -1.92,1.45 -3.64,3.16 -5.52,4.68 -3.1,2.5 -6.06,5.17 -8.95,7.93 -2.08,1.98 -4.28,3.93 -5.44,6.68 -0.58,1.36 -0.8,2.85 0.66,3.65 1.42,0.79 2.94,1.5 4.67,1.55 6.22,0.19 12.37,-0.44 18.55,-1.05 7.14,-0.71 14.24,-1.83 21.27,-3.31 4.38,-0.92 8.8,-1.66 13.13,-2.84 4.7,-1.28 9.52,-2.1 14.13,-3.69 0.69,-0.01 1.35,-0.06 2.04,-0.23 3.24,-0.75 6.46,-1.58 9.69,-2.38 4.09,-1.01 8.32,-1.51 12.4,-2.57 3.55,-0.93 7.11,-1.45 10.76,-1.59 2.38,0.19 4.83,-0.42 7.64,0.64 -1.44,0.05 -2.13,0.75 -3.14,0.95 -2.88,0.56 -5.88,0.58 -8.63,1.78 -1.77,-0.13 -3.54,0.35 -5.09,0.92 -4.76,1.72 -9.79,2.27 -14.58,3.91 -5,1.71 -10.18,2.9 -15.22,4.56 -4.4,0.79 -8.61,2.31 -12.79,3.8 -4.95,1.76 -10.04,3 -15.07,4.4 -6.19,1.71 -12.63,1.96 -19.04,1.98 -5.47,0.51 -10.96,0.42 -16.45,1.32 -6.23,1.02 -12.51,1.27 -18.49,3.73 -3.02,1.24 -5.89,2.68 -8.43,4.56 -3.6,2.66 -7.1,5.47 -10.39,8.56 -2.69,2.52 -5.32,5.03 -7.39,8.08 -0.63,0.93 -1.1,1.95 -0.06,2.83 1.04,0.87 2.21,1.58 3.66,1.63 7.59,0.29 15.13,-0.27 22.64,-1.28 1.23,-0.17 2.49,-0.1 3.72,-0.29 5.85,-0.94 11.78,-1.29 17.61,-2.48 5.46,-1.12 11.06,-1.57 16.59,-2.32 2.73,0.04 5.35,-0.66 8.01,-1.03 5.37,-0.75 10.82,-0.4 16.23,-0.51 2.49,-0.05 4.3,1.56 6.53,2.1 -0.46,0.19 -0.87,0.18 -1.29,0.19 -7.43,0.03 -14.76,0.75 -22.08,2.14 -6.73,1.28 -13.48,2.42 -20.17,3.89 -4.21,0.97 -8.49,1.51 -12.71,2.53 -6.49,1.57 -13.25,1.57 -19.8,2.97 -2.57,0.55 -5.31,0.49 -7.96,0.85 -5.63,0.77 -11.3,1.29 -16.84,2.64 -4.43,1.08 -8.99,1.54 -13.17,3.7 -2.87,1.48 -5.77,2.9 -8.17,5.02 -3.42,3.02 -6.72,6.22 -9.86,9.52 -3.58,3.76 -7.3,7.37 -10.94,11.06 -3.6,3.65 -7.34,7.11 -10.07,11.53 -1.4,2.27 -1.4,4.77 0.15,6.11 1.7,1.47 3.66,2.22 5.82,2.65 5.95,1.16 11.97,1.47 18.02,1.45 0.3,1.09 1.2,0.7 1.87,0.7 8.64,0.03 17.28,0.02 25.92,0.03 5.39,0.42 10.79,0.62 16.17,1.04 6.04,0.48 12.03,1.14 18.02,2 5.21,0.76 10.42,1.62 15.69,1.89 1.77,0.93 3.8,1.03 5.67,1.35 7.61,1.33 15.25,2.39 22.81,4 5.21,1.11 10.51,1.76 15.75,2.8 4.41,0.87 8.86,1.54 13.31,2.14 3.43,0.46 6.76,1.38 10.23,1.71 4.57,0.43 9.09,1.19 13.64,1.81 1.41,-0.29 2.48,0.83 3.91,0.85 2.65,0.03 5.29,0.51 7.94,0.8 4.43,0.49 8.84,1.18 13.3,1.37 0.09,0.8 0.7,0.71 1.26,0.76 4.33,0.37 8.66,0.68 12.97,1.19 1.03,0.12 2.24,0.01 3.14,1.06l-17.37 0c-1.81,0.02 -3.61,-0.3 -5.4,-0.31 -7.15,-0.06 -14.24,-1.03 -21.37,-1.38 -2.11,-0.1 -4.21,-0.38 -6.31,-0.54 -2.7,-0.21 -5.35,0.18 -7.97,0.87 -1.7,0.45 -2.92,2.55 -2.37,3.9 0.48,1.2 1.2,2.3 1.65,3.51 0.62,1.65 2.13,2.57 3,3.97 1.42,2.3 3.26,4.2 5.22,5.99 0.57,0.52 1.41,0.98 1.02,1.73 -0.3,0.6 -1.26,0.29 -1.92,0.2 -2.03,-0.28 -3.6,-1.58 -5.31,-2.55 -2.1,-0.72 -3.04,-2.76 -4.2,-4.28 -2.46,-3.26 -4.86,-6.5 -7.75,-9.42 -4,-4.03 -8.8,-6.83 -14.19,-7.98 -7.31,-1.56 -14.67,-3.02 -22.13,-3.89 -3.74,-0.43 -7.45,-0.48 -11.17,0.04 -3.08,0.43 -5.36,2.81 -5.03,5.68 0.31,2.79 1.33,5.38 2.86,7.79 2.32,3.65 4.94,7.07 7.74,10.34 2.81,3.29 5.67,6.53 9.12,9.23 1.35,1.06 2.61,2.25 3.97,3.32 2.52,2 5,4.06 8.01,5.27 2.09,0.84 3.76,2.43 6.16,2.82 -0.56,0.68 -0.96,0.56 -1.31,0.56 -3.66,0.04 -6.97,-0.89 -10.27,-2.66 -4.67,-2.49 -8.84,-5.6 -12.97,-8.85 -1.82,-1.43 -3.17,-3.34 -5.12,-4.59 -1.11,-0.52 -1.17,-1.93 -2.12,-2.55 -2.07,-1.36 -3.19,-3.56 -4.75,-5.36 -1.8,-2.08 -3.16,-4.54 -5.05,-6.56 -1.12,-1.19 -2.26,-2.37 -3.21,-3.71 -4,-5.63 -8.86,-10.32 -14.75,-13.54 -3.37,-1.85 -7.12,-3.28 -11.08,-3.52 -7.95,-0.47 -15.92,-0.81 -23.88,-1.15 -7.12,-0.3 -14.24,0.35 -21.37,0.38 -1.89,0.01 -3.79,0.09 -5.68,0.31 -3.17,0.37 -6.39,0.77 -9.12,2.7 -1.97,1.39 -2.81,3.82 -2.3,6.18 0.58,2.67 1.88,5.03 3.11,7.41 1.75,3.4 4.14,6.4 6.24,9.58 1.73,2.62 3.62,5.13 5.29,7.78 1.81,2.87 3.4,5.86 5.16,8.76 2.47,4.08 5.06,8.1 7.51,12.19 1.99,3.33 4.09,6.59 6.3,9.78 1.25,1.8 2.45,3.66 3.9,5.27 1.76,1.96 3.35,4.16 5.76,5.45 0.39,1.04 1.12,1.83 1.97,2.45 2.92,2.12 5.58,4.61 8.73,6.42 0.45,0.26 0.94,0.48 1.11,1.34 -4.77,-1.49 -8.89,-3.66 -12.64,-6.57 -2.14,-1.67 -3.89,-3.82 -6.28,-5.19 -0.72,-1.01 -1.32,-2.15 -2.19,-3.01 -3.1,-3.06 -5.55,-6.67 -7.9,-10.25 -2.55,-3.86 -5.28,-7.62 -7.59,-11.66 -2.11,-3.66 -4.54,-7.14 -6.72,-10.76 -0.56,-0.92 -1.14,-1.81 -1.79,-2.67 -3.3,-4.41 -6.36,-8.99 -9.9,-13.25 -2.6,-3.13 -5.63,-5.78 -8.78,-8.2 -4.87,-3.75 -10.21,-6.83 -16.05,-8.94 -1.08,-0.39 -2,-1.31 -3.26,-0.98 -1.85,0.48 -3.74,0.47 -5.58,0.27 -2.12,-0.22 -2.99,0.59 -3.05,2.59 -1.43,2.95 2.99,-4.66 -2.2,9.58 -5.19,14.24 -4.14,11.68 -6.18,17.44 -1.37,3.89 -2.25,7.8 -3.68,11.67 -1.98,5.39 -2.83,9.44 -4.93,14.85 -1.19,3.06 -2.27,7.85 -3.52,10.87 -2.25,5.41 -3.42,10.59 -5.56,16.04 -2.14,5.44 -3.61,11.23 -5.79,16.66 -1.81,4.53 -1.78,4.85 -5.98,16.54 -4.21,11.69 -2.27,5.81 -3.76,8.92 -2.63,5.49 -14.14,8.92 -11.98,3.93z"/>
     <path class="fil2" d="M532.39 500.39c-4.54,-0.61 -9.08,-1.37 -13.63,-1.8 -3.2,-0.3 -6.29,-1.11 -9.44,-1.6 -4.66,-0.72 -9.33,-1.3 -13.95,-2.22 -5.29,-1.06 -10.64,-1.71 -15.9,-2.83 -7.56,-1.62 -15.21,-2.68 -22.81,-4 -1.87,-0.33 -3.9,-0.42 -5.67,-1.35 1.02,-2.53 1.96,-5.11 2.87,-7.66 1.58,-4.42 2.77,-9.02 3.74,-13.63 1.55,-7.34 2.85,-14.77 3.07,-22.27 0.22,-7.4 0.81,-14.91 -1.8,-22.12 6.69,-1.47 13.45,-2.62 20.17,-3.89 7.32,-1.39 14.65,-2.1 22.08,-2.14 0.41,0 0.83,0 1.29,-0.19 -2.24,-0.54 -4.04,-2.15 -6.53,-2.1 -5.42,0.11 -10.86,-0.24 -16.23,0.5 -2.67,0.37 -5.29,1.07 -8.01,1.03 0.84,-2.89 -0.21,-5.64 -0.64,-8.43 -0.58,-3.76 -2.35,-7.21 -3.07,-10.93 -0.28,-1.44 -1.72,-3.14 0.62,-4.25 0.11,-0.05 0.05,-0.47 0.07,-0.72 6.42,-0.03 12.86,-0.28 19.05,-1.98 5.04,-1.39 10.12,-2.63 15.07,-4.4 4.18,-1.49 8.39,-3.01 12.79,-3.8 0.99,1.66 1.74,3.46 2.22,5.3 1,3.84 1.62,7.78 2.7,11.59 1.64,5.82 2.16,11.79 3.04,17.73 0.31,2.14 -0.2,4.38 0.73,6.44 -3.58,2.71 -7.22,5.32 -10.83,7.97 -3.33,2.45 -6.55,5.11 -9.13,8.42 -1.6,2.04 -1.22,5.07 0.73,6.82 2.24,2.02 4.87,3.26 7.54,4.58 4.55,2.26 8.81,5.05 13.02,7.93 4,2.74 7.7,5.9 11.97,8.26 1.12,0.62 2.11,1.64 3.3,2.27 -0.63,0.42 -0.82,1.04 -0.9,1.76 -0.66,5.78 -1.61,11.5 -3.15,17.13 -1.33,4.9 -2.11,9.94 -4.36,14.56z"/>
     <path class="fil2" d="M492.65 305.73c-0.16,3.08 -0.69,6.09 -1.47,9.09 -0.84,3.24 -1.06,6.64 -1.96,9.85 -1.03,3.62 -2.62,7.01 -4.8,10.18 -2.09,3.03 -4.72,5.55 -7.04,8.36 -1.39,1.69 -3.33,2.91 -4.85,4.51 -1.58,1.65 -3.36,3.09 -5.06,4.56 -1.8,1.55 -3.36,3.39 -5.42,4.68 -1.39,0.86 -2.49,2.19 -3.73,3.3 -2.72,2.43 -4.97,5.37 -7.76,7.7 -2.82,2.36 -5.58,4.99 -9.3,5.98 -3.2,0.85 -5.5,-1.13 -5.62,-4.9 -0.16,-5.05 -0.37,-10.16 0.83,-15.08 1.13,-4.63 1.33,-9.44 2.72,-13.98 1.52,-4.96 2.69,-10.01 4.34,-14.94 1.75,-5.24 3.67,-10.42 5.51,-15.63 1.77,-5 3.98,-9.85 6.02,-14.75 1.48,-3.58 3,-7.14 4.48,-10.72 0.23,-0.56 0.3,-1.19 0.45,-1.81 -0.8,-0.28 -1.09,0.27 -1.32,0.73 -1.5,2.98 -3.46,5.68 -4.98,8.67 -1.77,3.48 -3.45,7.01 -5.25,10.47 -1.91,3.68 -3.32,7.62 -4.97,11.42 -1.06,2.45 -1.73,5.01 -2.8,7.44 -0.2,0.44 -0.22,1.02 -0.9,1.02 -3.3,-2.89 -6.57,-5.8 -10.07,-8.46 -5.25,-3.98 -10.57,-7.83 -16.3,-11.1 -3.12,-1.78 -6.14,-3.75 -9.36,-5.34 -2.49,-1.23 -4.99,-2.5 -7.72,-3.21 1.78,-2.59 3.66,-5.12 5.3,-7.79 2.56,-4.15 5.41,-8.1 7.93,-12.27 2.84,-4.69 6.02,-9.17 9,-13.78 0.92,-1.43 1.67,-2.96 2.5,-4.44 2.91,-0.27 5.28,1.26 7.54,2.66 1.91,1.18 3.87,2.1 5.9,2.97 0.23,0.81 -0.18,1.52 -0.53,2.12 -1.16,2.01 -1.64,4.25 -2.34,6.41 -1.41,4.35 -3.02,8.65 -3.27,13.29 -0.02,0.37 -0.11,0.75 -0.09,1.12 0.08,1.54 -0.09,3.4 1.5,4.13 1.69,0.77 3.54,0.23 5.05,-0.92 0.92,-0.7 2.05,-0.87 2.99,-1.47 4.03,-2.58 8.19,-4.99 12.04,-7.82 2.76,-2.02 5.35,-4.29 8.25,-6.13 0.05,0.56 0.04,1.15 0.53,1.54 3.56,2.86 7.21,5.62 10.54,8.78 1.79,1.7 3.86,3.1 5.6,4.84 4.63,4.66 9.36,9.21 13.57,14.28 1.29,1.56 2.39,3.48 4.34,4.47z"/>
     <path class="fil3" d="M401.48 564.6c-2.41,-1.29 -4.01,-3.49 -5.76,-5.45 -1.37,-1.53 -2.53,-3.28 -3.72,-4.99 -2.04,-2.95 -4.05,-5.91 -5.87,-9.01 -2.63,-4.46 -5.44,-8.81 -8.13,-13.24 -1.75,-2.89 -3.35,-5.89 -5.15,-8.75 -1.67,-2.66 -3.56,-5.17 -5.29,-7.79 -2.1,-3.18 -4.49,-6.19 -6.24,-9.58 -1.24,-2.41 -2.57,-4.81 -3.13,-7.52 -0.55,-2.63 0.2,-4.59 2.4,-6.12 2.48,-1.73 5.36,-2.2 8.24,-2.55 2.34,-0.28 4.72,-0.39 7.08,-0.41 6.92,-0.06 13.84,-0.67 20.77,-0.38 7.96,0.34 15.93,0.69 23.88,1.15 3.95,0.23 7.7,1.66 11.07,3.51 4.87,2.67 9.03,6.34 12.6,10.71 2.03,2.5 4.12,4.98 6.18,7.48 1.49,1.81 2.7,3.85 4.23,5.62 1.56,1.8 2.68,4 4.75,5.36 0.94,0.63 1,2.04 2.11,2.55 -0.22,0.97 -0.4,1.99 -1.1,2.72 -2.1,2.2 -3.82,4.7 -5.56,7.17 -1.41,2 -3.62,3.44 -4.26,5.98 -4.01,-0.39 -7.84,-1.76 -11.84,-2.22 -4.39,-0.51 -8.52,0.41 -12.02,2.86 -2.27,1.6 -3.72,4.26 -4.26,7.17 -0.21,1.1 -0.39,2.2 -0.58,3.3 -1.83,0.64 -3.22,2.01 -4.78,3.06 -5.06,3.36 -9.85,7.17 -15.61,9.35z"/>
     <path class="fil4" d="M286.29 253.59c-0.48,-0.88 -0.56,-1.84 -0.75,-2.81 -0.68,-3.58 -1.46,-7.14 -2.61,-10.65l0 8.96c-5.4,0.97 -10.53,2.91 -15.67,4.72 -6.73,2.38 -13.27,5.25 -19.72,8.36 -4.92,2.37 -9.67,5.02 -14.43,7.68 -0.79,0.44 -1.21,0.92 -1.22,1.88 -0.01,0.94 0.13,2.04 -1.1,2.49 0,-3.19 -0.09,-6.38 0.02,-9.56 0.12,-3 0.03,-6.05 -0.51,-8.94 -0.95,-5.13 -0.86,-10.46 -2.76,-15.42 -0.17,-0.01 -0.33,-0.02 -0.5,-0.03 0,1.86 -0.24,3.75 0.05,5.56 0.5,3.25 0.18,6.48 0.31,9.72 0.21,4.93 -0.27,9.84 -0.38,14.77 -0.01,0.57 0.05,1.17 -0.75,1.27 0.14,-1.32 -0.18,-2.6 -0.41,-3.88 -0.16,-0.92 -0.56,-1.09 -1.42,-0.51 -3.44,2.33 -7,4.49 -10.29,7.05 -3.76,2.93 -7.65,5.71 -11.27,8.85 -2.41,2.09 -4.91,4.07 -6.99,6.49 -1.87,-2.52 -2.9,-5.44 -4.09,-8.29 -0.94,-2.26 -2.06,-4.42 -2.42,-6.95 -0.38,-2.68 0.18,-5.17 1.26,-7.37 1.27,-2.59 2.08,-5.3 2.82,-8.02 0.66,-2.42 1.92,-4.68 2.05,-7.25 1.04,-0.19 1.03,-1.29 1.62,-1.89 1.51,-1.56 3.5,-2.38 5.13,-3.69 4.19,-3.36 8.9,-5.91 13.45,-8.64 4.72,-2.83 9.57,-5.51 14.63,-7.81 2.29,-1.04 4.66,-2.06 6.79,-3.48 1.71,2.01 3.16,4.24 4.81,6.27 1.57,1.94 3.03,4 4.64,5.92 1.85,2.2 3.63,4.52 5.6,6.61 2.3,2.43 4.64,4.91 7.99,6.05 2.86,0.97 5.35,-0.1 6.56,-2.82 2.3,-5.16 2.89,-10.62 2.97,-16.18 0.07,-5.18 -0.13,-10.44 1.95,-15.29 1.09,-2.53 1.72,-5.35 3.74,-7.44 0.62,-0.02 1.26,0.04 1.87,-0.07 7.5,-1.39 14.86,-3.53 22.46,-4.28 2.37,-0.23 4.79,-1.1 7.2,-0.15 1.22,2.08 1.41,4.47 1.74,6.75 0.58,4.07 2.11,7.86 3.01,11.81 1.18,5.21 3.05,10.2 5.01,15.13 1.26,3.18 2.17,6.55 4.1,9.45 -1.02,0.2 -2.19,-0.11 -3.06,0.16 -3.02,0.94 -6.15,0.94 -9.21,1.23 -7.57,0.72 -14.86,2.74 -22.26,4.24z"/>
     <path class="fil5" d="M526.78 310.22c0.09,-0.89 0.92,-1.18 1.47,-1.57 5.08,-3.59 9.82,-7.62 14.91,-11.2 3.27,-2.3 6.39,-4.81 9.79,-6.93 0.98,-0.6 2.1,-0.73 3.11,-1.2 0.68,-0.32 1.34,-0.04 1.9,0.69 1.8,2.32 3.22,4.88 4.68,7.38 2.72,4.67 5.51,9.3 7.97,14.13 3.07,6.04 6.08,12.1 8.89,18.26 0.36,0.79 0.89,1.16 1.74,1.11 -2.2,3.39 -4.48,6.81 -5.9,10.57 -1.69,4.5 -2.56,9.28 -1.38,14.13 0.49,2 2.92,3.03 4.95,2.51 2.06,-0.53 4.16,-0.91 6,-1.99 2.63,-1.54 5.41,-2.81 7.86,-4.66 2.47,-1.86 5.11,-3.49 7.86,-5.34 0,1.41 -0.95,2.24 -1.57,2.78 -1.59,1.37 -2.62,3.2 -4.28,4.52 -1.85,1.48 -3.26,3.52 -5.11,5 -2.3,1.85 -4.42,3.91 -6.65,5.83 -2.97,2.55 -5.73,5.35 -8.74,7.84 -3.07,2.54 -5.81,5.43 -8.73,8.12 -2.74,2.53 -5.67,4.96 -7.88,8.04 -2,-4.45 -2.62,-9.28 -3.9,-13.93 -0.51,-1.86 -0.88,-3.84 -3.37,-4.07 2.74,-1.2 5.74,-1.22 8.62,-1.78 1.01,-0.2 1.7,-0.9 3.14,-0.95 -2.81,-1.06 -5.25,-0.45 -7.63,-0.64 0.07,-0.24 0.09,-0.61 0.24,-0.68 1.51,-0.64 1.17,-1.52 0.73,-2.8 -1.25,-3.58 -2.47,-7.16 -3.77,-10.73 -2.51,-6.92 -5.66,-13.54 -8.82,-20.14 -2.33,-4.87 -5.14,-9.52 -7.81,-14.22 -1.47,-2.58 -3.08,-5.1 -4.69,-7.6 -0.63,-0.97 -1.39,-1.95 -2.51,-0.37 -0.28,0.39 -0.78,0.35 -1.11,-0.11z"/>
     <path class="fil2" d="M450.57 541.08c0.64,-2.54 2.85,-3.98 4.26,-5.99 1.74,-2.47 3.46,-4.97 5.56,-7.17 0.7,-0.74 0.87,-1.76 1.1,-2.73 1.95,1.25 3.3,3.16 5.12,4.59 4.13,3.25 8.29,6.36 12.97,8.85 3.3,1.76 6.61,2.7 10.27,2.66 0.35,-0.01 0.76,0.11 1.31,-0.56 -2.41,-0.4 -4.07,-1.98 -6.16,-2.82 -3.01,-1.21 -5.49,-3.27 -8.01,-5.27 -1.36,-1.08 -2.62,-2.27 -3.98,-3.32 -3.44,-2.7 -6.3,-5.94 -9.11,-9.23 -2.79,-3.27 -5.42,-6.69 -7.74,-10.34 -1.53,-2.42 -2.54,-5 -2.86,-7.79 -0.32,-2.87 1.95,-5.26 5.03,-5.69 3.72,-0.52 7.42,-0.48 11.17,-0.04 7.46,0.87 14.82,2.34 22.13,3.89 5.39,1.14 10.19,3.95 14.19,7.98 2.88,2.91 5.29,6.16 7.75,9.41 1.15,1.52 2.1,3.56 4.2,4.28 -1.06,2.49 -2,5.03 -3.41,7.37 -1.1,1.85 -2.1,3.76 -2.55,5.9 -1.63,0.28 -3.2,0.8 -4.79,1.26 -3.95,1.16 -5.23,4.27 -6.13,7.67 -0.72,2.72 1.93,6.95 6.14,7.08 2.31,0.07 4.6,-0.02 7.04,-0.8 -1.26,2.74 -3.59,3.37 -5.95,3.71 -6.1,0.87 -12.14,-0.03 -17.99,-1.58 -3.46,-0.92 -7.03,-1.5 -10.39,-2.75 -3.73,-1.38 -7.66,-2.04 -11.4,-3.33 -5.85,-2.03 -11.85,-3.49 -17.77,-5.26z"/>
     <path class="fil4" d="M130.26 440.03c-4.17,0.35 -8.18,-0.93 -12.27,-1.33 -2.28,-0.23 -4.6,0.05 -6.85,-0.56 -0.05,-0.39 -0.21,-0.69 -0.66,-0.72 -0.52,-0.03 -0.8,0.2 -0.85,0.71 -0.24,0 -0.49,0 -0.74,0 0.13,-4.6 -0.06,-9.18 0.28,-13.79 0.33,-4.5 0.59,-9 1.27,-13.47 0.55,-3.64 0.58,-3.63 -2.74,-3.52 1.56,-1.48 3.81,-1.26 5.55,-2.31 2.83,-1.71 5.69,-3.37 8.58,-4.96 1.25,-0.69 2.63,-1.12 3.91,-1.74 2.58,-1.25 5.17,-2.41 7.02,-4.85 1.82,-2.4 2.05,-6.14 0.44,-8.65 -3.27,-5.1 -7.96,-8.74 -12.45,-12.62 -2.51,-2.17 -4.91,-4.47 -6.85,-7.18 -0.29,-0.41 -0.9,-0.46 -0.95,-1.04 0.52,-0.67 1.31,-1.11 1.53,-2.04 0.95,-4 2.77,-7.68 4.2,-11.5 1.21,-3.24 2.37,-6.53 4,-9.55 2.89,-5.35 5.16,-11.01 8.36,-16.2 0.77,-1.26 1.27,-2.64 2.98,-2.86 2.24,1.7 4.8,2.91 7.14,4.48 2.53,1.7 5.21,3.26 7.71,5 2.96,2.04 6.34,3.52 8.79,6.27 -0.94,-0.08 -1.5,0.42 -1.92,1.2 -1.34,2.46 -2.85,4.84 -4.02,7.38 -2.68,5.81 -5.4,11.6 -7.76,17.56 -1.83,4.63 -3.46,9.33 -4.89,14.06 -1.57,5.2 -3.14,10.43 -4.22,15.8 -1.96,9.8 -3.65,19.62 -4.2,29.61 -0.31,5.6 -0.51,11.21 -0.39,16.82z"/>
     <path class="fil5" d="M508.41 278.73c3.1,-5.29 6.99,-10.05 10.12,-15.3 1.74,-2.9 4.05,-5.55 4.67,-9.04 0.08,-0.47 0.47,-1.07 -0.12,-1.32 -0.63,-0.27 -0.74,0.5 -1.01,0.87 -2.65,3.52 -5.4,6.96 -8.22,10.34 -1.91,2.29 -3.95,4.55 -5.54,7.12 -0.26,0.42 -0.41,0.94 -1.05,0.93 -0.16,-0.72 -0.25,-1.52 -0.77,-2.06 -3.85,-3.92 -7.78,-7.77 -11.88,-11.44 -1.51,-1.35 -3.38,-2.43 -4.22,-4.45 1.14,-0.48 2.28,-0.96 3.41,-1.44 2.44,-1.04 4.27,-2.84 6.23,-4.59 2.19,-1.95 4.74,-3.7 7.76,-4.22 3.7,-0.65 6.23,-2.78 8.15,-5.85 0.16,-0.25 0.4,-0.47 0.59,-0.71 0.06,0.74 0.51,1.25 1.01,1.73 3.17,3.03 6.51,5.91 9.44,9.17 2.81,3.13 5.85,6.04 8.51,9.32 2.46,3.03 5.16,5.87 7.61,8.93 3.75,4.69 7.5,9.38 10.92,14.32 0.89,1.29 0.86,2.69 -0.45,3.64 -2.3,1.67 -4.41,3.57 -6.9,5.02 -1.73,1.01 -3.2,2.46 -4.91,3.6 -2.59,1.72 -4.96,3.77 -7.46,5.64 -1.82,1.36 -3.52,2.91 -5.68,3.78 0.81,-2.51 -0.58,-4.43 -1.93,-6.17 -4.05,-5.25 -8.07,-10.52 -12.42,-15.52 -1.5,-1.72 -2.72,-4.2 -5.7,-2.31 -0.04,0.03 -0.12,0.01 -0.18,0.01z"/>
     <path class="fil3" d="M321.55 496.2c0.05,-1.99 0.93,-2.8 3.05,-2.59 1.84,0.19 3.74,0.21 5.58,-0.27 1.26,-0.33 2.18,0.58 3.26,0.98 5.85,2.11 11.19,5.2 16.05,8.94 3.15,2.42 6.19,5.07 8.78,8.2 3.54,4.25 6.59,8.84 9.9,13.25 0.74,0.99 1.38,2.01 2.02,3.06 2.12,3.48 4.45,6.84 6.48,10.37 2.31,4.03 5.04,7.79 7.59,11.66 2.36,3.58 4.8,7.19 7.91,10.25 0.87,0.86 1.46,2 2.19,3.01 0.1,0.35 0.16,0.74 0.33,1.05 0.77,1.39 0.37,2.17 -1.05,2.94 -2.2,1.2 -4.55,1.99 -6.83,2.96 -0.69,0.29 -1.49,0.39 -1.51,1.38 -2.54,-1.3 -4.1,-3.68 -6.05,-5.62 -2.64,-2.63 -5.2,-5.36 -7.56,-8.23 -1.63,-1.99 -3.43,-3.84 -4.93,-5.96 -1.76,-2.49 -3.94,-4.68 -5.78,-7.12 -3.77,-4.99 -7.6,-9.94 -11.2,-15.06 -2.54,-3.6 -5.26,-7.11 -7.71,-10.78 -2.69,-4.03 -5.51,-7.99 -8.26,-11.98 -3.08,-4.48 -6.9,-8.48 -12.28,-10.44z"/>
     <path class="fil4" d="M434.47 261.09c-2.03,-0.87 -4,-1.79 -5.9,-2.97 -2.26,-1.39 -4.63,-2.92 -7.54,-2.65 -0.9,-0.07 -1.21,0.86 -1.92,1.11 -0.73,-1.64 -2.3,-2.11 -3.78,-2.67 -4.65,-1.75 -9.06,-4.07 -13.81,-5.53 -3.94,-1.22 -7.72,-3.13 -12,-3.03 2.08,-1.45 3.62,-3.48 5.54,-5.1 1.27,-1.07 2.29,-2.42 3.4,-3.65 3.7,-4.1 7.25,-8.35 10.48,-12.83 1.43,-1.98 3.3,-3.64 4.29,-5.95 0.24,-0.56 0.56,-1.3 1.39,-1.37 1.72,-0.82 3.12,-0.03 4.77,0.58 7.52,2.76 14.76,6.08 21.79,9.91 1.01,0.55 2.04,0.88 3.2,0.81 -0.24,6.43 -1.74,12.66 -3.74,18.7 -1.66,5.01 -4.08,9.77 -6.16,14.65z"/>
     <path class="fil5" d="M134.02 321.85c-1.71,0.22 -2.2,1.6 -2.98,2.86 -3.2,5.2 -5.46,10.85 -8.35,16.2 -1.63,3.02 -2.8,6.32 -4.01,9.55 -1.43,3.82 -3.25,7.51 -4.2,11.5 -0.22,0.93 -1,1.37 -1.53,2.04 -1.63,-2.06 -3.31,-4.07 -4.83,-6.24 -1.68,-2.4 -3.35,-4.85 -4.75,-7.37 -1.97,-3.55 -3.98,-7.11 -5.64,-10.85 -2.14,-4.83 -4.34,-9.62 -6.13,-14.59 -0.39,-1.08 -1.48,-1.81 -1.6,-3.04 2.12,1.13 2.85,-0.25 3.64,-1.87 1.62,-3.27 3.38,-6.47 5.06,-9.71 0.52,-1 1.03,-1.97 1.75,-2.85 1.1,-1.34 3.01,-2.02 4.37,-1.07 1.26,0.88 2.67,1.32 4.02,1.89 5.19,2.17 10.15,4.8 15.06,7.49 3.43,1.88 7,3.61 10.11,6.06z"/>
     <path class="fil4" d="M490.39 254.39c0.83,2.02 2.7,3.1 4.22,4.45 4.1,3.67 8.03,7.52 11.88,11.44 0.53,0.54 0.61,1.33 0.77,2.05 -2.81,4.25 -5.89,8.31 -8.24,12.9 -1.6,3.12 -2.64,6.34 -3.67,9.65 -0.96,3.08 -1.51,6.2 -2.05,9.34 -0.08,0.51 -0.17,1.12 -0.65,1.51 -1.95,-0.99 -3.05,-2.92 -4.34,-4.47 -4.21,-5.07 -8.94,-9.62 -13.57,-14.28 -1.73,-1.74 -3.81,-3.14 -5.6,-4.83 -3.32,-3.16 -6.97,-5.92 -10.53,-8.78 -0.5,-0.4 -0.49,-0.98 -0.54,-1.54 0.35,-1.07 1.42,-1.3 2.21,-1.84 4.2,-2.88 8.3,-5.85 12.97,-8.06 4.78,-2.27 9.63,-4.35 14.55,-6.27 0.91,-0.36 1.55,-1.24 2.6,-1.26z"/>
     <path class="fil4" d="M550.41 370.24c2.48,0.23 2.86,2.21 3.37,4.07 1.28,4.65 1.91,9.49 3.9,13.94 -2.9,2.62 -5.29,5.73 -8.17,8.39 -1.3,1.2 -2.54,2.61 -3.78,3.94 -1.79,1.92 -3.76,3.69 -5.61,5.55 -1.89,1.92 -3.84,3.75 -5.83,5.55 -3.33,3.03 -6.72,6 -10.08,9 -0.93,-2.06 -0.42,-4.3 -0.73,-6.44 -0.88,-5.94 -1.4,-11.91 -3.05,-17.73 -1.07,-3.81 -1.69,-7.75 -2.69,-11.59 -0.48,-1.84 -1.23,-3.64 -2.22,-5.3 5.03,-1.66 10.22,-2.85 15.21,-4.56 4.79,-1.64 9.82,-2.19 14.58,-3.91 1.55,-0.57 3.32,-1.05 5.09,-0.92z"/>
     <path class="fil5" d="M107.7 407.36c3.32,-0.1 3.29,-0.11 2.74,3.53 -0.67,4.46 -0.93,8.96 -1.26,13.46 -0.34,4.6 -0.15,9.19 -0.28,13.79 -2.49,-0.74 -5.08,-0.46 -7.6,-0.63 -3.59,-0.25 -7.22,-0.33 -10.82,-0.57 -7.81,-0.52 -15.6,-0.05 -23.39,-0.32 -1.37,-0.05 -2.63,0.62 -4.07,0.25 -1.32,-0.35 -1.98,-0.85 -1.78,-2.26 0.49,-3.53 0.38,-7.08 0.38,-10.64 2.51,-1.86 5.51,-2.83 8.04,-4.71 2.65,-1.98 5.74,-3.39 8.37,-5.38 2.33,-1.77 5.05,-2.72 7.52,-4.15 2.62,-1.52 5.71,-1.68 8.7,-1.82 4.48,-0.21 8.97,0.02 13.44,-0.53z"/>
     <path class="fil5" d="M237.17 226.2c-2.13,1.41 -4.5,2.44 -6.79,3.48 -5.05,2.29 -9.9,4.98 -14.63,7.81 -4.56,2.73 -9.26,5.28 -13.45,8.64 -1.63,1.31 -3.62,2.13 -5.13,3.69 -0.59,0.6 -0.58,1.7 -1.61,1.89 0.72,-3.8 1,-7.68 2.13,-11.43 0.6,-1.99 0.75,-4.16 0.82,-6.26 0.07,-2.62 0.38,-5.21 0.5,-7.83 0.2,-4.37 0.56,-8.74 0.22,-13.08 -0.23,-2.92 0.59,-5.61 0.85,-8.41 0.09,-0.93 0.91,-1.2 1.51,-1.52 3.15,-1.72 6.32,-3.43 9.56,-4.98 1.38,-0.66 2.46,-1.95 4.12,-2.07 2.46,3.81 4.81,7.69 7.41,11.4 2.96,4.21 5.97,8.41 9.29,12.33 1.5,1.77 2.89,3.69 4.7,5.2 0.35,0.29 0.56,0.67 0.51,1.15z"/>
     <path class="fil4" d="M511.82 535.07c0.44,-2.14 1.44,-4.05 2.55,-5.9 1.4,-2.34 2.35,-4.88 3.41,-7.37 1.71,0.98 3.27,2.27 5.31,2.56 0.65,0.09 1.61,0.4 1.92,-0.2 0.39,-0.75 -0.45,-1.22 -1.02,-1.73 -1.96,-1.79 -3.8,-3.7 -5.22,-6 -0.86,-1.39 -2.38,-2.32 -2.99,-3.96 -0.46,-1.2 -1.17,-2.31 -1.65,-3.51 -0.54,-1.35 0.67,-3.45 2.38,-3.9 3.21,-0.84 6.46,-1.25 9.78,-0.64 2.08,0.38 4.22,0.28 6.32,0.41 6.51,0.41 13.01,1.22 19.55,1.28 1.78,0.02 3.58,0.34 5.4,0.32 -0.01,1.05 0.13,2.11 -0.35,3.1 -1.56,3.18 -2.2,6.68 -3.45,9.97 -0.5,1.32 -1.36,2.53 -1.08,4.05 -3.35,1.43 -6.57,3.18 -9.61,5.14 -3.11,2.01 -6.2,4.23 -8.33,7.4 -0.56,0.84 -1.08,0.94 -1.99,0.87 -2.67,-0.19 -5.2,-1.15 -7.85,-1.39 -4.34,-0.38 -8.69,-0.8 -13.07,-0.51z"/>
     <path class="fil5" d="M306.95 204.82c-2.41,-0.95 -4.83,-0.09 -7.2,0.14 -7.61,0.75 -14.96,2.9 -22.46,4.29 -0.6,0.11 -1.25,0.05 -1.87,0.06 1.12,-2.55 2.04,-5.18 2.71,-7.89 1.44,-1.93 0.53,-4.06 0.48,-6.11 0,-0.07 -0.31,-0.14 -0.48,-0.22 -0.67,-3.77 -1.21,-7.59 -2.42,-11.22 -0.99,-2.98 -1.88,-5.97 -2.25,-9.1 -0.07,-0.61 -0.08,-1.23 -0.13,-1.85 2.4,0.15 4.69,-0.47 6.97,-1.08 5.42,-1.45 10.99,-1.93 16.52,-2.61 2.79,-0.34 2.82,0.3 3.85,3.01 1.34,3.49 1.53,7.13 2.26,10.69 1.42,6.84 2.68,13.71 3.98,20.57 0.08,0.43 0.03,0.87 0.03,1.31z"/>
     <path class="fil2" d="M385.32 571.39c0.01,-0.99 0.81,-1.1 1.51,-1.38 2.28,-0.97 4.63,-1.76 6.83,-2.97 1.41,-0.78 1.81,-1.54 1.05,-2.93 -0.17,-0.32 -0.23,-0.7 -0.33,-1.06 2.39,1.36 4.13,3.52 6.28,5.18 3.75,2.92 7.87,5.09 12.64,6.57 -0.17,-0.85 -0.66,-1.07 -1.11,-1.33 -3.15,-1.81 -5.81,-4.3 -8.73,-6.42 -0.85,-0.62 -1.58,-1.42 -1.97,-2.45 5.77,-2.18 10.55,-5.99 15.61,-9.36 1.57,-1.04 2.95,-2.41 4.79,-3.05 -0.39,4.74 0.11,9.47 0.37,14.17 0.16,2.88 0.09,5.98 1.76,8.68 0.53,0.86 0.56,2.03 0.76,3.07 0.79,3.9 2.54,7.44 4.86,10.53 2.4,3.2 5.79,5.18 10.09,4.86 0.68,-0.05 1.37,-0.01 2.1,-0.01 -0.45,0.74 -1.08,1.02 -1.9,1.23 -6.5,1.69 -13.05,1.65 -19.42,-0.19 -3.85,-1.11 -7.65,-2.56 -11.23,-4.55 -3.23,-1.8 -6.29,-3.8 -9.35,-5.85 -3.77,-2.52 -7.15,-5.49 -10.5,-8.52 0.07,-0.5 -0.07,-0.85 -0.62,-0.93 -1.55,-0.68 -2.75,-1.73 -3.47,-3.29z"/>
     <path class="fil5" d="M444.37 227.74c-1.15,0.07 -2.19,-0.26 -3.2,-0.8 -7.03,-3.82 -14.27,-7.14 -21.79,-9.91 -1.65,-0.6 -3.04,-1.4 -4.77,-0.58 0.25,-1.6 1.3,-2.91 2.2,-4.04 1.82,-2.29 3.23,-4.82 4.86,-7.21 2.74,-4.03 5.36,-8.14 8,-12.25 1.16,-1.81 2.46,-3.69 4.27,-5.09 0.98,-0.77 1.91,-0.89 2.94,-0.4 5.06,2.42 10.33,4.34 15.26,7.05 1.04,0.58 2.11,1.11 3.36,0.93 -0.68,3.44 -2.64,6.36 -3.85,9.58 -1.47,3.87 -3.11,7.7 -4.78,11.45 -1.66,3.71 -1.52,7.55 -2.5,11.26z"/>
     <path class="fil5" d="M552.66 523.55c-0.29,-1.52 0.58,-2.73 1.07,-4.05 1.24,-3.29 1.89,-6.79 3.44,-9.97 0.49,-0.99 0.34,-2.06 0.35,-3.1l17.37 0c-0.89,-1.05 -2.11,-0.94 -3.14,-1.06 -4.31,-0.51 -8.64,-0.82 -12.96,-1.19 -0.56,-0.05 -1.17,0.04 -1.26,-0.76 0.92,-0.12 1.83,-0.28 2.75,-0.37 0.59,-0.05 1.2,-0.13 1.3,-0.81 0.42,-2.9 1.88,-5.49 2.36,-8.39 0.31,-1.86 0.23,-3.87 1.48,-5.49 1.95,0.78 2.86,2.8 4.68,3.8 3.02,1.66 6.03,3.32 9.13,4.85 3.11,1.55 6.43,2.18 9.58,3.4 4.81,1.88 9.91,2.18 14.89,3.12 2.28,0.43 4.58,0.74 7.39,1.06 -3.26,2.01 -6.18,3.5 -9.28,4.7 -5.31,2.05 -10.93,2.69 -16.4,4.01 -4.47,1.07 -9.09,1.43 -13.47,2.77 -4.45,1.36 -8.95,2.67 -13.17,4.7 -2.02,0.98 -4.08,1.85 -6.12,2.77z"/>
     <path class="fil4" d="M565.43 488.36c-1.25,1.62 -1.17,3.63 -1.48,5.49 -0.49,2.89 -1.94,5.49 -2.36,8.39 -0.1,0.68 -0.7,0.76 -1.3,0.81 -0.92,0.09 -1.84,0.25 -2.76,0.37 -4.46,-0.19 -8.87,-0.88 -13.29,-1.37 -2.65,-0.3 -5.29,-0.77 -7.94,-0.81 -1.43,-0.02 -2.5,-1.14 -3.91,-0.85 2.12,-1.89 2.92,-7.41 4.36,-14.56 1.54,-5.64 2.49,-11.35 3.15,-17.13 0.08,-0.72 0.27,-1.34 0.91,-1.75 3.9,2.58 8.37,4.26 11.85,7.47 3.43,3.17 6.8,6.38 9.59,10.18 0.96,1.3 2.5,2.18 3.19,3.77z"/>
     <path class="fil6" d="M278.13 195.09c0.17,0.07 0.48,0.14 0.49,0.22 0.04,2.05 0.96,4.18 -0.48,6.11 0,-2.11 -0,-4.22 -0,-6.33z"/>
     <path class="fil5" d="M581.9 330.04c0.01,-0.58 0.1,-1.09 0.87,-1.02 0.1,0.67 -0.29,0.93 -0.87,1.02z"/>
     <path class="fil5" d="M214 194.28c-0.79,0.04 -0.86,-0.48 -0.83,-1.08 0.69,0.03 0.69,0.61 0.83,1.08z"/>
     <path class="fil6" d="M388.79 574.67c0.56,0.08 0.7,0.43 0.62,0.93 -0.47,-0.14 -0.58,-0.51 -0.62,-0.93z"/>
     <polygon class="fil2" points="442.55,593.22 443.24,593.22 443.24,593.31 442.55,593.31 "/>
     <path class="fil1" d="M270.85 92.02c-0.15,-0.1 -0.29,-0.2 -0.44,-0.29 0.05,-0.04 0.09,-0.1 0.15,-0.11 0.2,-0.03 0.37,0 0.41,0.25 -0.04,0.05 -0.08,0.1 -0.12,0.15z"/>
     <path class="fil1" d="M429.45 95.36c0.03,0.03 0.1,0.08 0.09,0.13 0,0.04 -0.07,0.09 -0.11,0.13 -0.04,-0.04 -0.11,-0.09 -0.1,-0.14 0,-0.04 0.08,-0.08 0.12,-0.12z"/>
     <path class="fil2" d="M146.78 492.56c3.28,0.61 6.56,0.42 9.86,0.15 2.36,-0.19 4.72,-0.46 6.98,-1.12 5.33,-1.55 10.65,-3.19 15.62,-5.74 5.52,-2.83 10.93,-5.85 16.37,-8.82 2.77,-1.51 5.29,-3.46 8.19,-4.73 0,0.9 -0.43,1.73 -0.09,2.72 1.17,3.4 1.88,6.98 3.32,10.24 2.34,5.33 4.59,10.71 7.36,15.86 3.28,6.08 7.1,11.78 11.06,17.41 1.38,1.97 3.34,3.53 4.23,5.85 -4.4,3.23 -9.04,6 -14.04,8.24 -2.8,1.26 -5.66,2.08 -8.62,2.71 -0.53,0.11 -1.04,0.35 -1.56,0.53 0,0.17 0.01,0.34 0.01,0.51 1.98,0 4.03,0.34 5.92,-0.07 3.12,-0.7 6.26,-1.6 9.14,-2.95 2.65,-1.25 5.35,-2.47 7.87,-4.07 2.71,-1.71 5.41,-3.44 8.06,-5.26 1.47,-1.02 2.75,-2.32 4.46,-2.98 0.42,0.91 -1.33,1.62 -0.17,2.68 2.86,2.59 5.25,5.68 8.48,7.88 1.16,0.79 2.03,1.81 2.18,3.29 -1.6,1.76 -3.74,2.59 -5.81,3.64 -4.11,2.08 -8.57,2.77 -12.9,4.02 -5.28,1.53 -10.67,1.59 -16.04,2.07 -2.98,0.27 -5.99,0.33 -8.98,0.53 -4.16,0.27 -8.09,1.59 -12.27,2.8 0.63,-3.2 0.79,-6.34 2.25,-9.24 0.61,-1.21 0.8,-2.62 1.31,-3.89 1.51,-3.84 3.38,-7.49 5.8,-10.85 2.2,-3.07 4.26,-6.26 5.71,-9.74 1.13,-2.71 0.93,-5.76 -3.21,-6.32 -0.42,-0.06 -0.82,-0.26 -1.23,-0.39 -1.04,-1.03 -3.48,-1.02 -4.5,0.01 -1.63,0.21 -3.25,0.19 -4.88,0 -0.11,-0.79 -0.72,-0.72 -1.27,-0.73 -1.05,-0.01 -2.1,-0.01 -3.16,-0.02 -2.68,0.1 -5.28,-0.56 -7.91,-0.85 -6.63,-0.74 -13.24,-0.29 -19.69,1.03 -4.82,0.99 -9.61,1.71 -14.49,2.02 0.12,-1.08 -0.2,-2.09 -0.64,-3.04 -1.39,-3.03 -2.3,-6.23 -3.27,-9.41 -0.46,-1.52 -0.72,-2.78 0.55,-3.95z"/>
     <path class="fil4" d="M146.78 492.56c-1.26,1.17 -1.01,2.44 -0.55,3.95 0.97,3.18 1.88,6.38 3.27,9.41 0.44,0.96 0.76,1.97 0.64,3.04 -6.25,0.58 -12.53,0.39 -18.57,-1.17 -3.34,-0.87 -7.01,-1.77 -9.46,-4.75 -0.72,-0.88 -1.36,-1.73 -1.52,-3.05 1.54,0.32 2.52,1.71 4.13,1.75 2.01,0.04 3.96,0.23 5.65,-1.19 0.42,-0.35 0.94,-0.62 1.46,-0.8 2.37,-0.82 3.27,-2.81 3.62,-4.96 0.4,-2.45 -0.42,-4.57 -2.39,-6.33 -5.58,-4.97 -12.29,-6.49 -19.49,-7.01 -3.81,-0.27 -7.47,0.4 -11.2,0.7 -1.14,0.1 -1.92,-0.03 -2.65,-1.11 -1.56,-2.3 -2.92,-4.7 -4.05,-7.24 1.3,0.07 1.69,-0.3 1.39,-1.76 -0.48,-2.28 -0.94,-4.61 -1.18,-6.9 -0.68,-6.27 -0.89,-12.6 -1.23,-18.9 -0.11,-2.08 -0.51,-4.35 2.2,-5.3 0.03,-0.01 0.03,-0.12 0.04,-0.18 2.75,0.37 5.51,0.71 8.26,1.11 3.27,0.48 6.53,1.03 9.8,1.49 3.67,0.52 7.34,1.14 11.03,1.44 4.12,0.33 8.07,1.6 12.18,1.96 -0.63,0.96 -0.82,1.99 -0.79,3.14 0.05,1.74 0.28,3.47 0.35,5.2 0.19,4.42 1.32,8.68 1.79,13.05 0.69,6.53 2.38,12.9 3.96,19.26 0.36,1.45 0.22,3.36 2.2,3.99 -0.12,0.32 -0.77,0.44 -0.54,0.8 0.38,0.59 1.1,0.18 1.65,0.32z"/>
     <path class="fil3" d="M251.42 534.89c-0.14,-1.48 -1.02,-2.5 -2.17,-3.29 -3.23,-2.19 -5.63,-5.28 -8.48,-7.87 -1.16,-1.06 0.58,-1.77 0.17,-2.68 2.82,-2.37 5.82,-4.52 8.72,-6.78 3.47,-2.7 7.15,-5.06 10.64,-7.7 2.16,-1.63 4.59,-2.91 6.94,-4.28 4.01,-2.32 8.04,-4.61 12.33,-6.38 4.4,-1.83 8.83,-3.48 13.51,-4.59 3.87,-0.91 7.71,-1.62 11.51,-0.61 3.77,1 7.56,1.75 11.39,2.43 0.49,0.08 1.22,-0.07 1.41,0.66 0.21,0.81 -0.47,1.06 -0.98,1.39 -3.15,-0.02 -6.33,0.26 -9.15,1.57 -2.75,1.27 -5.54,2.51 -8.08,4.33 -2.49,1.78 -5.16,3.37 -7.68,5.13 -1.94,1.36 -4,2.55 -5.85,4.07 -1.92,1.59 -4.09,2.93 -6.17,4.34 -3.05,2.07 -5.94,4.36 -8.92,6.52 -4.53,3.28 -8.94,6.72 -13.54,9.9 -1.86,1.29 -3.37,3.09 -5.6,3.84z"/>
     <path class="fil5" d="M96.89 440.78c-0.02,0.06 -0.01,0.17 -0.04,0.18 -2.71,0.94 -2.31,3.22 -2.2,5.3 0.34,6.3 0.55,12.63 1.23,18.9 0.25,2.28 0.71,4.62 1.18,6.9 0.3,1.46 -0.09,1.83 -1.39,1.75 -3.02,-3.25 -7.21,-3.74 -11.19,-4.84 -2.98,-0.82 -5.75,-2.17 -8.19,-4.26 -4.19,-3.57 -7.11,-8.22 -10.73,-12.27 -1.32,-1.47 -3.12,-2.33 -4.32,-3.87 0.85,-2.84 0.01,-5.67 -0.01,-8.51 -0,-1.14 0.2,-1.78 1.58,-1.98 3.67,-0.51 7.3,0.11 10.93,0.26 2.13,0.08 4.32,0.07 6.48,0.51 3.42,0.7 6.88,1.16 10.39,1.29 2.1,0.08 4.18,0.42 6.28,0.64z"/>
     <path class="fil6" d="M192.24 506.77c1.06,0.01 2.11,0.02 3.16,0.03 0.55,0 1.16,-0.07 1.27,0.72 -1.5,-0.11 -3.1,0.39 -4.42,-0.75z"/>
     <path class="fil6" d="M201.54 507.52c1.02,-1.03 3.46,-1.04 4.5,-0.01l-4.5 0.01z"/>
     <path class="fil3" d="M396.3 293.75c2.72,0.71 5.23,1.98 7.71,3.21 3.21,1.58 6.24,3.56 9.36,5.34 5.73,3.26 11.05,7.12 16.3,11.1 3.51,2.66 6.78,5.57 10.07,8.46 -1.6,5.08 -3.29,10.12 -4.77,15.23 -1.96,6.8 -3.11,13.77 -4.38,20.73 -1.28,7.02 -1.18,14.21 -2.9,21.12 -1.25,5.03 -3.01,9.85 -6.97,13.63 -1.77,1.69 -3.42,3.57 -5.14,5.35 -1.51,1.56 -3.35,2.8 -4.73,4.45 -1.56,1.84 -3.46,3.29 -5.17,4.94 -1.71,1.66 -3.07,3.73 -5.25,4.95 -1.29,0.72 -2.13,2.04 -3.2,3.05 -2.75,2.56 -5.08,5.61 -7.99,7.96 -1.65,1.32 -2.89,3.01 -4.6,4.24 -1.55,1.12 -2.63,2.77 -4.09,4.05 -4.33,3.78 -8.55,7.71 -12.75,11.63 -3.39,3.16 -6.56,6.57 -10.1,9.54 -1.84,1.54 -3.65,3.14 -5.58,4.59 -2.11,1.6 -4.17,3.29 -6.37,4.74 -2.82,1.86 -5.57,4.03 -9.16,4.23 -3.05,0.17 -4.69,-1.17 -5.27,-4.15 -0.85,-4.43 -0.83,-8.88 -0.51,-13.38 0.31,-4.41 0.44,-8.85 1.28,-13.18 0.95,-4.87 2.53,-9.53 5.21,-13.8 2.65,-4.22 5.92,-7.82 9.63,-11.13 3.95,-3.52 8.02,-6.85 12.32,-9.95 1.75,-1.26 3.57,-2.66 5.3,-3.99 2.35,-1.8 4.78,-3.54 7.12,-5.37 1.45,-1.13 2.93,-2.29 4.15,-3.65 1.88,-2.07 3.97,-3.9 5.85,-5.94 1.49,-1.62 2.78,-3.44 4.15,-5.17 2.4,-3.03 4.7,-6.15 6.78,-9.4 2.74,-4.26 5.5,-8.51 7.96,-12.97 2.24,-4.05 4.52,-8.07 6.61,-12.2 0.69,-1.36 1.37,-2.76 2.19,-4.07 0.49,-0.79 0.97,-1.62 0.56,-2.97 -1.62,2.33 -3.11,4.46 -4.58,6.61 -2.59,3.81 -4.99,7.73 -7.7,11.46 -1.91,2.65 -3.79,5.33 -5.76,7.94 -1.45,1.92 -3.17,3.65 -4.52,5.63 -1.28,1.89 -2.82,3.63 -4.36,5.17 -2.74,2.75 -5.08,5.88 -8.01,8.47 -1.58,1.4 -3.34,2.69 -4.76,4.38 -1.5,1.8 -3.64,3.07 -5.52,4.54 -3.71,2.89 -7.3,5.96 -11.2,8.55 -2.55,1.7 -5.01,3.6 -8,4.71 -5.35,1.99 -7.8,0.72 -8.13,-4.94 -0.29,-5.22 -0.09,-10.46 0.58,-15.68 0.45,-3.57 0.7,-7.17 1.19,-10.75 0.48,-3.48 1.33,-6.89 1.71,-10.39 0.31,-2.9 0.84,-5.79 1.68,-8.59 1.44,-4.79 2.7,-9.74 5.98,-13.63 1.28,-1.53 2.8,-3.04 4.67,-4.16 4.31,-2.57 8.85,-4.77 13.01,-7.55 1.84,-1.23 3.6,-2.77 5.36,-4.17 2.68,-2.14 5,-4.6 7.43,-6.97 2.96,-2.89 5.64,-6.03 8.14,-9.36 1.35,-1.8 2.77,-3.63 4.26,-5.38 1.86,-2.17 3.29,-4.73 4.9,-7.12z"/>
     <path class="fil3" d="M298.7 323.36c1.35,3.33 3.25,6.43 5.11,9.44 2.51,4.06 5.24,8.02 8.29,11.75 2.36,2.89 4.94,5.56 7.79,7.88 2.25,1.84 4.88,3.44 7.74,4.28 3.65,1.06 4.82,3.66 4.79,7.06 -0.02,2.8 -0.13,5.61 -0.39,8.4 -0.38,4.02 -0.89,8.03 -1.4,12.03 -0.56,4.4 -1.24,8.8 -1.6,13.23 -0.33,4.08 -1.1,8.14 -1.34,12.22 -0.25,4.21 -1.46,8.26 -1.68,12.48 -0.22,4.15 -1,8.27 -1.35,12.42 -0.33,3.88 -0.91,7.71 -1.57,11.54 -0.7,4.1 -1,8.3 -2.26,12.28 -0.82,2.58 -1.73,5.2 -3.07,7.54 -2.13,3.73 -5.85,3.7 -9.39,0.04 -2.33,-2.41 -4.41,-5.01 -6.39,-7.74 -2.27,-3.12 -4.82,-6.06 -7.42,-8.94 -2.5,-2.77 -4.69,-5.83 -5.98,-9.52 -1.96,-5.64 -1.54,-11.38 -0.58,-16.94 0.74,-4.29 1.38,-8.72 2.92,-12.82 1.76,-4.7 2.59,-9.64 4.31,-14.35 0.91,-2.49 1.08,-5.23 1.81,-7.8 2.18,-7.68 2.55,-15.52 2.41,-23.44 -0.1,-5.83 -1.94,-11.2 -4.4,-16.39 -0.47,-0.99 -1.59,-1.57 -1.78,-2.91 -0.74,0.58 -0.4,1.01 -0.24,1.43 2.03,5.26 3.15,10.66 3.09,16.34 -0.06,5.55 -0.02,11.1 -1.17,16.56 -0.84,3.99 -1.64,8.02 -2.93,11.87 -1.81,5.38 -3.61,10.84 -6.6,15.68 -1.8,2.92 -4.25,5.39 -8.05,6.06 -4.3,0.76 -7.75,-0.69 -11.11,-3.15 -3.24,-2.38 -5.52,-5.61 -7.91,-8.66 -2.42,-3.08 -4.21,-6.6 -5.21,-10.58 -0.96,-3.79 -1.42,-7.53 -1.29,-11.37 0.13,-4.02 1.11,-7.93 1.63,-11.9 0.37,-2.89 0.8,-5.8 1.52,-8.63 1.07,-4.19 1.99,-8.42 2.9,-12.65 0.25,-1.15 0.48,-2.31 0.67,-3.48 0.07,-0.48 0.18,-0.85 0.73,-0.92 1.06,0.15 1.71,-0.64 2.46,-1.14 3.86,-2.56 7.56,-5.4 11.6,-7.66 5.28,-2.96 10.75,-5.61 16.5,-7.6 1.17,-0.4 2.38,-0.78 3.45,-1.39 1.75,-1 3.48,-1.52 5.4,-0.58z"/>
     <path class="fil2" d="M130.26 440.03c-0.12,-5.61 0.08,-11.22 0.39,-16.82 0.56,-9.99 2.24,-19.81 4.2,-29.61 1.08,-5.37 2.65,-10.6 4.22,-15.8 1.42,-4.72 3.05,-9.43 4.89,-14.06 2.36,-5.96 5.07,-11.75 7.76,-17.56 1.17,-2.54 2.68,-4.92 4.02,-7.38 0.43,-0.78 0.98,-1.29 1.92,-1.2 2.68,0.71 4.15,3.2 6.52,4.42 0.91,0.47 1.88,1.1 2.77,1.74 2.97,2.09 5.86,4.33 9,6.12 4.25,2.41 8.21,5.24 12.34,7.82 4.5,2.81 9.11,5.4 13.63,8.15 2.42,1.47 4.99,2.68 7.49,4.01 -2,1.88 -2.94,4.44 -4.09,6.8 -2.93,6.08 -5.42,12.36 -7.28,18.87 -0.56,1.96 -1.31,3.9 -1.82,5.85 -0.57,2.16 -2.11,4.67 0.44,6.73 -4.15,0.02 -8.31,-0.06 -12.52,0.67 1.72,1.19 3.94,1.68 6.56,2.03 1.86,0.25 3.88,-0.11 5.59,1.06 -1.38,0.93 -1.57,2.5 -1.84,3.89 -1.1,5.68 -1.35,11.45 -1.51,17.22 -0.14,5.6 -0.15,11.21 0.32,16.81 -2.75,0.15 -5.32,-0.88 -7.99,-1.25 -2.09,-0.28 -4.17,-0.76 -6.27,-0.79 -3.36,-0.06 -4.77,-1.98 -5.5,-4.91 -0.87,-3.49 -3.19,-6.16 -5.13,-9.09 -2.51,-3.81 -5.66,-7.06 -8.5,-10.57 -1.28,-1.58 -2.82,-2.96 -4.29,-4.34 -1.59,-1.51 -3.14,-3.1 -4.9,-4.47 -3.66,-2.85 -7.36,-5.56 -11.61,-7.45 -0.23,-0.1 -0.47,-0.25 -0.7,-0.25 -0.65,0.02 -1.6,-0.42 -1.87,0.29 -0.28,0.77 0.71,1 1.26,1.36 2.33,1.54 4.37,3.41 6.22,5.47 1.36,1.52 3.3,2.34 4.49,4.08 1.6,2.34 3.82,4.17 5.69,6.29 2.99,3.37 5.63,7.01 8.34,10.57 1.4,1.85 2.38,4.08 3.22,6.27 0.8,2.09 -0.86,3.73 -3.61,3.87 -3.13,0.16 -6.2,-0.42 -9.26,-0.91 -2.45,-0.39 -4.95,-0.65 -7.31,-1.37 -5,-1.52 -10.24,-1.46 -15.3,-2.58z"/>
     <path class="fil2" d="M298.7 323.36c-1.92,-0.93 -3.65,-0.42 -5.4,0.58 -1.07,0.6 -2.28,0.98 -3.45,1.39 -5.76,1.98 -11.23,4.63 -16.5,7.6 -4.03,2.26 -7.73,5.1 -11.6,7.66 -0.75,0.5 -1.4,1.29 -2.46,1.14 0.54,-4.18 1.12,-8.36 1.62,-12.54 0.28,-2.28 0.57,-4.57 0.61,-6.85 0.09,-5.55 0.19,-11.11 -0.02,-16.66 -0.19,-5.26 -0.76,-10.51 -1.32,-15.75 -0.26,-2.41 -0.44,-4.85 -0.94,-7.19 -0.5,-2.34 -0.88,-4.69 -1.44,-7.02 -0.07,-0.35 0.19,-0.97 -0.45,-0.91 -0.38,0.04 -0.26,0.57 -0.27,0.91 0.09,9.29 0.34,18.59 0.45,27.89 0.08,6.41 -0.25,12.79 -0.53,19.18 -0.13,3.15 -0.33,6.39 -1.17,9.4 -1.21,4.3 -1.5,8.82 -3,12.99 -1.25,3.46 -1.75,7.11 -3.03,10.51 -1.52,4.02 -2.89,8.13 -5.4,11.75 -1.38,1.99 -3.74,2.05 -5.28,0.66 -1.86,-1.66 -3.34,-3.63 -4.59,-5.78 -3.08,-5.35 -6.17,-10.69 -9.2,-16.07 -3.09,-5.48 -6.22,-10.95 -8.75,-16.72 -1.11,-2.52 -0.84,-4.87 0.64,-7.41 1.88,-3.24 3.79,-6.48 5.28,-10 2.41,-5.68 4.07,-11.54 5.35,-17.5 1.25,-5.8 2.32,-11.67 2.6,-17.64 0.04,-0.93 0.24,-1.84 0.36,-2.76 1.23,-0.45 1.09,-1.56 1.09,-2.49 0.01,-0.96 0.42,-1.43 1.22,-1.88 4.76,-2.66 9.51,-5.3 14.43,-7.68 6.45,-3.11 12.99,-5.99 19.71,-8.36 5.14,-1.81 10.26,-3.75 15.67,-4.72 0.38,4.63 0.65,9.25 1.41,13.85 0.9,5.46 1.48,10.98 2.01,16.5 0.36,3.76 0.58,7.61 1.61,11.2 1.01,3.57 1.26,7.35 2.59,10.77 1.71,4.37 2.47,9.02 4.48,13.32 1.32,2.81 2.63,5.68 3.67,8.64z"/>
     <path class="fil3" d="M458.87 420.92c2.61,7.21 2.01,14.72 1.8,22.12 -0.22,7.5 -1.52,14.93 -3.06,22.27 -0.97,4.61 -2.16,9.21 -3.74,13.63 -0.91,2.55 -1.85,5.13 -2.87,7.66 -5.27,-0.28 -10.48,-1.13 -15.69,-1.89 -5.98,-0.86 -11.98,-1.53 -18.02,-2.01 -5.39,-0.42 -10.79,-0.61 -16.17,-1.04 -0.18,-1.04 -1.01,-0.74 -1.64,-0.74 -8.72,-0.01 -17.43,0.01 -26.15,0.01 -6.05,0.03 -12.07,-0.28 -18.02,-1.45 -2.16,-0.42 -4.12,-1.17 -5.82,-2.65 -1.55,-1.33 -1.55,-3.84 -0.15,-6.11 2.73,-4.42 6.47,-7.87 10.07,-11.53 3.64,-3.69 7.36,-7.3 10.94,-11.06 3.15,-3.31 6.44,-6.49 9.87,-9.52 2.4,-2.12 5.3,-3.54 8.17,-5.02 4.18,-2.15 8.74,-2.61 13.17,-3.69 5.55,-1.36 11.21,-1.88 16.85,-2.65 2.65,-0.36 5.39,-0.3 7.96,-0.85 6.55,-1.39 13.31,-1.39 19.8,-2.97 4.21,-1.02 8.5,-1.57 12.71,-2.53z"/>
     <path class="fil3" d="M193.27 449.8c-0.47,-5.6 -0.47,-11.21 -0.32,-16.81 0.15,-5.76 0.4,-11.54 1.5,-17.22 0.27,-1.39 0.46,-2.96 1.84,-3.89 8.45,0.51 16.87,1.51 25.36,1.13 5.35,-0.23 10.63,-1.04 15.93,-1.7 2.46,-0.3 4.92,-0.76 7.39,-0.87 1.11,-0.05 1.87,-0.9 3,-0.81 3.87,0.34 7.41,1.14 10.24,4.27 3.62,4 6.59,8.44 9.75,12.78 2.52,3.48 4.74,7.18 7.52,10.47 1.35,1.6 2.3,3.49 3.63,5.14 2.89,3.59 5.28,7.59 8.23,11.12 2.41,2.88 4.78,5.78 7.2,8.65 1.45,1.71 2.17,3.74 3.2,5.63 0.64,1.16 -0.59,1.8 -1.45,2.21 -2.07,1.01 -4.32,0.59 -6.45,0.4 -2.9,-0.26 -5.88,-0.56 -8.62,-1.47 -4.82,-1.6 -9.86,-2.19 -14.65,-3.92 -3.36,-1.21 -7.07,-1.45 -10.53,-2.41 -5.08,-1.4 -10.32,-2.05 -15.38,-3.45 -5.28,-1.45 -10.73,-1.89 -15.99,-3.27 -5.28,-1.39 -10.7,-1.94 -16,-3.13 -4.94,-1.11 -9.9,-2.05 -14.94,-2.58 -0.16,-0.02 -0.31,-0.19 -0.46,-0.29z"/>
     <path class="fil5" d="M149.4 325.61c-1.68,-0.16 -3.09,-1.2 -4.26,-2.11 -1.7,-1.32 -3.63,-2.13 -5.42,-3.24 -4.08,-2.54 -8.16,-5.12 -12.44,-7.28 -3.32,-1.68 -6.68,-3.29 -10.02,-4.94 -3.07,-1.53 -6.42,-2.51 -9.21,-4.62 -0.88,-0.66 -0.53,-1.13 -0.13,-1.87 3.28,-5.94 7.11,-11.52 11.09,-17 4.49,-6.18 9.21,-12.17 14.14,-18.02 3.57,-4.24 7.55,-8.08 11.07,-12.35 1.84,-2.23 4.11,-4.09 6.21,-6.1 0.86,-0.83 1.77,-0.29 2.61,0.06 2.45,1.01 4.39,2.77 6.4,4.43 4.91,4.05 9.59,8.36 13.65,13.28 2.46,2.99 4.89,6.02 7.08,9.23 1.54,2.26 3.27,4.36 4.12,7.01 -0.24,-0.02 -0.63,0.06 -0.72,-0.07 -1.18,-1.63 -2.2,-0.43 -2.97,0.31 -1.97,1.9 -3.77,3.99 -5.69,5.94 -3,3.05 -5.96,6.11 -8.56,9.54 -1.18,1.57 -2.39,3.18 -3.74,4.63 -3.02,3.24 -5.26,7.06 -7.96,10.54 -2.09,2.68 -3.88,5.6 -5.7,8.48 -0.61,0.97 -1.97,2.18 0.16,3.12 0.38,0.17 0.29,0.65 0.3,1.03z"/>
     <path class="fil3" d="M229.69 524.39c-0.89,-2.32 -2.85,-3.88 -4.23,-5.85 -3.96,-5.63 -7.78,-11.33 -11.06,-17.4 -2.78,-5.15 -5.03,-10.53 -7.37,-15.86 -1.43,-3.27 -2.15,-6.85 -3.32,-10.24 -0.34,-0.99 0.08,-1.82 0.09,-2.72 2.37,-1.41 4.87,-2.65 7.1,-4.25 6.36,-4.55 13.15,-6.77 21.03,-5 4.6,1.04 9.05,2.41 13.49,3.95 4.44,1.54 9.06,2.57 13.49,4.14 4.03,1.44 8.24,2.16 12.31,3.38 6.52,1.95 12.98,4.05 19.45,6.11 1.14,0.36 2.55,1.03 2.53,2.14 -0.02,1.14 -1.23,1.95 -2.53,2.39 -4.53,1.53 -8.83,3.64 -13.2,5.55 -2.72,1.19 -5.52,2.36 -8.06,4.1 -2.21,1.51 -4.67,2.69 -6.92,4.21 -2.76,1.87 -5.48,3.79 -8.11,5.83 -5,3.88 -9.88,7.91 -14.71,12 -2.18,1.84 -4.35,3.85 -6.97,5.16 -1.17,0.58 -1.59,2.11 -3.01,2.37z"/>
     <path class="fil2" d="M149.4 325.61c-0.01,-0.37 0.07,-0.86 -0.3,-1.03 -2.13,-0.94 -0.77,-2.15 -0.16,-3.12 1.83,-2.88 3.62,-5.79 5.7,-8.48 2.71,-3.48 4.94,-7.3 7.96,-10.54 1.36,-1.45 2.56,-3.06 3.74,-4.63 2.6,-3.43 5.56,-6.49 8.56,-9.54 1.92,-1.95 3.72,-4.04 5.69,-5.94 0.77,-0.74 1.79,-1.94 2.97,-0.31 0.09,0.13 0.48,0.05 0.72,0.07 1.22,0.35 1.29,1.54 1.79,2.43 1.95,3.46 4.13,6.82 5.87,10.38 2.6,5.34 5.52,10.51 7.94,15.95 2.22,5.02 4.71,9.94 6.98,14.94 2.82,6.2 5.89,12.28 9.33,18.15 1.27,2.18 2.05,4.51 2.97,6.8 1.05,2.63 2.11,5.22 2.55,8.07 0.67,4.27 -1.56,6.4 -5.77,5.58 -3.56,-0.69 -6.65,-2.35 -9.74,-4.05 -4.38,-2.41 -8.8,-4.79 -13.02,-7.45 -4.53,-2.86 -9.22,-5.45 -13.82,-8.17 -2.64,-1.56 -5.36,-3.07 -7.94,-4.71 -2.54,-1.61 -5.18,-3.07 -7.62,-4.88 -2.62,-1.93 -5.49,-3.53 -8.25,-5.29 -1.62,-1.03 -3.22,-2.09 -4.94,-2.95 -0.51,-0.25 -1.19,-0.52 -1.23,-1.29z"/>
     <path class="fil2" d="M286.29 253.59c7.4,-1.49 14.69,-3.52 22.26,-4.24 3.05,-0.29 6.19,-0.29 9.21,-1.23 0.87,-0.27 2.04,0.04 3.06,-0.16 1.95,5.15 4.64,9.95 6.85,14.96 2.34,5.33 5.23,10.37 7.85,15.55 1.4,2.77 2.75,5.64 4.41,8.33 1.13,1.84 1.45,4.19 1.56,6.45 0.13,2.68 -0.24,5.34 -0.44,8 -1.96,0.34 -3.93,-0.06 -5.89,0.01 -6.24,0.21 -12.47,0.27 -18.68,1.37 -6.69,1.19 -13.49,1.73 -20,3.86 -2.4,-6.13 -3.54,-12.57 -4.97,-18.96 -1.43,-6.34 -1.77,-12.83 -3.03,-19.16 -0.98,-4.91 -1.7,-9.82 -2.17,-14.78z"/>
     <path class="fil2" d="M519.65 373.63c-4.62,1.59 -9.44,2.41 -14.14,3.69 -4.35,1.19 -8.8,1.93 -13.2,2.86 -7.02,1.49 -14.08,2.59 -21.23,3.3 -6.17,0.61 -12.31,1.24 -18.52,1.05 -1.74,-0.05 -3.26,-0.77 -4.67,-1.55 -1.47,-0.8 -1.24,-2.3 -0.67,-3.65 1.15,-2.71 3.31,-4.65 5.37,-6.6 2.99,-2.86 6.11,-5.6 9.3,-8.23 1.77,-1.46 3.42,-3.07 5.24,-4.45 3.07,-2.32 5.84,-5 8.71,-7.53 2.75,-2.42 5.42,-5.05 8.24,-7.36 3.58,-2.93 6.92,-6.16 10.64,-8.95 1.57,-1.18 3.11,-2.55 4.66,-3.84 1.76,-0.16 2.53,1.06 3.24,2.34 2.8,5.11 5.85,10.08 8.35,15.38 2.15,4.54 4.28,9.07 6,13.79 0.24,0.65 0.64,1.21 0.88,1.83 0.99,2.55 2.71,4.95 1.81,7.93z"/>
     <path class="fil7" d="M519.65 373.63c0.89,-2.98 -0.82,-5.39 -1.81,-7.93 -0.24,-0.62 -0.64,-1.18 -0.88,-1.83 -1.72,-4.72 -3.85,-9.25 -6,-13.79 -2.5,-5.3 -5.55,-10.27 -8.35,-15.38 -0.7,-1.28 -1.48,-2.5 -3.24,-2.34 1.59,-1.79 3.57,-3.13 5.4,-4.64 1.71,-1.41 3.39,-2.85 5.14,-4.23 2.55,-2 5.09,-4.03 7.53,-6.16 1.79,-1.57 3.86,-2.77 5.55,-4.49 1.05,-1.08 2.51,-1.75 3.79,-2.6 0.33,0.46 0.84,0.5 1.11,0.11 1.12,-1.59 1.88,-0.6 2.51,0.37 1.62,2.5 3.22,5.01 4.69,7.6 2.68,4.7 5.48,9.35 7.81,14.22 3.16,6.61 6.3,13.23 8.82,20.14 1.3,3.56 2.52,7.15 3.77,10.73 0.45,1.28 0.78,2.17 -0.72,2.8 -0.15,0.06 -0.17,0.44 -0.24,0.68 -3.65,0.14 -7.21,0.66 -10.76,1.58 -4.07,1.07 -8.3,1.56 -12.39,2.57 -3.23,0.79 -6.45,1.62 -9.7,2.38 -0.68,0.16 -1.35,0.21 -2.03,0.23z"/>
     <path class="fil5" d="M357.59 218.69c0.13,-5.09 1.32,-10 2.42,-14.93 0.09,-0.42 0.14,-0.86 0.23,-1.28 0.5,-2.45 1.49,-3.32 3.95,-3.68 4.09,-0.6 7.09,-3.07 10.25,-5.56 3.22,-2.54 5.72,-5.67 8.32,-8.69 1.38,-1.61 3.43,-2.19 4.65,-3.9 0.36,-0.5 1.29,-0.26 1.96,-0.07 7.6,2.04 15.23,4.01 22.8,6.16 3.28,0.93 6.47,2.21 9.7,3.31 3.12,1.07 3.47,1.91 1.74,4.81 -2.14,3.59 -4.68,6.92 -7.12,10.31 -1.25,1.74 -2.54,3.47 -3.8,5.21 -1.87,2.59 -3.82,5.14 -5.75,7.69 -2.08,2.73 -4.4,5.27 -6.41,8.05 -0.64,0.89 -1.59,1.56 -2.4,2.34 0.06,-0.88 -0.34,-1.28 -1.19,-1.6 -5.17,-1.96 -10.62,-2.9 -15.93,-4.36 -5.01,-1.37 -10.24,-1.75 -15.34,-2.71 -2.68,-0.51 -5.33,-1.1 -8.07,-1.09z"/>
     <path class="fil2" d="M145.67 491.43c-1.98,-0.63 -1.84,-2.54 -2.2,-3.99 -1.59,-6.36 -3.27,-12.72 -3.96,-19.26 -0.46,-4.37 -1.61,-8.64 -1.79,-13.05 -0.07,-1.73 -0.29,-3.46 -0.35,-5.2 -0.03,-1.15 0.16,-2.19 0.79,-3.15 4.6,0.63 9.3,0.89 13.8,1.98 5.68,1.37 11.52,1.61 17.13,3 2.85,0.71 5.76,1.12 8.6,1.95 2.55,0.75 5.4,0.63 8.04,1.3 4.93,1.25 10,1.81 14.92,3.1 1.76,0.46 3.4,1.46 4.99,2.4 1.25,0.74 1.38,2.38 0.5,3.6 -1.99,2.74 -4.93,4.31 -7.75,5.93 -3.26,1.87 -6.59,3.62 -9.94,5.32 -3.42,1.74 -6.61,3.85 -10,5.63 -4.61,2.43 -9.21,4.72 -14.19,6.37 -4.92,1.63 -10.02,2.16 -15.02,3.25 -1.18,0.26 -2.21,1.23 -3.53,0.82z"/>
     <path class="fil2" d="M389.52 245.35c4.28,-0.1 8.06,1.81 12,3.03 4.75,1.47 9.17,3.78 13.81,5.53 1.48,0.56 3.05,1.03 3.78,2.67 -4.61,5.07 -8.5,10.71 -12.59,16.19 -1.61,2.16 -3.05,4.46 -4.64,6.63 -2.27,3.03 -4.33,6 -6.49,8.88 -1.99,2.62 -3.74,5.49 -6.25,7.71 -0.56,-0.39 -0.73,-1.17 -1.43,-1.43 -5.4,-2.06 -10.92,-3.73 -16.47,-5.31 -4.47,-1.28 -9.12,-1.76 -13.66,-2.72 -2.37,-0.51 -4.64,-1.14 -7.08,-0.67 1.28,-4.13 3.47,-7.68 6.2,-11.04 3.91,-4.82 8.44,-8.93 13.12,-12.96 3.53,-3.05 7.14,-6 10.81,-8.87 2.96,-2.31 5.53,-5.08 8.69,-7.13 0.13,-0.08 0.14,-0.33 0.21,-0.51z"/>
     <path class="fil5" d="M312.21 202.19c-0.66,-0.96 -0.55,-2.13 -0.88,-3.18 -1.76,-5.56 -2.18,-11.41 -3.71,-16.99 -1.04,-3.79 -1.65,-7.6 -1.99,-11.47 -0.1,-1.17 -0.2,-2.42 1.73,-2.57 2.97,-0.24 5.93,-0.5 8.9,-0.72 9.23,-0.65 18.46,-0.29 27.69,-0.29 4.47,-0 8.93,0.4 13.39,0.76 2.44,0.19 3.17,1.5 3,3.97 -0.33,4.89 -2.02,9.52 -2.58,14.36 -0.32,2.83 -0.65,5.69 -1.36,8.43 -0.57,2.18 -0.71,4.44 -1.44,6.57 -3.77,-0.87 -7.64,-0.93 -11.45,-1.04 -9.08,-0.25 -18.18,-0.27 -27.25,0.35 -1.42,0.1 -3.41,-0.33 -4.05,1.81z"/>
     <path class="fil3" d="M468.61 389.8c-0.02,0.25 0.04,0.67 -0.07,0.72 -2.34,1.11 -0.91,2.8 -0.62,4.25 0.72,3.73 2.48,7.16 3.07,10.93 0.44,2.79 1.49,5.54 0.64,8.43 -5.54,0.75 -11.13,1.2 -16.59,2.31 -5.84,1.2 -11.76,1.54 -17.61,2.48 -1.22,0.2 -2.49,0.13 -3.72,0.29 -7.51,1 -15.05,1.56 -22.64,1.28 -1.45,-0.05 -2.63,-0.77 -3.66,-1.63 -1.05,-0.87 -0.57,-1.91 0.06,-2.83 2.07,-3.05 4.7,-5.56 7.39,-8.08 3.29,-3.09 6.79,-5.9 10.39,-8.56 2.54,-1.88 5.42,-3.31 8.43,-4.56 5.99,-2.46 12.27,-2.72 18.5,-3.73 5.48,-0.89 10.97,-0.81 16.44,-1.32z"/>
     <path class="fil8" d="M296.48 306.49c6.5,-2.13 13.31,-2.66 20,-3.86 6.22,-1.11 12.44,-1.16 18.68,-1.38 1.95,-0.07 3.92,0.34 5.89,-0.01 -0.37,3.12 -0.73,6.24 -1.1,9.35 -1.17,0.27 -0.58,1.22 -0.73,1.88 -0.71,4.64 -1.1,9.34 -2.29,13.89 -0.89,3.39 -1.27,6.99 -2.89,10.1 -1.3,2.5 -2.33,5.41 -5.24,6.74 -2.9,1.32 -5.4,0.64 -8.02,-1.02 -4.67,-2.95 -8.04,-7.15 -11.33,-11.38 -2.91,-3.73 -5.52,-7.69 -7.67,-11.97 -1.26,-2.49 -2.45,-4.97 -3.42,-7.57 -0.22,-0.6 -0.42,-1.15 -0.41,-1.78 0,-0.5 -0.25,-0.74 -0.74,-0.77 -0.32,-0.72 -0.83,-1.37 -0.73,-2.23z"/>
     <path class="fil8" d="M196.67 408.12c-2.55,-2.06 -1.01,-4.58 -0.44,-6.73 0.51,-1.95 1.26,-3.88 1.82,-5.84 1.86,-6.51 4.35,-12.79 7.29,-18.88 1.14,-2.37 2.09,-4.92 4.08,-6.81 3.65,1.12 6.87,3.21 10.37,4.67 3.61,1.51 6.99,3.52 10.27,5.61 3.31,2.11 6.32,4.63 8.88,7.74 2.25,2.74 2.88,5.86 3.08,9.14 0.15,2.5 -0.95,4.26 -3.23,5.78 -3.46,2.33 -7.34,2.86 -11.18,3.79 -7.67,1.88 -15.49,1.91 -23.3,1.83 -2.54,-0.03 -5.1,-0.32 -7.65,-0.31z"/>
     <path class="fil8" d="M350.49 285.86c2.43,-0.47 4.7,0.16 7.08,0.66 4.54,0.97 9.18,1.45 13.65,2.72 5.55,1.58 11.08,3.25 16.47,5.31 0.7,0.26 0.87,1.03 1.43,1.43 -0.04,0.3 -0.12,0.57 -0.42,0.73 -0.49,0.02 -0.73,0.28 -0.74,0.76 -2.95,4.32 -6.61,7.99 -10.27,11.67 -1.11,1.12 -2.08,2.41 -3.16,3.59 -4.62,5.08 -10.04,9.11 -15.68,12.94 -2.51,1.71 -5.07,3.27 -7.83,4.47 -1.39,0.6 -2.93,1.1 -4.46,0.12 -1.93,-1.24 -2.05,-3.29 -2.02,-5.14 0.05,-3.97 0.44,-7.94 0.76,-11.91 0.14,-1.73 0.38,-3.46 0.66,-5.16 0.82,-5.05 1.19,-10.16 2.32,-15.16 0.25,-1.09 0.47,-2.18 0.71,-3.27 0.47,-0.03 0.71,-0.28 0.72,-0.76 0.26,-1 0.51,-1.99 0.77,-2.99z"/>
     <path class="fil4" d="M357.59 218.69c2.75,-0.01 5.39,0.58 8.07,1.09 5.1,0.96 10.32,1.33 15.34,2.71 5.3,1.46 10.76,2.4 15.93,4.36 0.84,0.32 1.25,0.72 1.19,1.6 -0.71,1.64 -2.11,2.76 -3.3,3.97 -2.91,2.96 -6.12,5.62 -9.02,8.58 -3.08,3.14 -6.57,5.81 -9.93,8.59 -3.39,2.8 -7.01,5.38 -10.55,8.01 -2.23,1.66 -4.63,2.91 -7.04,4.08 -3.13,1.53 -4.72,0.33 -5.1,-3.33 -0.51,-4.96 0.2,-9.93 0.84,-14.87 0.48,-3.75 0.78,-7.53 1.37,-11.26 0.54,-3.36 1.18,-6.7 1.68,-10.07 0.17,-1.15 -0.15,-2.4 0.53,-3.47z"/>
     <path class="fil4" d="M312.21 202.19c0.65,-2.14 2.63,-1.71 4.05,-1.81 9.07,-0.63 18.17,-0.61 27.25,-0.35 3.81,0.11 7.68,0.17 11.45,1.04 -0.56,4.11 -0.93,8.25 -1.71,12.32 -1.02,5.33 -1.88,10.66 -2.43,16.06 -0.06,0.68 -0.25,1.34 -0.38,2.01 -1.54,-2.33 -3.94,-1.85 -6.18,-1.88 -0.56,-0.01 -1.12,-0.03 -1.68,-0.07 -6.4,-0.5 -12.8,-0.53 -19.2,0.03 -0.91,0.08 -2.05,-0.39 -2.69,0.34 -0.66,0.76 0.39,1.75 0.15,2.69 -0.69,-0.03 -0.67,-0.57 -0.8,-1.05 -1.76,-6.38 -4.08,-12.58 -5.46,-19.09 -0.72,-3.41 -1.98,-6.73 -2.37,-10.24z"/>
     <path class="fil5" d="M195.14 214.31c0.15,3.31 -0.03,6.36 -0.48,9.25 -1.14,7.44 -1.39,15.05 -3.36,22.32 -1.14,4.24 -1.87,8.7 -4.25,12.56 -0.8,1.31 -1.74,2.79 -3.4,2.5 -1.58,-0.27 -2.88,-1.24 -4,-2.73 -2.07,-2.77 -3.16,-6 -4.84,-8.94 -1.13,-1.96 -1.48,-4.36 -2.51,-6.39 -1.72,-3.37 -2.55,-7.08 -4.29,-10.46 -0.87,-1.71 -0.02,-3.93 -0.47,-5.9 -0.08,-0.32 0.59,-0.91 1.03,-1.23 4.23,-3.15 8.41,-6.38 12.76,-9.35 3.74,-2.56 7.7,-4.78 11.53,-7.22 0.95,-0.6 0.85,-0.2 1.26,0.57 0.92,1.72 1.28,3.44 1.03,5.02z"/>
     <path class="fil2" d="M195.92 289.59c2.08,-2.43 4.58,-4.4 6.99,-6.49 3.62,-3.14 7.5,-5.92 11.27,-8.85 3.29,-2.56 6.85,-4.72 10.28,-7.05 0.85,-0.58 1.26,-0.41 1.42,0.51 0.23,1.28 0.55,2.55 0.41,3.87 -0.21,5.16 -1,10.25 -2.08,15.26 -1.38,6.34 -3.02,12.62 -5.01,18.81 -1.14,3.53 -2.09,7.08 -3.98,10.32 -1.34,2.28 -3.92,2.49 -5.42,0.17 -1.63,-2.53 -3.38,-4.99 -4.71,-7.73 -2.66,-5.51 -5.55,-10.91 -8.31,-16.38 -0.39,-0.77 -0.58,-1.64 -0.87,-2.45z"/>
     <path class="fil4" d="M508.41 278.73c0.06,0 0.14,0.02 0.18,-0.01 2.98,-1.9 4.21,0.58 5.7,2.31 4.36,5 8.38,10.27 12.42,15.52 1.35,1.75 2.75,3.67 1.93,6.17 -0.66,0.73 -1.4,1.3 -2.28,1.81 -5.08,2.96 -9.9,6.37 -15.22,8.9 -3,1.42 -6.15,2.41 -9.52,2.41 -3.08,-0.01 -5.05,-1.9 -5.24,-4.87 -0.25,-3.83 0.07,-7.65 1.39,-11.23 1.3,-3.51 2.58,-7.03 4.23,-10.43 1.46,-3.02 3.57,-5.65 4.84,-8.76 0.29,-0.7 1.03,-1.22 1.56,-1.82z"/>
     <path class="fil2" d="M320.83 232.57c0.25,-0.93 -0.81,-1.93 -0.15,-2.69 0.64,-0.74 1.78,-0.25 2.7,-0.34 6.4,-0.57 12.8,-0.54 19.2,-0.03 0.56,0.04 1.12,0.06 1.68,0.07 2.24,0.03 4.63,-0.44 6.18,1.89 -0.97,4.61 -2.18,9.19 -2.85,13.84 -0.65,4.48 -2.25,8.6 -3.84,12.75 -0.81,2.13 -3.24,3.81 -5.01,3.81 -1.17,0.01 -2.06,-0.65 -2.78,-1.31 -1.88,-1.71 -3.46,-3.66 -4.9,-5.82 -1.72,-2.58 -2.75,-5.51 -4.57,-8.02 -0.75,-1.03 -1.01,-2.4 -1.52,-3.6 -1.49,-3.47 -3.21,-6.84 -4.13,-10.54z"/>
     <path class="fil5" d="M362.85 181.23c-0.31,-3.62 0.7,-7.63 1.19,-11.7 0.2,-1.62 1.82,-2.49 2.2,-4.03 0.09,-0.35 0.44,-0.32 0.78,-0.23 5.52,1.49 11.28,1.47 16.83,2.73 1.18,0.27 1.48,0.51 1.28,1.82 -0.43,2.8 -2.03,4.74 -3.83,6.74 -1.14,1.27 -2.17,2.67 -3.27,3.99 -2.31,2.76 -4.95,5.18 -7.63,7.57 -0.37,0.33 -0.75,0.67 -1.19,0.88 -4.26,2.05 -6.34,0.72 -6.36,-4.08 -0,-1.06 0,-2.12 0,-3.7z"/>
     <path class="fil2" d="M373.32 480.94c8.72,-0.01 17.43,-0.02 26.15,-0.01 0.62,0 1.45,-0.3 1.63,0.74 -8.64,0 -17.29,0 -25.93,-0.03 -0.66,0 -1.57,0.39 -1.86,-0.7z"/>
     <path class="fil2" d="M339.22 312.48c0.14,-0.67 -0.45,-1.62 0.73,-1.89 -0.12,0.68 0.46,1.62 -0.73,1.89z"/>
     <path class="fil5" d="M109.63 438.14c0.05,-0.52 0.33,-0.75 0.85,-0.72 0.45,0.03 0.61,0.32 0.66,0.72 -0.5,-0 -1.01,-0 -1.51,-0z"/>
     <path class="fil5" d="M257.08 275.73c0.01,-0.34 -0.11,-0.87 0.26,-0.91 0.65,-0.06 0.38,0.55 0.45,0.91 -0.24,0 -0.48,0.01 -0.72,0.01z"/>
     <path class="fil2" d="M387.98 297.47c0,-0.49 0.25,-0.74 0.73,-0.76 0.02,0.5 -0.23,0.75 -0.73,0.76z"/>
     <path class="fil2" d="M297.21 308.72c0.49,0.03 0.74,0.27 0.74,0.76 -0.49,-0.02 -0.75,-0.26 -0.74,-0.76z"/>
     <path class="fil2" d="M349.72 288.85c-0.01,0.48 -0.25,0.73 -0.72,0.76 -0.03,-0.51 0.23,-0.75 0.72,-0.76z"/>
    </g>
   </g>
  </g>
  <polygon class="fil9 str0" points="1.71,1.71 658.96,1.71 658.96,658.96 1.71,658.96 "/>
 </g>
</svg>
