<?xml version="1.0" encoding="UTF-8"?>
<!DOCTYPE svg PUBLIC "-//W3C//DTD SVG 1.1//EN" "http://www.w3.org/Graphics/SVG/1.1/DTD/svg11.dtd">
<!-- Creator: CorelDRAW 2018 (64-Bit) -->
<svg xmlns="http://www.w3.org/2000/svg" xml:space="preserve" width="4in" height="4in" version="1.1" style="shape-rendering:geometricPrecision; text-rendering:geometricPrecision; image-rendering:optimizeQuality; fill-rule:evenodd; clip-rule:evenodd"
viewBox="0 0 702.06 702.06"
 xmlns:xlink="http://www.w3.org/1999/xlink">
 <defs>
  <style type="text/css">
   <![CDATA[
    .str0 {stroke:#4F5F10;stroke-width:0.53;stroke-linecap:round;stroke-linejoin:round;stroke-miterlimit:4}
    .str1 {stroke:#687F1F;stroke-width:0.53;stroke-linecap:round;stroke-linejoin:round;stroke-miterlimit:4}
    .str2 {stroke:#A2B918;stroke-width:0.53;stroke-linecap:round;stroke-linejoin:round;stroke-miterlimit:4}
    .str3 {stroke:#AD833B;stroke-width:0.53;stroke-linecap:round;stroke-linejoin:round;stroke-miterlimit:4}
    .fil15 {fill:none}
    .fil9 {fill:none;fill-rule:nonzero}
    .fil0 {fill:#341E26;fill-rule:nonzero}
    .fil1 {fill:#3C1D2B;fill-rule:nonzero}
    .fil4 {fill:#462433;fill-rule:nonzero}
    .fil2 {fill:#4F2F3C;fill-rule:nonzero}
    .fil10 {fill:#4F5F10;fill-rule:nonzero}
    .fil5 {fill:#5B3946;fill-rule:nonzero}
    .fil12 {fill:#687F1F;fill-rule:nonzero}
    .fil13 {fill:#88A609;fill-rule:nonzero}
    .fil6 {fill:#906C7E;fill-rule:nonzero}
    .fil11 {fill:#A2B918;fill-rule:nonzero}
    .fil14 {fill:#AD833B;fill-rule:nonzero}
    .fil3 {fill:#D8B665;fill-rule:nonzero}
    .fil7 {fill:#E0C863;fill-rule:nonzero}
    .fil8 {fill:#F3E092;fill-rule:nonzero}
   ]]>
  </style>
 </defs>
 <g id="Layer_x0020_1">
  <metadata id="CorelCorpID_0Corel-Layer"/>
  <g id="_2257827393776">
   <g>
    <path class="fil0" d="M317.54 129.32c2.03,-0.17 4.63,0.64 4.55,3.23 -0.13,4.21 -3.88,4.15 -6.53,4.86 -2.2,-0.06 -4.58,0.1 -4.45,-2.53 0.21,-3.76 3.16,-5.28 6.43,-5.55zm101.11 6.84c0.32,-1.12 1.64,-1.28 2.61,-0.98 3.4,1.09 1.23,3.13 0.72,4.88 1.12,0.15 2.53,-0.38 3.09,1.09 0.09,0.23 -0.55,1.07 -0.94,1.13 -1.66,0.27 -1.96,-0.96 -2.15,-2.22 -2.29,-0.32 -4.1,-1.14 -3.32,-3.9zm16.14 7.82c1.96,0.12 2.3,1.48 2.23,4.18 -0.02,0.47 -0.27,1.99 -2.38,1.66 -1.69,-0.27 -2.4,-1.56 -2.47,-3.17 -0.07,-1.76 0.72,-2.79 2.61,-2.67zm15.73 9.45c0.05,-0.07 0.1,-0.12 0.16,-0.15 0.25,-0.1 0.67,0.25 1.02,0.4 -0.15,0.34 -0.22,0.89 -0.48,0.99 -0.06,0.02 -0.13,0.02 -0.22,0 -0.24,-0.06 -0.54,-0.28 -0.81,-0.4 0,0 0,0 0,0l0 0c0.12,-0.26 0.19,-0.63 0.32,-0.84zm31.73 352.8c0.06,-0.02 0.14,-0.02 0.22,0 0.01,0 0.02,0.01 0.04,0.01 0.23,0.08 0.52,0.28 0.77,0.38l0 0 0 0c-0.16,0.35 -0.24,0.89 -0.49,0.99 -0.25,0.1 -0.67,-0.25 -1.02,-0.4 0.15,-0.35 0.23,-0.89 0.48,-0.99zm65.61 -78.95c20.21,-38.2 30.53,-78.89 27.8,-122.4 -0.22,-3.4 0.52,-7.13 -2.27,-9.99 -0.04,9.2 -0.28,18.41 -0.06,27.61 0.55,23.57 -5.21,45.82 -12.82,67.9 -2.1,6.1 -5.15,11.79 -6.89,18.04 -0.91,3.27 -3.64,6.04 -5.55,9.03 -2.79,8.04 -6.21,15.94 -11.18,22.68 -2.19,2.97 -4.09,7.87 -9.84,7.94 -3.69,0.04 -3.17,3.78 -2.54,6.48 0.96,4.06 1.04,7.47 -4.18,8.51 -3.24,0.65 -1.02,4.23 -3.26,6.1 -4.4,3.68 -9.36,6.91 -12.12,12.45 -1.27,2.54 -5.44,3.05 -7.52,3.25 -5.32,0.52 -3.2,3.43 -3.4,5.87 2.48,0.36 1.77,-2.16 3.24,-2.93 0.88,4.04 2.4,7.72 -4.67,5.7 -3.82,-1.09 -6.11,1.96 -6.26,5.86 -0.11,3.01 0.19,4.94 -4.39,4.23 -3.92,-0.61 -9.26,-0.11 -8.33,6.72 0.18,1.33 -0.43,2.55 -1.59,3.23 -5.4,3.13 -7.55,10.41 -14.91,11.24 -3.46,0.39 -3.51,5.05 -6.84,6.67 -10.79,5.28 -21.37,10.73 -32.88,14.57 -9.7,3.24 -19.58,3.68 -29.42,4.95 -6.56,0.85 -6.75,0.12 -4.06,-5.68 0.43,-0.93 0.89,-1.85 1.35,-2.77 0.46,-0.93 0.93,-1.84 1.39,-2.77 -0.19,-1.19 -0.21,-2.35 -0.09,-3.49 0.05,-0.57 0.13,-1.14 0.25,-1.7 0.21,-1.12 0.53,-2.22 0.88,-3.31 0.53,-1.63 1.14,-3.23 1.67,-4.8 4.29,-12.94 3.77,-26.52 6.18,-39.69 0.5,-12.95 0.05,-25.9 -0.51,-38.83 -0.23,-5.18 -0.46,-10.35 -0.67,-15.52 -0.1,-2.59 -0.19,-5.18 -0.27,-7.76 -0.54,-18.22 -8.52,-33.75 -20.92,-46.65 -0.3,-0.31 -0.52,-0.61 -0.68,-0.91 -0.16,-0.29 -0.26,-0.58 -0.32,-0.86 -0.06,-0.28 -0.08,-0.55 -0.07,-0.81 0.01,-0.25 0.03,-0.49 0.05,-0.72 0.01,-0.03 0.01,-0.06 0.01,-0.09 0.03,-0.22 0.06,-0.43 0.08,-0.63 0,-0.02 0,-0.04 0,-0.06 0.06,-0.69 -0.02,-1.3 -0.73,-1.84 -2.48,1.86 -4.27,1.57 -6.17,0.6 -1.14,-0.59 -2.32,-1.42 -3.71,-2.19 -7.32,-4.01 -15.82,-5.94 -23.93,-8.44 -5.49,-1.69 -11.5,-0.57 -16.59,-5.3 -1.79,-1.67 -7.78,0.12 -11.81,-1.03 -0.74,-0.21 -1.53,-0.22 -2.22,-0.47 -0.28,-0.11 -0.54,-0.25 -0.78,-0.47 -0.12,-0.11 -0.23,-0.23 -0.33,-0.38 -0.91,-0.08 -1.68,-0.37 -2.38,-0.78 -0.26,-0.15 -0.52,-0.32 -0.77,-0.49 -1.99,-1.48 -3.64,-3.83 -7.17,-4.92 4.75,-0.67 6.06,-2.89 6.3,-5.31 0.94,-9.2 5.73,-17.1 8.33,-25.73 2.74,-9.08 6.08,-17.96 9.33,-26.88 3.01,-8.27 6.8,-15.93 11.69,-23.17 14.47,-21.39 32.49,-39.86 48.85,-59.69 5.83,-7.06 13.56,-12.52 17.7,-21.03 0.67,-1.37 1.37,-4.21 4.58,-1.88 2.22,1.61 4.9,-0.88 6.81,-1.99 3.32,-1.92 6.61,-2.31 10.19,-2.14 4.07,-0.98 7.9,-0.64 11.99,0.68 5.21,1.7 10.69,0.59 15.84,-0.99 0.38,-0.12 0.77,-0.23 1.16,-0.32 2.67,-0.66 5.3,-0.72 8.02,-0.34 0.93,-0.14 1.87,-0.3 2.81,-0.44 0.17,-0.03 0.34,-0.06 0.51,-0.08 0.01,-0.77 0.01,-1.54 0.02,-2.3 -2.59,0.22 -5.01,-0.29 -7.18,-1.77 -9.32,-6.35 -19.63,-9.12 -30.84,-8.29 -5.81,0.43 -9.98,-1.62 -11.56,-7.32 -2.06,-7.41 -9.32,-11.14 -12.19,-17.91 -1.69,0 -3.37,0.02 -5.05,0.02 -0.45,0.83 -0.67,1.52 -0.71,2.1 -0.07,0.96 0.35,1.63 0.99,2.14 0.25,0.21 0.55,0.38 0.86,0.54 0.31,0.16 0.64,0.31 0.97,0.45 0.66,0.28 1.32,0.53 1.86,0.82 3.17,1.73 5.59,2.86 0.96,5.76 -1.93,1.21 -1.28,3.5 -1.09,5.25 1.55,13.76 -6.44,23.01 -14.57,32.54 -13.96,16.37 -31.48,29.48 -43.67,47.35 -4.89,7.17 -10.33,14.2 -13.01,22.7 -1.28,4.07 -4.38,7.01 -6.24,10.79 -9.07,18.5 -16.83,37.58 -25.29,56.35 -0.35,0.76 -0.56,1.57 -0.84,2.36 -2.9,8.07 -2.9,8.09 -9.98,3.45 -4.87,-3.19 -9.56,-6.67 -15.54,-7.7 -0.4,-0.07 -0.8,-0.18 -1.18,-0.34 -1.14,-0.48 -2.04,-1.39 -2.13,-2.95 -1.25,-0.47 -2.54,1.42 -3.78,-0.07 -5.34,-0.06 -10.46,-1.01 -15.12,-3.79 -1.98,-0.1 -3.97,-0.27 -5.94,-0.46 -5.94,-0.56 -11.86,-1.3 -17.85,-0.91 -9.58,-1.28 -18.81,0.32 -28.2,2.59 -4.27,1.03 -8.56,2.21 -12.94,3.3 2.69,-5.02 6.84,-6.55 10.28,-8.57 7.11,-4.17 5.77,-12.18 9.03,-18.06 3.03,-5.45 4.77,-11.61 9.99,-15.6 2.54,-1.95 1.57,-4.64 1.51,-7 -0.07,-3.38 1.39,-5.6 4.56,-5.53 16.77,0.35 23.25,-12.71 31.08,-23.8 1.65,-2.33 2.44,-4.61 5.89,-4.16 4.52,0.59 5.27,-4.22 8.12,-6.08 1.08,-0.7 2.06,-1.4 3.39,-1.44 8.64,-10.66 7.91,-28.22 23.25,-33.58 6.98,-2.43 13.27,-6.77 20.59,-7.81 4.23,-0.6 5.98,-2.62 6.51,-6.25 0.56,-3.84 2.48,-6.1 6.37,-6.6 1.79,-7.34 8.86,-9.44 13.72,-13.71 1.55,-1.36 3.61,-2.15 5.18,-3.49 1.51,-1.29 3.84,-2.38 3.29,-4.9 -0.54,-2.49 -2.54,-3.76 -4.97,-4.21 -2.16,-0.4 -5.19,0.34 -5.52,-2.82 -0.33,-3.28 3.24,-2.58 4.99,-3.7 1.05,-0.68 1.94,-1.45 2.66,-2.26 3.11,-3.53 2.97,-7.99 -0.95,-10.58 -2.47,-0.08 -5.75,0.33 -7.64,-0.84 -0.28,-0.17 -0.53,-0.36 -0.74,-0.6 -0.38,-0.44 -0.64,-1.01 -0.73,-1.75 -0.55,-4.16 3.31,-7.73 7.83,-8.5 5.69,-0.97 11.9,-4.49 16.81,1.95 3.03,-3.32 6.78,-4.63 11.21,-4.08 2.51,0.32 4.62,-0.25 7.1,-1.22 6.36,-2.49 12.63,0.74 18.88,1.96 3.03,0.59 5.96,1.98 8.8,3.31 0.44,0.2 0.69,0.39 0.81,0.56 0.08,0.12 0.1,0.23 0.08,0.33 -0.01,0.06 -0.03,0.11 -0.06,0.15 -0.03,0.05 -0.07,0.1 -0.11,0.15 -0.04,0.05 -0.09,0.1 -0.15,0.15 -0.38,0.33 -0.98,0.66 -1.06,1.04 -0.01,0.06 -0.02,0.11 -0.01,0.17 1.01,1.12 2.45,1.41 3.86,1.74 0.88,0.2 1.75,0.42 2.51,0.88 0.45,0.28 0.87,0.64 1.21,1.13 0.27,-0.31 0.55,-0.63 0.85,-0.91 0.9,-0.85 1.91,-1.38 3.18,-0.4 1.74,1.34 0.29,3.42 0.46,5.13 0.13,1.29 -1.32,0.82 -2.01,-0.11 -3.13,0.09 -5.98,-1.88 -9.2,-1.16 -3.59,0.8 -6.05,2.17 -3.42,6.32 4.7,2.92 8.18,6.67 10.69,11.83 3.18,6.54 9.58,9.85 16.27,11.88 5.76,1.74 11.76,2.71 17.68,3.83 2.62,0.5 5.33,0.25 5.76,-3.15 0.45,-3.5 2.9,-2.91 5.14,-2.98 1.67,-4.86 3.95,-5.53 8.82,-2.93 6.86,3.66 14.47,5.89 21.25,9.91 1.42,0.85 3.64,0.35 5.49,0.47 -4.47,-4.78 -10.82,-6.07 -16.43,-8.6 -13.05,-5.89 -26.12,-11.55 -38.11,-19.61 -9.23,-6.2 -18.89,-11.97 -28.93,-16.7 -19.72,-9.31 -40.8,-10.45 -62.2,-8.46 -2.74,0.26 -10.27,0.35 -10.43,0.72 -0.83,1.88 -2.97,0.95 -4.54,1.04 -8.17,0.45 -15.36,5.44 -23.69,5.07 -4.39,3.59 -9.43,5.23 -15.08,5.05 -1.9,4.25 -5.77,4.77 -9.72,5.15 -0.38,1.3 -1.26,2.04 -2.45,2.66 -13.65,7.14 -40.03,29.19 -42.04,29.39 -4.97,7.63 -12.6,12.79 -18.35,19.7 -6.27,7.53 -12.98,14.71 -18.49,22.86 -0.88,1.3 -1.93,2.19 -3.57,2.22 -3.43,9.69 -11.1,16.83 -15.54,26 -3.13,6.48 -7.28,12.48 -9.79,19.3 -6.85,12.24 -12.35,25.05 -16.28,38.51 -2.34,7.99 -4.26,16.11 -6.75,24.05 -1.13,3.61 -1.56,7.67 -2.34,11.48 -0.85,4.2 -2.52,7.84 -4.35,11.68 -1.55,3.25 -3.15,6.47 -4.66,9.74 -0.64,1.37 -2.22,3.72 -2.08,5.31 3.36,-2.32 6.71,-4.65 10.07,-6.98 3.36,-2.32 6.72,-4.64 10.1,-6.93 30.98,-21.03 64.7,-24.75 100.38,-15.75 9.56,2.42 19.07,4.99 27.38,10.69 4.18,2.87 8.4,5.71 11.11,10.08 5.75,9.27 14.41,13.63 24.77,15.53 10.51,1.93 21.09,3.44 31.2,7.24 26.42,9.94 42.32,28.58 42.9,56.98 0.89,42.97 -6.44,84.08 -34.93,118.66 -5.44,6.6 -10.98,13.13 -16.45,19.71 0.34,0.08 0.66,0.11 0.99,0.1 0.3,-0.01 0.58,-0.05 0.86,-0.13 0.26,-0.08 0.51,-0.19 0.76,-0.33 0.23,-0.14 0.46,-0.3 0.67,-0.48 0.21,-0.17 0.41,-0.36 0.61,-0.57 0.2,-0.21 0.4,-0.42 0.59,-0.64 0.38,-0.42 0.75,-0.85 1.16,-1.22 11.11,-10.17 18.98,-22.73 26.94,-35.36 1.15,-1.84 2.09,-3.81 2.98,-5.8 1.97,-4.38 3.77,-8.84 7.49,-12.17 0.29,-1.72 -0.22,-3.58 0.14,-5.27 0.17,-0.78 0.51,-1.52 1.2,-2.2 2.27,-5.37 3.48,-10.98 4.37,-16.65 0.2,-1.26 0.38,-2.52 0.56,-3.79 0.18,-1.27 0.35,-2.53 0.52,-3.79 0.26,-1.9 0.52,-3.8 0.81,-5.69 0.4,-2.64 0.24,-5.34 2.1,-8.2 1.78,12.4 -1.66,24.18 -0.87,36.03 0.13,1.98 0.69,4.23 -1.2,5.87 -1.86,16.49 -6.06,32.35 -11.8,47.93 -6.4,17.38 -15.49,33.31 -27,47.49 -10.03,12.36 -20.71,24.66 -35.55,31.98 -0.19,0.43 -0.36,0.65 -0.55,0.71 -0.3,0.11 -0.6,-0.21 -0.89,-0.72 -7.78,10.95 -20.2,14.94 -31.37,20.68 -27.08,13.91 -56.14,18.38 -86.25,17.04 -12.51,-0.55 -25.1,-2.09 -36.95,-5.86 -7.93,-2.52 -16.09,-4.31 -23.89,-7.19 -3.2,-1.18 -6.41,-2.56 -5.58,-7.03l-0.26 0.01c-0.02,0 -0.04,0 -0.07,0l-0.22 0.01c0,0 -0.26,-0.01 -0.28,-0.01l-0.27 -0.01c-0.21,1.09 0.07,2.93 -0.9,3.24 -0.32,0.11 -0.78,0.04 -1.45,-0.28 -1.53,-0.74 -5.85,-0.01 -4.06,-4.27 -0.08,-0.09 -0.16,-0.2 -0.22,-0.33 -0.07,-0.12 -0.13,-0.25 -0.19,-0.39 -0.06,-0.13 -0.12,-0.27 -0.19,-0.4 -0.32,-0.63 -0.75,-1.07 -1.87,-0.16 -1.1,1.51 -2.21,1.64 -3.34,0.56 -0.16,-0.15 -0.32,-0.33 -0.48,-0.54 -7,-2.64 -12.06,-7.76 -16.51,-13.45 -2.58,-3.31 -5.02,0.71 -7.38,-0.46l-0.2 0.22c1.53,1.4 2.95,2.94 4.61,4.18 37.92,28.48 81.44,39.31 127.5,33.99 70.84,-8.18 122.62,-45.46 153.29,-110.6 1.54,-3.27 3.26,-4.55 6.94,-4.83 27.73,-2.11 53.36,-10.7 76.17,-26.69 37.38,-26.19 65.41,-60.67 86.61,-100.74z"/>
    <path class="fil1" d="M566.41 280.5c-1.18,-0.61 -0.15,-2.26 0.06,-3.47 1.5,-8.52 -2.59,-16.06 -5.36,-23.46 -0.99,-2.65 -1.76,-0.67 -2.74,0.95 -0.17,0.3 -0.36,0.58 -0.55,0.82 -0.1,0.12 -0.2,0.23 -0.3,0.33 -0.2,0.2 -0.41,0.33 -0.64,0.38 -0.16,2 -0.23,3.99 -0.27,5.98 -0.12,5.99 0.1,11.97 -0.77,18.01 -2.38,16.49 -4.13,33.07 -6.78,49.53 -2.32,14.37 -3.26,28.98 -6.92,43.14 -3.61,14 -8.46,27.51 -15.71,40.07 -11.03,19.08 -21.73,38.38 -33.3,57.14 -5.12,8.3 -12.36,14.44 -21.89,18.79 -8.25,3.75 -15.86,9.71 -22.96,15.94 -16.35,14.35 -33.97,26.82 -54.87,33.9 -2.2,0.75 -4.39,1.43 -6.75,1.19 -0.46,0.93 -0.92,1.85 -1.38,2.77 -0.46,0.92 -0.92,1.84 -1.35,2.77 -2.69,5.79 -2.5,6.52 4.06,5.68 9.84,-1.27 19.72,-1.71 29.42,-4.95 11.51,-3.84 22.09,-9.29 32.88,-14.57 3.33,-1.63 3.38,-6.28 6.84,-6.68 7.36,-0.83 9.51,-8.11 14.92,-11.24 1.15,-0.67 1.76,-1.9 1.58,-3.23 -0.93,-6.84 4.4,-7.33 8.33,-6.72 4.58,0.72 4.28,-1.22 4.39,-4.23 0.14,-3.9 2.43,-6.95 6.25,-5.86 7.07,2.01 5.55,-1.66 4.67,-5.7 -1.47,0.77 -0.76,3.29 -3.24,2.93 0.2,-2.45 -1.92,-5.35 3.4,-5.87 2.08,-0.2 6.25,-0.71 7.52,-3.25 2.76,-5.54 7.72,-8.77 12.12,-12.45 2.24,-1.86 0.02,-5.45 3.26,-6.1 5.21,-1.04 5.13,-4.45 4.18,-8.51 -0.63,-2.7 -1.15,-6.44 2.54,-6.48 5.75,-0.07 7.65,-4.97 9.84,-7.94 4.96,-6.74 8.39,-14.65 11.17,-22.68 -0.18,-0.1 -0.35,-0.19 -0.52,-0.29 0.17,0.09 0.35,0.19 0.52,0.28 1.91,-2.99 4.64,-5.76 5.55,-9.03 1.74,-6.26 4.79,-11.94 6.89,-18.04 7.61,-22.07 13.37,-44.32 12.81,-67.9 -0.22,-9.2 0.03,-18.4 0.06,-27.61 0.05,-0.36 -0.02,-0.69 -0.2,-1 -3.38,-3.86 -1.17,-10.5 -6.76,-13.38z"/>
    <path class="fil1" d="M483.56 167.23c-6.78,-4.02 -14.39,-6.25 -21.25,-9.91 -4.87,-2.61 -7.15,-1.92 -8.82,2.93 1.49,2.97 4.35,4.42 6.85,6.31 0.73,0.55 1.35,1.16 1.9,1.81 0.12,0.15 0.24,0.3 0.35,0.45 0.44,0.57 0.83,1.17 1.15,1.81 0.79,1.55 1.27,3.27 1.53,5.11 0.71,-0.38 1.54,-0.62 2.12,-1.15 6.92,-6.4 12.94,-4.65 15.47,4.53 5.87,0.06 7.64,4.62 9.72,8.84 1.28,-0.04 2.2,0.51 3.03,1.22 1.06,0.91 1.96,2.08 3.27,2.59 1.45,-2.53 3.06,-4.24 4.92,-4.91 2.39,-0.87 5.19,-0.04 8.58,2.92 6.06,5.29 14.05,9.22 16.83,17.72 0.59,1.8 2.17,1.69 3.3,2.47 2.74,1.88 5.31,3.89 4.88,7.78 -0.09,0.79 -0.09,2.27 0.04,2.3 4.92,0.77 5.51,6.38 9.34,8.3 0.17,-1.66 -0.14,-3.38 0.05,-5.03 0.11,-0.99 0.4,-1.96 1.07,-2.88 0.14,-0.48 -0.01,-0.81 -0.47,-1 -5.85,1.78 -3.97,-2.78 -4.44,-5.41 -4.01,-8.66 -10.87,-14.98 -17.55,-21.44 -0.21,0.24 -0.41,0.49 -0.63,0.73 0.21,-0.24 0.41,-0.48 0.62,-0.73 -0.05,-0.45 -0.3,-0.69 -0.75,-0.74 -4.41,1.53 -5.58,-0.38 -4.73,-4.44 0,0 -0.45,-0.36 -0.45,-0.36 -0.9,0.39 -1.19,0 -1.11,-0.87 0,0 -0.07,-0.09 -0.07,-0.09 -0.83,0.28 -1.45,0.3 -1.9,0.12 -0.75,-0.3 -1.03,-1.19 -0.99,-2.47 -0.36,-0.31 -0.72,-0.62 -1.09,-0.93 -3.19,0.45 -5.37,-0.78 -6.49,-3.81 -6.92,0.64 -11.5,-2.37 -13.88,-8.85 -0.46,-0.34 -0.93,-0.69 -1.4,-1.04 -0.31,-0.15 -0.64,-0.2 -0.98,-0.15 -0.51,-0.38 -1.03,-0.75 -1.54,-1.13 -0.32,-0.12 -0.66,-0.17 -1,-0.13 -1.85,-0.12 -4.07,0.38 -5.49,-0.47z"/>
    <path class="fil0" d="M554.31 233.41c-0.75,2.09 0.73,4.19 1.14,6.28 0.04,0.21 0.07,0.42 0.09,0.63 0.03,0.42 0.01,0.84 -0.09,1.25 -0.16,0.63 -0.5,1.26 -1.12,1.89 0.85,2.09 1.7,4.2 2.55,6.29 0.14,0.28 0.25,0.5 0.3,0.66 0.15,0.49 -0.19,0.51 -1.56,0.61 0.88,1.56 1.46,3.21 1.27,5.03 0.23,-0.05 0.44,-0.19 0.64,-0.38 0.11,-0.09 0.2,-0.2 0.3,-0.33 0.2,-0.24 0.38,-0.52 0.56,-0.82 0.98,-1.63 1.75,-3.6 2.74,-0.95 2.77,7.41 6.86,14.94 5.36,23.46 -0.21,1.21 -1.24,2.86 -0.06,3.47 5.59,2.88 3.38,9.52 6.76,13.38 1.48,-5.78 -1.17,-11.03 -2.23,-16.44 -3.03,-15.64 -8.04,-30.6 -16.22,-44.38l-0.12 0.09c-0.12,0.11 -0.3,0.27 -0.3,0.27z"/>
    <path class="fil0" d="M92.79 629.9c-3.85,-5.98 -8.38,-11.25 -14.68,-14.53 -0.9,-0.47 -1.84,-0.89 -2.82,-1.28l-0.23 0.25c5.05,6.72 10.75,12.78 17.68,17.62l0.21 -0.21c-0.04,-0.62 0.15,-1.39 -0.15,-1.85z"/>
    <path class="fil0" d="M493.98 170.14c2.37,6.48 6.96,9.49 13.88,8.86 -0.01,-0.02 -0.02,-0.05 -0.03,-0.07 -4.1,-3.72 -8.37,-7.19 -13.81,-8.8 0.01,0.02 0.01,0.04 0.02,0.06 -0.02,-0.02 -0.05,-0.03 -0.07,-0.05z"/>
    <path class="fil0" d="M546.78 228.34l0 0c0.42,0.43 0.84,0.85 1.25,1.27 1.24,-0.4 2.49,-0.81 3.73,-1.21 0,0 0.02,-0.02 0.04,-0.04l0.01 -0.01c0.08,-0.08 0.23,-0.22 0.23,-0.22 -0.03,-3.3 -3.06,-4.97 -4.15,-7.7 -0.67,0.91 -0.96,1.88 -1.07,2.88 -0.19,1.66 0.11,3.38 -0.06,5.03z"/>
    <path class="fil0" d="M524.68 191.83c-1.58,-1.48 -3.15,-2.96 -4.73,-4.44 -0.85,4.06 0.32,5.97 4.73,4.44z"/>
    <path class="fil0" d="M547.43 219.43c-1.48,-1.81 -2.96,-3.61 -4.44,-5.41 0.46,2.63 -1.42,7.19 4.44,5.41z"/>
    <path class="fil0" d="M514.35 182.81c-1.85,-1.84 -3.58,-3.9 -6.52,-3.9 0,0.01 0.01,0.01 0.01,0.02 0.01,0.02 0.02,0.05 0.03,0.07 1.11,3.03 3.3,4.26 6.49,3.81z"/>
    <path class="fil0" d="M551.8 228.36l-0.04 0.04c0.19,1.22 -0.13,2.69 0.4,3.74 0.32,0.63 0.94,1.1 2.15,1.27 0,0 0.19,-0.15 0.31,-0.27 0.06,-0.05 0.11,-0.1 0.11,-0.1 -0.09,-2.08 -1.14,-3.64 -2.68,-4.93l-0.23 0.23 -0.01 0.01z"/>
    <path class="fil0" d="M516.43 186.2c0.45,0.19 1.07,0.15 1.9,-0.12 -0.96,-0.78 -1.92,-1.56 -2.89,-2.34 -0.04,1.27 0.24,2.16 0.99,2.46z"/>
    <path class="fil0" d="M525.45 192.57l-0.01 0.01c-0.2,0.24 -0.41,0.49 -0.62,0.73 0.21,-0.25 0.42,-0.49 0.63,-0.74z"/>
    <path class="fil0" d="M490.06 167.83c0.51,0.38 1.03,0.75 1.54,1.13 -0.29,-0.69 -0.52,-1.46 -1.54,-1.13z"/>
    <path class="fil0" d="M519.51 187.03c-0.37,-0.29 -0.74,-0.57 -1.11,-0.87 -0.08,0.87 0.22,1.25 1.11,0.87z"/>
    <path class="fil0" d="M494.05 170.19c-0.01,-0.02 -0.01,-0.04 -0.02,-0.06 -0.24,-0.66 -0.51,-1.3 -1.45,-1.02 0.47,0.35 0.94,0.69 1.4,1.03 0.02,0.02 0.05,0.03 0.07,0.05z"/>
    <path class="fil2" d="M395.54 486.77c1.33,0.44 3.32,0.63 4.42,1.16 0.36,0.18 0.63,0.39 0.74,0.67 3.13,8.1 7.75,4.52 12.99,2.61 5.82,-2.13 12.05,-3.03 18.38,-3.48 13.36,-0.95 22.23,-9.53 30.21,-19.22 3.1,-3.77 6.67,-6.62 11.35,-8.49 5.04,-2.01 8.46,-6.23 9.67,-11.6 2.56,-11.42 7.03,-21.44 15.85,-29.76 3.04,-2.87 5.16,-6.13 6.57,-9.67 2.34,-5.89 2.69,-12.53 1.98,-19.31 -1.59,-0.26 -2.61,0.35 -3.48,1.26 -0.52,0.54 -0.99,1.18 -1.5,1.8 -9.14,11.12 -21.54,16.66 -35.28,18.16 -16.86,1.83 -37.69,-10.32 -44.48,-27.63 -6.8,-17.33 -6.95,-34.64 -3.99,-52.86 3.27,-20.14 8.06,-39.97 10.95,-60.2 1.64,-11.48 8.88,-21.08 18.58,-27.93 21.02,-14.87 42.92,-11.77 64.72,-2.08 4.68,2.08 8.41,6.14 12.03,9.97 1.81,1.92 3.29,4.5 6.43,4.66 -1.84,-9.55 -8.53,-15.89 -15.17,-22.06 -2.51,-2.34 -4.27,-4.34 -3.73,-7.82 0.83,-5.28 -1.13,-9.92 -4.12,-13.9 -4.43,-5.89 -6.62,-12.79 -9.75,-19.27 -1.3,-0.51 -2.21,-1.69 -3.27,-2.59 -0.83,-0.71 -1.75,-1.26 -3.03,-1.22 -5.82,8.62 -15.7,10.69 -24.31,14.47 -13.6,5.96 -24.57,14.64 -34.5,25.74 -9.17,10.27 -17.82,20.94 -26.12,31.81 -16.69,21.86 -31.37,45.01 -39.38,71.78 -1.98,6.64 -2.71,13.46 -4.17,20.17 -0.48,2.17 -0.66,4.94 2.17,5.92 4.16,1.44 5.4,3.86 4.29,8.17 -0.47,1.82 0.59,4.03 0.96,6.07 0.71,0.54 0.78,1.15 0.73,1.84 -0.01,0.02 -0.01,0.03 -0.01,0.05 -0.02,0.2 -0.05,0.41 -0.08,0.63 0,0.03 -0.01,0.06 -0.01,0.09 -0.03,0.23 -0.06,0.47 -0.06,0.72 -0.01,0.26 0.01,0.53 0.07,0.81 0.06,0.28 0.16,0.56 0.32,0.86 0.16,0.3 0.38,0.6 0.68,0.91 12.41,12.9 20.39,28.43 20.92,46.65 0.08,2.58 0.17,5.17 0.27,7.76 0.2,5.18 0.45,10.35 0.67,15.52 0.56,12.93 1.01,25.88 0.51,38.84z"/>
    <path class="fil3" d="M65.2 528.94c-2.5,-2.24 -2.62,-5.52 -2.62,-8.77 0.01,-18.06 3.92,-35.58 6.64,-53.3 2.16,-14.06 5.8,-27.82 10.9,-40.72 3.84,-9.7 9.36,-19.51 17.51,-27.38 3.9,-3.77 8.4,-7.41 11.45,-11.85 3.11,-4.53 8.42,-4.76 12,-8.45 5.12,-5.29 11.27,-9.7 17.22,-14.23 12.04,-9.17 24.97,-16.78 38.27,-23.73 0.8,-0.42 1.69,-0.91 2.64,-1.35 0.47,-0.22 0.96,-0.43 1.46,-0.62 0.5,-0.19 1.01,-0.35 1.53,-0.47 0.27,-0.07 0.53,-0.12 0.79,-0.16 1.85,-0.29 3.8,-0.03 5.71,1.37 1.39,-1.3 2.83,-2.44 4.32,-3.43 1.48,-1 3.02,-1.84 4.6,-2.53 1.06,-0.48 2.13,-0.88 3.22,-1.24 4.38,-1.4 9.1,-1.91 14.16,-1.75 13.27,0.4 26.68,-0.94 39.15,5.24 8.42,0.46 15.73,4.47 23.31,7.51 3.64,1.46 6.41,3.71 7.18,8.43 0.22,1.38 0.55,2.8 1.03,4.2 0.8,2.33 2.03,4.56 3.98,6.33 0.41,-0.07 0.83,-0.09 1.21,-0.22 2.21,-0.73 4.15,-3.82 6.6,-1.79 0.44,0.37 0.7,0.75 0.84,1.16 0.59,1.76 -1.16,3.88 -1.02,5.8 0,0 0,0 0,0 6.83,0.97 13.02,3.86 19.19,6.62 0.88,0.39 1.76,0.78 2.64,1.17 12.85,5.58 26.08,10.31 38.55,16.77 1.27,0.66 2.43,1.39 3.48,2.21 3.17,2.45 5.37,5.63 6.63,9.68 6.62,1.4 9.31,4.97 9.99,11.16 0.32,2.81 0.21,6.16 -0.14,10.09 -0.67,7.79 -0.89,15.87 -4.94,23.02 3.64,8.19 4.09,16.96 3.68,25.62 -0.89,18.98 -9.04,35.34 -20.16,50.24 -9.11,12.21 -20.97,21.71 -32.64,31.35 -13.2,10.9 -26.18,22.06 -39.69,32.55 -2.34,1.81 -4.55,3.93 -6.88,5.87 -3.89,3.22 -8.13,5.91 -13.89,5.7 -2.37,4.93 -5.91,8.08 -10.24,10.1 -0.87,0.41 -1.76,0.76 -2.69,1.08 -0.92,0.32 -1.88,0.6 -2.85,0.84 -0.98,0.25 -1.98,0.46 -3.02,0.64 -7.97,1.4 -15.69,3.9 -23.68,5.38 -8.89,1.66 -16.89,0.93 -24.34,-4.29 -0.23,2.16 -1.65,2.57 -3.55,2.65 -18.71,0.74 -37.52,0.04 -55.21,-5.89 -14.49,-4.86 -27.68,-13.11 -40,-22.6 -7.37,-5.68 -13.93,-11.82 -19.3,-19.36 -3.05,-4.29 -4.29,-8.91 -4.34,-14.13 -0.09,-9.11 -1.3,-17.87 -8.71,-24.49zm11.4 59.92c4.65,4.57 9.32,9.14 13.97,13.7 0,0 -0.04,0 -0.06,0 0.99,0.25 1.92,0.58 2.4,1.4 0.16,0.27 0.28,0.6 0.33,1l0.21 -0.1c12.78,8.13 25.91,15.43 40.49,19.89 0.97,0.3 1.95,0.59 2.94,0.86 21.68,5.98 43.67,4.72 65.63,3.43 32.47,-1.9 63.38,-9.31 90.97,-27.5 2.78,-1.83 5.65,-3.53 8.48,-5.3 0,0 0.03,0.07 0.03,0.07 9.86,-7.72 19.24,-16.01 28.57,-24.35 3.11,-2.78 6.21,-5.57 9.33,-8.35 0,0 -0.17,-0.14 -0.17,-0.14 5.49,-6.56 11.03,-13.09 16.48,-19.7 28.5,-34.58 35.82,-75.69 34.93,-118.66 -0.59,-28.39 -16.48,-47.03 -42.91,-56.98 -10.11,-3.81 -20.69,-5.31 -31.2,-7.23 -10.35,-1.9 -19.01,-6.26 -24.76,-15.53 -2.71,-4.37 -6.94,-7.21 -11.11,-10.08 -8.31,-5.69 -17.82,-8.28 -27.38,-10.69 -35.68,-9 -69.4,-5.29 -100.39,15.75 -3.37,2.29 -6.74,4.61 -10.09,6.94 -3.36,2.32 -6.72,4.65 -10.08,6.97 -0.11,0.3 -0.32,0.41 -0.62,0.34 -3.97,3.84 -8.2,7.35 -12.92,10.25 0,0 -0.02,-0.02 -0.02,-0.02 -5.44,5.44 -11,10.76 -17.28,15.24 0,0 -0.06,0.12 -0.06,0.12 -8.8,10.59 -18.58,20.39 -25.84,32.26 -13.29,21.75 -19.93,45.7 -23.44,70.63 -4.41,31.29 -3.34,61.92 12.36,90.5l-0.06 0.05c-0.03,0.02 -0.06,0.05 -0.06,0.05 3.77,5.07 7.55,10.12 11.33,15.18z"/>
    <polygon class="fil3" points="76.6,588.85 76.6,588.85 "/>
    <path class="fil4" d="M362.1 366.05l0 0c-0.04,-0.07 -0.1,-0.15 -0.16,-0.22 -0.17,-0.22 -0.35,-0.44 -0.36,-0.66 -0.01,-0.3 0.3,-0.61 0.47,-0.9 0.19,0.29 0.38,0.57 0.58,0.88 -0.19,0.31 -0.36,0.61 -0.54,0.91zm9.42 6.04c-0.36,-2.03 -1.43,-4.24 -0.96,-6.07 1.1,-4.32 -0.14,-6.73 -4.29,-8.17 -2.82,-0.98 -2.64,-3.76 -2.17,-5.92 1.47,-6.71 2.19,-13.54 4.18,-20.17 8,-26.77 22.69,-49.92 39.37,-71.79 8.3,-10.87 16.95,-21.54 26.12,-31.81 9.92,-11.1 20.9,-19.78 34.5,-25.74 8.61,-3.78 18.49,-5.85 24.32,-14.47 -2.08,-4.22 -3.85,-8.79 -9.72,-8.83 -1.56,8.09 -3.5,9.51 -12.01,8.96 -3.69,-0.24 -7.42,0.5 -11.11,-0.64 -4.5,-1.38 -6.53,-3.54 -3.28,-7.99 -2.71,-0.39 -5.34,-0.32 -8.02,0.33 -0.38,0.1 -0.77,0.2 -1.15,0.32 -5.17,1.59 -10.63,2.69 -15.85,1 -4.09,-1.33 -7.92,-1.67 -11.99,-0.69 -0.07,2.66 -1.96,4.19 -3.81,5.47 -12.87,8.89 -22.72,20.77 -32.96,32.34 -5.47,6.19 -10.58,12.62 -16.36,19.09 3.26,1.28 3.99,-1.64 5.74,-2.2 2.03,-0.66 4.39,-1.2 6,0.21 1.79,1.56 0.8,3.52 -0.14,5.61 -7.59,16.96 -16.81,32.96 -27.21,48.34 -3.33,4.92 -3.94,11.33 -7.62,16.3 -2.3,3.11 -5.12,2.51 -7.85,1.54 -2.82,-1.01 -4.4,-3.03 -3.21,-6.41 0.46,-1.3 0.27,-2.82 -0.09,-4.4 -5.12,7.08 -7.38,15.46 -10.7,23.29 -4.35,10.26 -7.89,20.87 -11.82,31.31 -0.61,1.64 -1.91,2.72 -3.46,3.5 0.11,0.14 0.22,0.27 0.33,0.38 0.24,0.21 0.5,0.36 0.78,0.47 0.69,0.26 1.49,0.27 2.22,0.48 4.03,1.15 10.02,-0.65 11.81,1.02 5.08,4.73 11.09,3.62 16.59,5.31 8.1,2.49 16.61,4.42 23.92,8.44 1.4,0.77 2.58,1.6 3.72,2.18 1.9,0.98 3.69,1.26 6.17,-0.6z"/>
    <path class="fil4" d="M386.66 539.75c2.36,0.23 4.55,-0.45 6.74,-1.19 20.91,-7.08 38.52,-19.55 54.88,-33.9 7.1,-6.23 14.71,-12.19 22.96,-15.94 9.53,-4.34 16.77,-10.48 21.88,-18.78 11.57,-18.76 22.27,-38.06 33.3,-57.14 7.26,-12.56 12.1,-26.07 15.72,-40.07 3.66,-14.17 4.6,-28.77 6.92,-43.15 2.66,-16.46 4.4,-33.04 6.78,-49.53 0.88,-6.03 0.66,-12.03 0.78,-18.01 0.04,-2 0.11,-3.99 0.27,-5.98 0.2,-1.84 -0.38,-3.47 -1.27,-5.03 -0.56,-1.14 -0.56,-1.14 1.27,-1.27 -0.85,-2.1 -1.7,-4.2 -2.55,-6.3 -3.49,-3.99 -7.26,-7.84 -6.3,-13.85 -0.41,-0.43 -0.83,-0.85 -1.25,-1.27 -3.83,-1.92 -4.42,-7.53 -9.35,-8.3 -0.13,-0.02 -0.13,-1.51 -0.04,-2.3 0.43,-3.9 -2.14,-5.9 -4.88,-7.78 -1.13,-0.78 -2.72,-0.67 -3.31,-2.47 -2.77,-8.5 -10.77,-12.42 -16.83,-17.72 -3.39,-2.96 -6.19,-3.79 -8.57,-2.92 -1.86,0.67 -3.47,2.38 -4.92,4.91 3.13,6.48 5.32,13.39 9.75,19.27 3,3.98 4.95,8.62 4.12,13.9 -0.54,3.48 1.21,5.48 3.73,7.82 6.64,6.17 13.34,12.51 15.18,22.06 -1.38,5.09 2.46,8.71 4.02,12.83 6.92,18.23 4.94,36.26 0.22,54.43 -4.61,17.82 -11.57,34.76 -19.66,51.22 -2.71,5.52 -7.25,10.11 -8.56,16.39 0.71,6.78 0.36,13.42 -1.98,19.31 -1.41,3.53 -3.53,6.8 -6.57,9.67 -8.83,8.32 -13.3,18.34 -15.86,29.76 -1.2,5.37 -4.63,9.59 -9.66,11.6 -4.68,1.87 -8.25,4.72 -11.35,8.49 -7.97,9.69 -16.85,18.28 -30.2,19.22 -6.33,0.44 -12.56,1.35 -18.38,3.48 -5.24,1.92 -9.85,5.49 -12.98,-2.61 -0.11,-0.28 -0.37,-0.5 -0.74,-0.67 -1.09,-0.53 -3.08,-0.72 -4.42,-1.16 -2.41,13.16 -1.89,26.74 -6.18,39.68 -0.53,1.58 -1.14,3.17 -1.67,4.8 -0.35,1.09 -0.66,2.19 -0.88,3.31 -0.11,0.56 -0.2,1.12 -0.25,1.69 -0.11,1.14 -0.1,2.3 0.09,3.5z"/>
    <path class="fil1" d="M389.96 138.32c-0.2,-0.32 -0.37,-0.66 -0.5,-1.01 -0.13,-0.35 -0.23,-0.72 -0.29,-1.1 -0.14,-0.96 -0.02,-2.03 0.43,-3.26 1.92,-5.14 6.12,-6.36 10.92,-6.71 -0.01,-0.06 -0.01,-0.12 0,-0.17 0.09,-0.39 0.68,-0.71 1.06,-1.04 0.05,-0.05 0.11,-0.1 0.15,-0.15 0.04,-0.05 0.08,-0.1 0.11,-0.15 0.03,-0.05 0.06,-0.1 0.06,-0.15 0.02,-0.11 0,-0.21 -0.08,-0.33 -0.12,-0.17 -0.37,-0.36 -0.81,-0.56 -2.84,-1.33 -5.76,-2.72 -8.8,-3.31 -6.24,-1.22 -12.52,-4.45 -18.88,-1.96 -2.48,0.98 -4.59,1.54 -7.1,1.22 -4.42,-0.55 -8.18,0.76 -11.21,4.08 0.04,3.51 -2.06,5.18 -5.15,5.98 -3.58,0.93 -7.22,1.68 -10.38,3.76 3.92,2.59 4.05,7.05 0.95,10.58 -0.72,0.81 -1.61,1.58 -2.66,2.26 -1.74,1.12 -5.31,0.42 -4.99,3.7 0.32,3.16 3.36,2.42 5.52,2.82 2.43,0.45 4.42,1.72 4.96,4.21 0.55,2.52 -1.78,3.61 -3.29,4.9 -1.58,1.34 -3.63,2.13 -5.18,3.49 -4.86,4.28 -11.94,6.37 -13.72,13.71 8.7,-0.86 15.65,-5.44 22.45,-10.43 3.84,-2.81 2.86,-7.56 4.95,-11.19 4.6,-7.96 17.08,-12.58 25.36,-8.19 5.18,2.74 10.99,4.52 13.95,10.62 1.74,3.58 2.28,5.6 -2.01,7.1 -6.46,2.26 -9.08,8.41 -12.91,13.27 -3.16,4 -6.87,6.83 -11.43,9.38 -6.15,3.44 -10.62,9.79 -18.78,9.76 -1.16,-0.01 -3.12,2.59 -3.35,4.19 -1.03,7.04 -6.08,10.35 -11.36,13.84 -3.45,2.3 -5.85,5.58 -7.76,9.57 -2.3,4.84 -1.07,7.84 3.1,9.71 4.39,1.96 2.08,2.99 -0.12,4.34 -1.48,0.9 -3.18,1.5 -4.81,0.79 -7.36,-3.23 -10.98,1.12 -13.7,6.84 -0.69,1.46 -1.54,2.7 -2.53,3.74 -1.65,1.72 -3.73,2.88 -6.24,3.61 0.07,1.09 -0.38,1.92 -0.95,2.69 -0.29,0.38 -0.6,0.75 -0.88,1.14 -0.28,0.38 -0.54,0.78 -0.73,1.22 7.61,12.66 4.81,28.13 -6.51,37.62 -3.33,2.79 -5.63,6.52 -7.65,10.49 -3.2,6.3 -6.34,13 -14.84,13.73 0.09,1.56 1,2.47 2.13,2.95 0.38,0.16 0.78,0.27 1.19,0.34 5.98,1.03 10.67,4.5 15.54,7.7 7.07,4.64 7.09,4.62 9.98,-3.45 0.28,-0.78 0.5,-1.6 0.84,-2.36 8.46,-18.77 16.23,-37.85 25.3,-56.35 1.85,-3.78 4.96,-6.72 6.24,-10.79 2.67,-8.49 8.12,-15.53 13.01,-22.7 12.19,-17.87 29.71,-30.98 43.67,-47.35 8.14,-9.54 16.12,-18.78 14.58,-32.54 -0.2,-1.74 -0.85,-4.04 1.09,-5.24 4.63,-2.9 2.2,-4.03 -0.96,-5.76 -0.54,-0.29 -1.21,-0.54 -1.87,-0.82 -0.33,-0.14 -0.66,-0.28 -0.97,-0.45 -0.31,-0.16 -0.6,-0.34 -0.86,-0.54 -0.64,-0.51 -1.06,-1.18 -0.99,-2.15 0.04,-0.57 0.26,-1.27 0.71,-2.09l0 0c-1.23,-0.93 -2.3,-1.9 -3,-3.03z"/>
    <path class="fil4" d="M92.79 629.9c0.3,0.46 0.11,1.22 0.15,1.85 2.37,1.16 4.8,-2.86 7.38,0.45 4.44,5.7 9.51,10.81 16.51,13.45 1.27,-0.01 2.55,-0.01 3.82,-0.02 1.12,-0.9 1.55,-0.47 1.87,0.17 0.07,0.12 0.12,0.26 0.19,0.4 0.06,0.13 0.12,0.26 0.19,0.39 0.07,0.12 0.14,0.23 0.22,0.33 2.13,0.43 4.27,0.87 6.41,1.31 0,0 0.13,0 0.27,0 0,0 0.01,0 0.02,0 0.13,0 0.25,0.01 0.25,0.01l0.22 -0.01 0.07 0 0.26 -0 0 0c6.78,1.73 13.55,2.26 20.4,2.2 0.69,-0.01 1.37,-0.02 2.06,-0.03 1.37,-0.04 2.75,-0.09 4.13,-0.15 2.07,-0.11 4.15,-0.24 6.25,-0.4 14.89,-1.11 30.37,-4.7 44.8,0.02 16.09,5.26 28.99,-2.53 43.05,-6.45 16.49,-4.61 30.72,-13.52 44.67,-23.01 1.54,-1.05 2.88,-2.4 4.27,-3.66 5.68,-5.15 9.28,-12.28 15.9,-16.57 1.61,-1.04 2.32,-2.93 2.44,-4.9l-0.52 -0.29 0.23 -0.23 0.28 0.53c3.47,-3.58 7.25,-6.94 10.21,-10.87 2.3,-3.06 4.11,-6.46 4.91,-10.58 -1.82,0.18 -3.01,1.12 -4.03,2.27 -1.02,1.15 -1.87,2.5 -3.03,3.48 -6.34,5.35 -12.98,10.37 -19.35,15.68 -1.72,1.43 -3.42,1.28 -5.29,1.09l0 0c-0.01,-0.01 -0.02,-0.07 -0.02,-0.07 -0.39,1.74 -1.11,3.13 -2.03,4.27 -2.8,3.45 -7.52,4.73 -11.09,6.79 -23.96,13.82 -49.88,21.41 -77.62,23.47 -14.74,1.09 -29.51,1.96 -44.21,1.82 -26.43,-0.27 -50.41,-9.34 -72.33,-23.98 -1.42,-0.95 -1.93,-2.13 -1.24,-3.76 0.01,0 -0.2,0.1 -0.2,0.1 -1.67,0.06 -2.45,-0.88 -2.74,-2.4l0.01 0c0.01,0 0.06,0 0.06,0 -4.88,-0.11 -12.96,-8.03 -14.01,-13.71 -5.33,-1.01 -11.16,-8.83 -11.29,-15.18 0,0 0.03,-0.03 0.06,-0.05 0.03,-0.03 0.06,-0.05 0.06,-0.05 -3.48,0.23 -4.42,-2.21 -5.53,-4.86 -3.19,-7.6 -7.06,-14.92 -8.61,-23.19 -0.65,2.92 -0.96,5.78 -0.98,8.57l0 0.7c0.09,11.81 5.21,22.49 10.77,32.49 4.2,7.56 6.72,16.51 13.66,22.59 0.81,0.71 0.42,2.79 0.58,4.23 0.98,0.38 1.92,0.81 2.82,1.28 6.31,3.28 10.83,8.55 14.68,14.53z"/>
    <path class="fil2" d="M268.73 243.24c1.11,0.41 2.53,0.41 4.42,0.11 1.42,-0.23 3.09,-0.62 5.08,-1.16 0.09,-0.17 0.19,-0.34 0.28,-0.51 0.1,-0.17 0.2,-0.33 0.3,-0.48 0.22,-0.3 0.45,-0.57 0.72,-0.77 0.54,-0.4 1.2,-0.53 2.08,-0.11 1.49,0.71 1.52,2.31 1.68,3.82 1.07,10.16 2.9,11.87 12.61,11.95 2.51,-0.72 4.58,-1.88 6.24,-3.61 1,-1.03 1.84,-2.27 2.53,-3.74 2.72,-5.72 6.34,-10.07 13.7,-6.85 1.63,0.72 3.33,0.12 4.81,-0.79 2.2,-1.34 4.52,-2.37 0.12,-4.33 -4.17,-1.87 -5.41,-4.87 -3.1,-9.71 1.91,-4 4.31,-7.28 7.76,-9.57 5.28,-3.5 10.33,-6.81 11.37,-13.84 0.23,-1.59 2.19,-4.2 3.35,-4.19 8.16,0.03 12.63,-6.32 18.78,-9.76 4.56,-2.55 8.28,-5.38 11.43,-9.38 3.83,-4.86 6.45,-11.01 12.9,-13.27 4.29,-1.5 3.75,-3.53 2.01,-7.1 -2.96,-6.1 -8.77,-7.89 -13.95,-10.63 -8.28,-4.38 -20.76,0.23 -25.36,8.2 -2.09,3.63 -1.12,8.38 -4.95,11.19 -6.81,4.99 -13.75,9.57 -22.46,10.43 -3.89,0.5 -5.81,2.76 -6.37,6.6 -0.54,3.63 -2.29,5.65 -6.51,6.25 -7.32,1.04 -13.61,5.38 -20.59,7.81 -15.34,5.35 -14.61,22.91 -23.25,33.58 0.75,4.69 1.46,7.51 2.92,8.96 0.41,0.41 0.89,0.72 1.44,0.92z"/>
    <path class="fil2" d="M339.89 563.61c0.9,5.19 -4.66,6.45 -6.2,10.17 -0.79,4.12 -2.61,7.52 -4.91,10.58 -2.96,3.93 -6.74,7.29 -10.21,10.87 -0.12,1.98 -0.84,3.87 -2.44,4.9 -6.62,4.29 -10.22,11.42 -15.89,16.57 -1.39,1.27 -2.74,2.61 -4.27,3.66 -13.95,9.49 -28.18,18.4 -44.67,23.01 -14.06,3.93 -26.97,11.72 -43.05,6.46 -14.43,-4.72 -29.91,-1.13 -44.8,-0.01 -2.09,0.16 -4.18,0.29 -6.24,0.4 -1.39,0.07 -2.76,0.12 -4.13,0.15 -0.69,0.02 -1.37,0.03 -2.06,0.03 -6.85,0.06 -13.61,-0.46 -20.39,-2.2 -0.84,4.48 2.38,5.85 5.57,7.03 7.81,2.88 15.96,4.68 23.89,7.2 11.86,3.77 24.44,5.31 36.96,5.86 30.11,1.34 59.17,-3.13 86.24,-17.05 11.17,-5.74 23.59,-9.73 31.37,-20.68 0.48,0.01 0.96,0.01 1.45,0.01 0,0 0,0 0,0.01 -0.22,-3.16 1.77,-5.14 3.74,-6.82 0.65,-0.56 1.31,-1.09 1.88,-1.62 0.48,-0.44 0.91,-0.88 1.33,-1.34 2.9,-3.21 4.39,-6.86 5.53,-10.91 -1.42,0.29 -2.92,0.39 -4.24,0.91 -2.2,0.87 -4.05,0.66 -5.68,-1.06 -1.76,-1.86 -1.23,-3.97 -0.23,-5.79 5.29,-9.78 11.76,-18.16 24.07,-19.13 2.15,-8.38 6.53,-15.56 12.47,-21.67 11.56,-11.88 22.13,-24.59 24.41,-41.51 0.7,-5.18 4.32,-9.43 3.43,-14.75 -3.71,3.33 -5.52,7.79 -7.48,12.16 -0.9,1.99 -1.82,3.97 -2.98,5.81 -7.95,12.64 -15.83,25.19 -26.94,35.37 -0.4,0.37 -0.78,0.79 -1.15,1.22 -0.2,0.22 -0.4,0.43 -0.59,0.64 -0.2,0.2 -0.4,0.39 -0.62,0.57 0,0 0,0 -0,0.01 -0.21,0.17 -0.43,0.33 -0.67,0.46 0,0.01 -0.01,0.01 -0.01,0.01 -0.23,0.14 -0.48,0.24 -0.75,0.32 -0.01,0 -0.01,0 -0.02,0 -0.26,0.07 -0.54,0.12 -0.84,0.13l-0.04 0c-0.3,0.01 -0.61,-0.03 -0.96,-0.11 -0.01,0 -0.02,0 -0.02,0 0,-0.01 0.17,0.14 0.17,0.14z"/>
    <path class="fil1" d="M309.43 350.92c3.93,-10.44 7.47,-21.05 11.82,-31.31 3.32,-7.83 5.58,-16.22 10.7,-23.3 0.36,1.58 0.55,3.11 0.09,4.41 -1.19,3.38 0.39,5.4 3.21,6.4 2.73,0.98 5.55,1.57 7.85,-1.54 3.67,-4.97 4.29,-11.38 7.62,-16.3 10.4,-15.38 19.62,-31.38 27.21,-48.34 0.93,-2.09 1.93,-4.05 0.14,-5.61 -1.62,-1.41 -3.97,-0.87 -6,-0.21 -1.75,0.57 -2.48,3.48 -5.75,2.21 5.78,-6.47 10.88,-12.9 16.35,-19.08 10.24,-11.58 20.1,-23.46 32.96,-32.35 1.85,-1.28 3.75,-2.82 3.82,-5.47 -3.58,-0.17 -6.87,0.22 -10.19,2.14 -1.91,1.1 -4.59,3.6 -6.81,1.98 -3.21,-2.33 -3.91,0.51 -4.58,1.88 -4.14,8.51 -11.87,13.96 -17.7,21.02 -16.36,19.84 -34.38,38.3 -48.86,59.69 -4.89,7.23 -8.68,14.89 -11.69,23.16 -3.25,8.92 -6.6,17.8 -9.33,26.88 -2.6,8.63 -7.39,16.53 -8.33,25.73 -0.25,2.42 -1.56,4.64 -6.3,5.31 3.53,1.09 5.18,3.44 7.17,4.92 0.25,0.19 0.5,0.35 0.77,0.5 0.7,0.41 1.46,0.7 2.37,0.78 1.55,-0.78 2.84,-1.86 3.46,-3.5z"/>
    <path class="fil1" d="M221.66 317.73c3.23,-5.28 5.75,-11.17 10.58,-15.12 1.12,-0.91 2.36,-1.72 3.76,-2.4 4.19,-2.02 8.33,-2.52 11.96,1.25 4.81,-2.33 3.92,-7.31 5.23,-11.27 1.81,-5.44 4.71,-10.55 4.88,-16.48l-0.01 0c-5.75,2.93 -9.84,7.42 -12.63,13.22 -1.43,2.98 -3.05,6.85 -7.19,4.9 -3.9,-1.84 -3.89,-5.99 -1.94,-9.27 3.61,-6.08 4.39,-13.39 9.09,-19.06 5.54,-6.69 9.76,-7.9 17.43,-3.5 1.01,0.58 2.2,1.12 2.79,0.19 3.87,-6.24 11.17,-10.09 12.63,-18 -2,0.53 -3.67,0.93 -5.09,1.16 -1.88,0.3 -3.31,0.3 -4.42,-0.11 -0.55,-0.21 -1.03,-0.51 -1.44,-0.92 -1.45,-1.45 -2.17,-4.27 -2.92,-8.96 -1.32,0.04 -2.3,0.74 -3.38,1.44 -2.85,1.86 -3.6,6.67 -8.12,6.07 -3.45,-0.45 -4.24,1.83 -5.89,4.16 -7.84,11.09 -14.31,24.15 -31.08,23.81 -3.17,-0.07 -4.63,2.15 -4.56,5.53 0.06,2.36 1.03,5.06 -1.51,7.01 -5.22,4 -6.96,10.15 -9.99,15.6 -3.27,5.87 -1.92,13.89 -9.03,18.06 -3.45,2.02 -7.6,3.55 -10.29,8.57 4.37,-1.1 8.67,-2.27 12.94,-3.3 9.39,-2.27 18.62,-3.87 28.2,-2.59z"/>
    <path class="fil5" d="M382.81 506.89c0.89,5.33 -2.74,9.58 -3.43,14.75 -2.28,16.92 -12.84,29.62 -24.41,41.51 -5.94,6.1 -10.32,13.29 -12.47,21.66 3.66,2.45 2.89,5.63 1.4,8.88 -3.26,7.14 -9.49,11.48 -15.31,16.2 -1.15,4.04 -2.64,7.7 -5.54,10.9 -0.41,0.46 -0.86,0.9 -1.33,1.35 -0.57,0.53 -1.22,1.06 -1.88,1.62 -1.97,1.69 -3.95,3.66 -3.73,6.82l0 0c14.83,-7.33 25.51,-19.62 35.54,-31.99 11.51,-14.18 20.6,-30.11 27,-47.49 5.74,-15.58 9.94,-31.44 11.8,-47.92 -0.18,-1.3 -0.98,-3.08 -2.1,-2.2 -2.73,2.14 -2.96,-0.73 -4.19,-1.58 -0.69,0.68 -1.03,1.42 -1.2,2.19 -0.36,1.7 0.15,3.56 -0.14,5.28z"/>
    <path class="fil2" d="M280.99 264.58c-1.21,1.4 -2.79,2.57 -4.39,3.53 -6.2,3.79 -12.12,6.39 -12.43,16.19 -0.25,7.58 -2.9,15.79 -5.32,23.4 -1.84,5.79 1.44,10.14 1.72,15.2 1.24,1.48 2.53,-0.4 3.78,0.06 8.49,-0.73 11.64,-7.43 14.84,-13.73 2.01,-3.97 4.32,-7.69 7.65,-10.48 11.31,-9.5 14.11,-24.97 6.51,-37.62 -4.82,-1.36 -8.94,-0.49 -12.35,3.45z"/>
    <path class="fil4" d="M283.29 244.13c-0.16,-1.51 -0.19,-3.11 -1.67,-3.82 -0.88,-0.41 -1.54,-0.29 -2.08,0.11 -0.27,0.2 -0.51,0.47 -0.72,0.77 -0.11,0.15 -0.21,0.32 -0.31,0.48 -0.1,0.17 -0.19,0.33 -0.28,0.51 -1.46,7.92 -8.76,11.76 -12.63,18 -0.57,0.93 -1.78,0.39 -2.78,-0.19 -7.68,-4.4 -11.9,-3.19 -17.44,3.5 -4.69,5.68 -5.47,12.98 -9.08,19.06 -1.95,3.28 -1.97,7.43 1.94,9.27 4.14,1.95 5.75,-1.92 7.19,-4.89 2.79,-5.8 6.87,-10.29 12.63,-13.23 0.16,-0.91 0.13,-1.98 1.51,-1.9 0.14,0.01 0.38,0.25 0.39,0.4 0.08,1.38 -0.99,1.35 -1.9,1.51 -0.16,5.92 -3.06,11.04 -4.87,16.48 -1.31,3.96 -0.42,8.94 -5.23,11.27 1.71,4.56 1.37,8.91 -1.58,12.87 -1.11,1.5 -0.85,3.14 -0.93,4.78 4.66,2.78 9.77,3.74 15.12,3.79 -0.28,-5.06 -3.56,-9.4 -1.72,-15.2 2.42,-7.61 5.08,-15.82 5.32,-23.4 0.32,-9.8 6.23,-12.4 12.44,-16.19 1.59,-0.98 3.18,-2.13 4.39,-3.53 3.4,-3.94 7.53,-4.82 12.35,-3.45 0.18,-0.44 0.44,-0.83 0.73,-1.22 0.29,-0.38 0.59,-0.75 0.88,-1.14 0.57,-0.77 1.03,-1.59 0.95,-2.69 -9.7,-0.07 -11.54,-1.79 -12.61,-11.95z"/>
    <path class="fil4" d="M465.03 175.56c0,0 0.24,0.17 0.24,0.17 -0.26,-1.83 -0.74,-3.56 -1.53,-5.11 -0.33,-0.64 -0.72,-1.24 -1.15,-1.81 -0.12,-0.15 -0.22,-0.31 -0.35,-0.45 -0.55,-0.66 -1.18,-1.27 -1.9,-1.82 -2.5,-1.88 -5.36,-3.33 -6.86,-6.3 -2.24,0.08 -4.69,-0.51 -5.13,2.99 -0.43,3.4 -3.14,3.65 -5.76,3.15 -5.92,-1.13 -11.93,-2.09 -17.68,-3.84 -6.7,-2.03 -13.09,-5.33 -16.27,-11.88 -2.51,-5.16 -5.99,-8.91 -10.68,-11.82 0.02,0.83 0.03,1.65 0.05,2.48 2.88,6.77 10.13,10.51 12.19,17.92 1.59,5.69 5.76,7.75 11.56,7.32 11.21,-0.83 21.52,1.94 30.84,8.28 2.17,1.48 4.58,2 7.18,1.77 1.44,-1.85 3.4,-1.16 5.23,-1.06z"/>
    <path class="fil2" d="M246.39 314.33c2.95,-3.96 3.27,-8.3 1.57,-12.86 -3.63,-3.78 -7.76,-3.27 -11.96,-1.25 -1.4,0.67 -2.64,1.48 -3.76,2.4 -4.84,3.95 -7.35,9.84 -10.58,15.12l0 0c5.99,-0.38 11.92,0.36 17.85,0.92 1.98,0.19 3.96,0.36 5.94,0.46 0.09,-1.64 -0.17,-3.29 0.94,-4.78z"/>
    <path class="fil6" d="M459.75 187.44c3.69,1.14 7.41,0.4 11.11,0.64 8.5,0.55 10.45,-0.87 12,-8.96 -2.54,-9.19 -8.56,-10.93 -15.47,-4.54 -0.57,0.53 -1.4,0.77 -2.12,1.14l0 0c0,0 -0.24,-0.17 -0.24,-0.17 -0.48,3.11 -2.95,3.1 -5.24,3.37 -0.17,0.03 -0.34,0.06 -0.51,0.08 -0.93,0.15 -1.87,0.3 -2.8,0.45 -3.25,4.45 -1.22,6.6 3.28,7.99z"/>
    <path class="fil6" d="M349.9 129.68c3.08,-0.8 5.19,-2.48 5.15,-5.99 -4.92,-6.43 -11.13,-2.92 -16.82,-1.94 -4.52,0.77 -8.38,4.34 -7.83,8.5 0.1,0.74 0.36,1.31 0.74,1.75 0.21,0.24 0.46,0.43 0.74,0.61 1.89,1.16 5.18,0.75 7.65,0.83l0 0c3.16,-2.08 6.8,-2.84 10.38,-3.76z"/>
    <path class="fil5" d="M401.38 132.52c3.21,-0.71 6.07,1.25 9.2,1.16 0.22,-1.93 -1.74,-2.41 -2.48,-3.71 -0.35,-0.49 -0.76,-0.85 -1.21,-1.12 -0.76,-0.45 -1.63,-0.68 -2.51,-0.88 -1.41,-0.33 -2.84,-0.61 -3.85,-1.74 -4.79,0.36 -9,1.57 -10.92,6.72 -0.45,1.22 -0.57,2.3 -0.43,3.26 0.06,0.38 0.15,0.75 0.29,1.11 0.13,0.35 0.3,0.68 0.5,1.01 0.7,1.13 1.77,2.11 3,3.04 1.69,-0.01 3.37,-0.02 5.05,-0.03 -0.01,-0.83 -0.03,-1.66 -0.05,-2.48 -2.64,-4.15 -0.17,-5.52 3.42,-6.32z"/>
    <path class="fil2" d="M388.34 500.99c1.12,-0.88 1.92,0.9 2.11,2.19 1.88,-1.64 1.33,-3.89 1.2,-5.87 -0.78,-11.85 2.65,-23.63 0.87,-36.03 -1.86,2.87 -1.7,5.57 -2.11,8.21 -0.29,1.89 -0.55,3.79 -0.8,5.68 -0.17,1.27 -0.34,2.53 -0.52,3.8 -0.18,1.26 -0.36,2.53 -0.56,3.79 -0.89,5.67 -2.1,11.27 -4.37,16.65 1.24,0.85 1.46,3.72 4.19,1.58z"/>
    <path class="fil6" d="M315.56 137.41c2.64,-0.7 6.4,-0.65 6.53,-4.86 0.07,-2.59 -2.51,-3.4 -4.55,-3.23 -3.27,0.27 -6.23,1.8 -6.43,5.56 -0.14,2.63 2.25,2.47 4.45,2.53z"/>
    <path class="fil1" d="M434.64 149.82c2.11,0.33 2.35,-1.19 2.37,-1.65 0.07,-2.71 -0.26,-4.06 -2.22,-4.18 -1.89,-0.12 -2.68,0.91 -2.61,2.67 0.06,1.61 0.77,2.89 2.46,3.16z"/>
    <path class="fil2" d="M129.52 648.2c-2.14,-0.44 -4.27,-0.87 -6.41,-1.31 -1.8,4.27 2.52,3.54 4.06,4.27 0.67,0.32 1.13,0.38 1.45,0.28 0.97,-0.32 0.69,-2.15 0.9,-3.24z"/>
    <path class="fil1" d="M421.97 140.06l0 0c0.52,-1.74 2.69,-3.78 -0.72,-4.87 -0.96,-0.32 -2.29,-0.15 -2.6,0.97 -0.78,2.77 1.04,3.6 3.32,3.9z"/>
    <path class="fil1" d="M410.57 133.68c0.69,0.93 2.14,1.4 2.01,0.11 -0.17,-1.71 1.29,-3.79 -0.46,-5.13 -1.27,-0.98 -2.29,-0.45 -3.18,0.4 -0.3,0.28 -0.58,0.6 -0.86,0.91 0.74,1.3 2.69,1.78 2.48,3.71z"/>
    <path class="fil1" d="M465.03 175.56c-1.84,-0.1 -3.79,-0.78 -5.23,1.06 -0.01,0.77 -0.01,1.54 -0.01,2.3 2.3,-0.26 4.77,-0.26 5.24,-3.37z"/>
    <path class="fil1" d="M424.12 142.29c0.39,-0.06 1.04,-0.89 0.95,-1.13 -0.57,-1.48 -1.98,-0.94 -3.1,-1.1 0.19,1.26 0.49,2.5 2.16,2.23z"/>
    <polygon class="fil1" points="421.97,140.06 421.97,140.06 "/>
    <path class="fil1" d="M482.78 507.62c0.25,-0.11 0.33,-0.64 0.49,-0.99l-0.01 0c-0.25,-0.11 -0.54,-0.32 -0.77,-0.39 -0,0 -0.02,-0.01 -0.03,-0.01 -0.08,-0.02 -0.15,-0.02 -0.22,0 -0.25,0.1 -0.33,0.64 -0.48,0.99 0.34,0.16 0.77,0.5 1.02,0.4z"/>
    <path class="fil1" d="M451 154.67c0.08,0.02 0.15,0.02 0.22,0 0.25,-0.1 0.33,-0.64 0.48,-0.99 -0.35,-0.16 -0.77,-0.5 -1.02,-0.4 -0.07,0.02 -0.12,0.08 -0.16,0.15 -0.13,0.21 -0.21,0.58 -0.33,0.84 0,0 0,0 0,0 0.27,0.12 0.57,0.34 0.81,0.4z"/>
    <path class="fil2" d="M116.83 645.64c0.16,0.21 0.32,0.38 0.48,0.54 1.12,1.08 2.24,0.95 3.34,-0.57 -1.27,0.01 -2.55,0.02 -3.82,0.03z"/>
    <path class="fil5" d="M316.1 630.58c-0.48,0 -0.96,-0 -1.45,-0 0.3,0.51 0.6,0.82 0.9,0.72 0.19,-0.06 0.36,-0.29 0.55,-0.71z"/>
    <path class="fil0" d="M548.05 417.45l0 0c-0.17,-0.1 -0.35,-0.19 -0.53,-0.29 0.17,0.1 0.35,0.19 0.53,0.29z"/>
    <path class="fil1" d="M554.33 243.46c0.62,-0.63 0.96,-1.26 1.12,-1.88 0.11,-0.42 0.12,-0.84 0.09,-1.26 -0.02,-0.21 -0.05,-0.42 -0.09,-0.62 -0.41,-2.09 -1.89,-4.19 -1.14,-6.28 -1.22,-0.17 -1.84,-0.64 -2.16,-1.27 -0.52,-1.05 -0.21,-2.52 -0.39,-3.74 -1.24,0.4 -2.49,0.8 -3.73,1.21 -0.96,6 2.81,9.86 6.3,13.85z"/>
    <path class="fil1" d="M555.61 251.02c1.37,-0.1 1.71,-0.12 1.56,-0.61 -0.05,-0.16 -0.16,-0.38 -0.3,-0.66 -1.82,0.13 -1.82,0.13 -1.26,1.27z"/>
    <path class="fil5" d="M518.18 327.01c-11.81,12.29 -27.24,9.07 -35,-7.03 -3.16,-6.57 -5.57,-13.66 -4.86,-18.09 0.76,-16.94 3.42,-29.86 13.68,-39.99 11.45,-11.3 26.5,-9.49 33.93,4.71 9.8,18.72 7.23,44.81 -7.75,60.4zm7.03 -76.85c-3.62,-3.83 -7.34,-7.9 -12.02,-9.97 -21.8,-9.69 -43.71,-12.79 -64.73,2.08 -9.69,6.85 -16.93,16.45 -18.58,27.93 -2.89,20.23 -7.67,40.06 -10.95,60.2 -2.96,18.22 -2.81,35.53 3.99,52.86 6.8,17.31 27.63,29.46 44.48,27.63 13.74,-1.49 26.15,-7.03 35.28,-18.15 0.51,-0.62 0.98,-1.26 1.5,-1.8 0.87,-0.9 1.89,-1.52 3.48,-1.26l0.01 0c1.31,-6.28 5.85,-10.87 8.56,-16.39 8.08,-16.46 15.04,-33.39 19.66,-51.22 4.71,-18.17 6.7,-36.21 -0.22,-54.43 -1.57,-4.11 -5.4,-7.74 -4.03,-12.83 -3.14,-0.15 -4.62,-2.74 -6.43,-4.66z"/>
    <path class="fil7" d="M73.91 553.43c0.05,5.23 1.3,9.85 4.35,14.13 5.37,7.54 11.93,13.68 19.3,19.36 12.32,9.49 25.51,17.73 40,22.6 17.69,5.94 36.5,6.63 55.22,5.89 1.89,-0.08 3.31,-0.49 3.54,-2.65 -0.62,-5.34 2.51,-7.75 7.13,-8.59 8.69,-1.57 16.82,-4.95 25.23,-7.41 1.37,-0.4 3.77,-0.62 3.31,-2.2 -2.09,-7.09 3.89,-5.76 6.95,-6.46 5.78,-1.3 11.66,-0.5 17.36,1.26 4.77,1.47 6.01,5.41 6.84,9.65 5.76,0.2 10.01,-2.48 13.89,-5.7 2.34,-1.93 4.55,-4.06 6.88,-5.87 13.51,-10.49 26.5,-21.65 39.69,-32.55 11.66,-9.64 23.52,-19.14 32.64,-31.35 11.12,-14.91 19.27,-31.26 20.16,-50.24 0.41,-8.66 -0.04,-17.43 -3.68,-25.62 -2.92,0.51 -6.02,2.74 -8.61,-0.6 -2.31,-2.97 -1.73,-6.31 -0.64,-9.49 3.37,-9.8 3.42,-9.78 -4.31,-16.82 -6.08,-5.55 -5.21,-11.11 2.35,-14.67 2.06,-0.97 4.2,-1.79 6.3,-2.68 -1.27,-4.05 -3.47,-7.23 -6.64,-9.68 -1.05,-0.82 -2.22,-1.55 -3.48,-2.21 -12.48,-6.45 -25.7,-11.19 -38.55,-16.77 -0.88,-0.38 -1.77,-0.78 -2.64,-1.17 -6.17,-2.76 -12.37,-5.65 -19.19,-6.62l0 0c-1.49,6.92 -1.42,13.94 -1.36,20.95 0,1.01 0.01,2.01 0.02,3.01 0,0.67 0.07,1.37 0.06,2.06 -0.02,1.14 -0.25,2.22 -1.38,3.08 0.07,0.9 0.16,1.81 0.26,2.71 0.15,1.43 0.35,2.85 0.56,4.28 0.2,1.37 0.43,2.74 0.65,4.1 0.49,2.9 1.01,5.79 1.43,8.7 0.28,1.98 0.53,3.97 0.69,5.96 0.11,1.33 0.17,2.66 0.19,4 0.01,0.67 0.01,1.35 -0.01,2.02 -0.05,2.06 -0.08,4.13 -0.11,6.2 3.04,13.89 1.35,27.67 -1.08,41.42 1.33,1.41 1.6,2.9 1.4,4.34 -0.05,0.41 -0.15,0.82 -0.26,1.22 -0.12,0.4 -0.26,0.8 -0.41,1.18 -0.38,0.96 -0.83,1.86 -1.13,2.65 -4,10.61 -6.71,21.66 -12.85,31.56 -11.36,18.27 -25.06,34.1 -43.6,45.19 -14.13,8.46 -29.16,15.02 -45.87,16.31 -26.5,2.04 -49.81,-4.92 -67.23,-26.04 -2.65,-3.21 -4.9,-6.6 -6.71,-10.16 -3.97,-7.83 -5.76,-16.48 -4.9,-25.87 -3.71,-5.4 -4.5,-11.44 -3.98,-17.45 0.12,-1.38 0.3,-2.77 0.54,-4.14 2.24,-12.89 8.9,-24.14 14.93,-35.56 0.75,-1.43 1.95,-2.12 3.56,-2.16 6.35,-5.3 8.05,-13.81 13.59,-19.69 1.53,-1.64 2.72,-3.6 4.08,-5.41 0.43,-0.45 0.87,-0.9 1.3,-1.35 0.56,-1.05 1.14,-2.09 1.74,-3.11 0.17,-0.31 0.35,-0.61 0.53,-0.91 2.77,-4.67 5.85,-9.02 9.24,-13.03 1.15,-1.37 2.34,-2.69 3.56,-3.98 1.36,-1.44 2.76,-2.85 4.2,-4.19 1.92,-1.78 3.91,-3.47 5.97,-5.08 6.2,-4.83 13.07,-8.9 20.58,-12.21 13.75,-6.05 28.71,-8.71 43.01,-13.27 2.9,-0.92 5.77,-0.93 8.68,-0.84 5.84,0.18 7.32,2.47 5.72,8.57 5.57,0.02 9.61,-3.69 14.01,-6.18 7.72,-4.36 16.12,-7.65 22.73,-13.82 -1.95,-1.76 -3.18,-4 -3.98,-6.33 -0.48,-1.4 -0.8,-2.82 -1.03,-4.2 -0.76,-4.73 -3.54,-6.97 -7.18,-8.43 -7.58,-3.04 -14.89,-7.04 -23.31,-7.51 2.71,8.87 0.98,11.99 -7.93,11.09 -19.39,-1.96 -36.66,3.94 -53.36,12.67 -3.58,1.87 -7.37,1.7 -11.06,1.23 -6.18,-0.8 -7.49,-3.98 -3.67,-8.92 3.32,-4.28 7.04,-8.25 10.57,-12.36 -1.91,-1.4 -3.86,-1.66 -5.71,-1.37 -0.27,0.04 -0.53,0.09 -0.78,0.15 -0.53,0.13 -1.04,0.29 -1.54,0.48 -0.5,0.19 -0.99,0.4 -1.46,0.62 -0.95,0.44 -1.83,0.93 -2.64,1.35 -13.3,6.94 -26.24,14.57 -38.27,23.73 -5.95,4.54 -12.1,8.94 -17.22,14.23 -3.58,3.69 -8.89,3.93 -12,8.46 -3.05,4.44 -7.54,8.08 -11.45,11.85 -8.16,7.87 -13.68,17.68 -17.51,27.38 -5.1,12.89 -8.73,26.66 -10.89,40.72 -2.72,17.72 -6.63,35.24 -6.63,53.3 0,3.26 0.11,6.54 2.61,8.77 7.41,6.63 8.63,15.39 8.71,24.49z"/>
    <path class="fil8" d="M266.91 375.84c-4.41,2.48 -8.44,6.2 -14.01,6.19 -7.41,6.42 -16.96,7.17 -25.83,8.44 -28.28,4.05 -51.82,16.96 -72.41,36.12 -1.51,1.41 -2.77,3.22 -5.05,3.55 0.01,-0.02 0.02,-0.03 0.03,-0.05l0 0c-0.43,0.45 -0.86,0.9 -1.3,1.35 -1.35,1.82 -2.55,3.78 -4.08,5.41 -5.53,5.89 -7.23,14.4 -13.58,19.7 -0.51,4.77 -1.27,9.39 -4.08,13.53 -5.67,8.37 -6.45,17.86 -5.92,27.62 0.35,6.58 -0.4,12.93 -5.04,18.16 -0.86,9.4 0.93,18.04 4.9,25.87 1.8,3.56 4.06,6.94 6.71,10.16 17.43,21.12 40.73,28.08 67.24,26.04 16.7,-1.29 31.74,-7.86 45.87,-16.31 18.53,-11.09 32.23,-26.92 43.6,-45.2 6.15,-9.89 8.86,-20.95 12.85,-31.56 0.3,-0.78 0.75,-1.69 1.13,-2.64 0.15,-0.39 0.3,-0.78 0.41,-1.18 0.12,-0.4 0.21,-0.81 0.27,-1.22 0.2,-1.45 -0.08,-2.94 -1.4,-4.34 -6.94,24.04 -18.44,43.5 -34.13,58.62 -1.96,1.9 -3.99,3.72 -6.08,5.47 -2.09,1.76 -4.25,3.45 -6.47,5.07 -13.32,9.75 -28.95,17.11 -46.73,22.2 -18.24,5.22 -35.38,2.17 -49.57,-11.61 -0.49,-0.48 -0.98,-0.95 -1.45,-1.44 -1.43,-1.46 -2.71,-3.04 -3.41,-5.05 -9.93,-6.25 -15.53,-15.41 -18.29,-26.05 -0.4,-1.52 -0.74,-3.07 -1.01,-4.65 -2.67,-14.79 -0.13,-28.61 10.56,-40.08 2.37,-4.73 4.86,-9.4 7.53,-13.94 1.48,-2.51 3.02,-4.96 4.63,-7.38 1.59,-2.41 3.26,-4.77 5,-7.07 1.79,-2.37 3.65,-4.69 5.63,-6.94 0.06,-0.28 0.14,-0.56 0.23,-0.81 0.14,-0.37 0.3,-0.71 0.54,-0.98 0.4,-0.46 0.98,-0.75 1.82,-0.78 0,0.01 0,0.02 0,0.04 0.4,-0.4 0.8,-0.8 1.2,-1.2 -0.04,-0.85 0.21,-1.56 0.73,-2.13 0.17,-0.19 0.38,-0.36 0.6,-0.53 0.38,-0.38 0.77,-0.76 1.15,-1.14 0.39,-0.37 0.79,-0.73 1.19,-1.1 2.58,-0.9 2.55,-4.41 5.22,-5.21 11.65,-10.04 25.96,-14.59 40.33,-18.33 18.39,-4.79 35.99,-11.19 52.6,-20.42 4.22,-2.34 8.61,-4.23 13.67,-4.24 0.59,0 1.17,0.02 1.72,0.08 3.86,0.38 6.59,2.19 7.97,6.24 0.75,1.31 1.5,2.62 2.25,3.93 1.12,-0.85 1.36,-1.94 1.37,-3.08 0.01,-0.68 -0.06,-1.38 -0.06,-2.05 0,-1.01 -0.01,-2.01 -0.02,-3.01 -0.06,-7.01 -0.12,-14.02 1.36,-20.95 0,0 0,0 0,0 -0.14,-1.93 1.61,-4.04 1.02,-5.81 -0.14,-0.4 -0.4,-0.79 -0.84,-1.16 -2.45,-2.03 -4.39,1.06 -6.6,1.79 -0.38,0.13 -0.8,0.15 -1.21,0.22 -6.62,6.17 -15.02,9.47 -22.73,13.82z"/>
    <path class="fil8" d="M178.13 351.63c-3.82,4.94 -2.51,8.12 3.66,8.91 3.7,0.47 7.49,0.64 11.06,-1.23 16.7,-8.73 33.97,-14.62 53.36,-12.66 8.91,0.9 10.64,-2.22 7.93,-11.09 -12.47,-6.2 -25.87,-4.84 -39.15,-5.24 -5.05,-0.15 -9.77,0.35 -14.15,1.75 -1.1,0.35 -2.17,0.76 -3.22,1.23 -1.58,0.7 -3.11,1.54 -4.6,2.53 -1.48,0.99 -2.92,2.13 -4.31,3.44 -3.54,4.11 -7.26,8.08 -10.57,12.36z"/>
    <path class="fil8" d="M263.12 599.02c-0.83,-4.25 -2.08,-8.19 -6.85,-9.66 -5.69,-1.76 -11.58,-2.56 -17.36,-1.26 -3.06,0.69 -9.04,-0.64 -6.95,6.46 0.47,1.58 -1.94,1.8 -3.3,2.2 -8.41,2.46 -16.54,5.84 -25.23,7.41 -4.62,0.83 -7.75,3.24 -7.12,8.59 7.44,5.23 15.44,5.94 24.33,4.29 7.99,-1.49 15.72,-3.99 23.69,-5.38 1.03,-0.18 2.03,-0.39 3.01,-0.64 0.98,-0.24 1.93,-0.53 2.86,-0.84 0.93,-0.32 1.82,-0.68 2.69,-1.08 4.32,-2.03 7.86,-5.17 10.23,-10.1z"/>
    <path class="fil8" d="M367.79 403.42c-2.1,0.89 -4.23,1.71 -6.29,2.68 -7.56,3.56 -8.44,9.12 -2.35,14.67 7.73,7.05 7.68,7.03 4.32,16.82 -1.09,3.19 -1.68,6.54 0.63,9.5 2.59,3.33 5.69,1.11 8.61,0.6 4.04,-7.15 4.27,-15.23 4.94,-23.02 0.34,-3.93 0.45,-7.29 0.14,-10.1 -0.69,-6.18 -3.38,-9.75 -10,-11.15z"/>
    <path class="fil0" d="M202.53 629.03c-21.97,1.29 -43.96,2.55 -65.64,-3.43 -0.98,-0.27 -1.96,-0.55 -2.93,-0.85 -14.58,-4.47 -27.71,-11.76 -40.5,-19.89 -0.68,1.62 -0.17,2.8 1.25,3.75 21.91,14.63 45.89,23.71 72.32,23.97 14.69,0.15 29.47,-0.72 44.21,-1.82 27.74,-2.06 53.66,-9.66 77.63,-23.47 3.56,-2.06 8.29,-3.34 11.08,-6.79 0.93,-1.15 1.65,-2.54 2.04,-4.27 -2.83,1.76 -5.7,3.47 -8.48,5.29 -27.6,18.19 -58.5,25.6 -90.97,27.5z"/>
    <path class="fil0" d="M339.89 563.61c-3.11,2.77 -6.21,5.56 -9.33,8.35 -9.33,8.35 -18.71,16.62 -28.57,24.35 1.88,0.2 3.57,0.35 5.29,-1.09 6.38,-5.31 13.01,-10.33 19.35,-15.68 1.16,-0.98 2.02,-2.33 3.04,-3.48 1.02,-1.14 2.21,-2.09 4.02,-2.27 1.53,-3.72 7.09,-4.99 6.2,-10.17z"/>
    <path class="fil0" d="M76.6 588.85c0,0 0,0 0,0.01 -0.01,-0.01 -0.02,-0.01 -0.04,-0.01 1.05,5.68 9.13,13.6 14,13.71 -4.66,-4.56 -9.31,-9.14 -13.97,-13.7z"/>
    <path class="fil0" d="M76.6 588.85l0 0c-3.78,-5.06 -7.55,-10.13 -11.33,-15.18 0.13,6.34 5.97,14.18 11.3,15.18 0.01,0.01 0.02,0.01 0.04,0.01 -0,-0.01 -0,-0.01 -0,-0.01z"/>
    <path class="fil0" d="M90.52 602.55c0.28,1.53 1.06,2.47 2.74,2.4 -0.06,-0.4 -0.17,-0.73 -0.33,-1 -0.49,-0.82 -1.42,-1.15 -2.4,-1.4z"/>
    <path class="fil0" d="M361.58 365.16c0.01,0.22 0.19,0.44 0.35,0.67 0.06,0.07 0.11,0.14 0.16,0.22 0.18,-0.3 0.35,-0.59 0.54,-0.91 -0.2,-0.3 -0.38,-0.59 -0.57,-0.88 -0.17,0.3 -0.48,0.61 -0.47,0.9z"/>
    <polygon class="fil2" points="318.06,594.94 318.58,595.23 318.29,594.71 "/>
    <path class="fil6" d="M343.9 593.69c1.48,-3.25 2.26,-6.42 -1.4,-8.88 -12.31,0.98 -18.78,9.36 -24.07,19.13 -1,1.83 -1.53,3.94 0.23,5.8 1.64,1.72 3.48,1.93 5.68,1.06 1.33,-0.53 2.82,-0.63 4.25,-0.91l0 0c5.82,-4.72 12.05,-9.07 15.31,-16.2z"/>
    <path class="fil1" d="M259.96 272.2c-0.01,-0.14 -0.25,-0.38 -0.39,-0.39 -1.38,-0.09 -1.35,1 -1.51,1.9l0 0c0.91,-0.16 1.98,-0.13 1.9,-1.51z"/>
    <path class="fil9 str0" d="M410.75 144.17c0.09,0.56 0.19,1.11 0.28,1.67"/>
    <path class="fil10" d="M486.62 57.76c-7.99,-8.57 -18.73,-13.4 -27.71,-20.63 11.9,3.25 21.49,9.64 27.71,20.63zm19.45 29.94c1.31,1.82 1.39,3.62 -0.17,5.11 -5.78,5.51 -9.72,12.52 -15.52,19.19 2.37,-13.23 5.43,-25.46 3.24,-38.54 6.16,3.79 8.93,9.33 12.46,14.24zm-1.15 11.89c3.84,-4.17 5.94,-3.9 7.6,1.42 3.12,9.97 6.21,19.92 11.55,29 0.86,1.46 1.4,3.19 0,4.68 -8.18,8.75 -12.89,19.88 -20.65,30.41 -3.76,-14.82 -6.99,-28.55 -10.78,-42.13 -2.09,-7.5 3.63,-11.51 6.5,-16.75 1.38,-2.51 3.79,-4.46 5.78,-6.62zm41.74 -5.97c9.98,2.62 20.21,4.36 30.25,6.94 2.09,0.54 4.03,1.19 5.84,2 3,1.36 5.62,3.2 7.93,5.81 6.94,5.78 12.64,12.62 18,19.87 0.57,0.78 1.15,1.56 1.72,2.35 1.96,2.71 3.87,5.47 5.81,8.24 -1.97,-0.63 -3.94,-1.23 -5.92,-1.81 -3.95,-1.15 -7.93,-2.2 -11.9,-3.19 -1.99,-0.5 -3.99,-0.97 -5.98,-1.44 -7.98,-1.87 -15.99,-3.53 -23.99,-5.23 -4.17,-0.71 -8.4,-1.03 -12.62,-1.44 -5.78,-0.56 -11.54,-1.27 -17.09,-3.31 -1.36,1.08 -2.9,1.87 -4.27,1.65 -0.27,-0.04 -0.54,-0.13 -0.8,-0.27 -0.26,-0.13 -0.51,-0.31 -0.74,-0.54 -0.23,-0.23 -0.46,-0.51 -0.66,-0.85 -6.08,-10.08 -11.83,-20.37 -18.33,-31.65 11.79,1.03 22.27,0.11 32.76,2.85zm74.79 52.61c0.5,0.5 0.96,1.05 1.38,1.61 0.33,0.44 0.64,0.89 0.93,1.37 0.27,0.44 0.53,0.88 0.77,1.35 0.13,0.26 0.27,0.53 0.4,0.81 0.52,1.07 0.98,2.19 1.4,3.34 0.22,0.59 0.43,1.19 0.64,1.8 2.46,3.05 4.38,6.35 6.08,9.85 0.72,1.5 1.41,3.03 2.07,4.59 1.72,4.08 3.32,8.38 5.22,12.83 -4.39,-1.9 -8.74,-3.65 -13.08,-5.25 -13.02,-4.81 -25.91,-8.33 -39.08,-10.91 -8.92,-1.84 -18.4,-0.07 -26.97,-4.22 -3.39,2.24 -5.85,1.7 -7.78,-0.48 -0.64,-0.73 -1.22,-1.64 -1.77,-2.69 -4.71,-9.11 -9.46,-18.19 -14.13,-27.32 -0.74,-1.44 -2.13,-3.11 -1.2,-4.66 1.01,-1.69 2.98,-0.75 4.59,-0.56 7.62,0.89 15.22,1.96 22.86,2.47 2.21,0.15 3.42,1.19 4.89,2.27l0.03 -0.01c3.74,-1.63 7.37,-0.74 10.89,0.3 0.64,0.19 1.27,0.38 1.91,0.56 0.63,0.19 1.26,0.36 1.89,0.5 0.31,0.07 0.62,0.14 0.93,0.2 10.42,1.98 20.46,5.84 30.73,8.64 2.72,0.74 4.78,2.01 6.4,3.63zm21.9 52.27l-0.01 0c0.4,0.35 0.8,0.68 1.15,1.06 0.12,0.12 0.23,0.25 0.33,0.38 0.2,0.27 0.35,0.57 0.45,0.9 0.09,0.33 0.12,0.69 0.07,1.1 1.99,6.65 2.62,13.51 3.21,20.37 0.16,1.83 0.64,4.48 -0.32,5.39 -1.78,1.67 -3.67,-0.89 -5.59,-1.4 -0.94,-0.24 -1.69,-1.17 -2.53,-1.79 -11.86,-4.03 -22.63,-10.74 -34.86,-13.95 -5.71,-1.5 -11.4,-2.96 -17.17,-3.98 -3.47,-0.61 -6.96,-1.07 -10.5,-1.28 -1.25,0.12 -2.32,0.02 -3.21,-0.44 -0.9,-0.46 -1.64,-1.27 -2.24,-2.56 -4.53,-9.64 -9.33,-19.15 -14,-28.72 -1.77,-3.65 -1.19,-5.17 3.47,-5.07 22.54,0.46 44.02,5.98 65.17,13.1 4.52,1.53 8.89,3.69 13.05,6.06 4.18,2.38 4.49,6.51 3.54,10.82zm5 35.23c0.32,0.42 0.58,0.88 0.78,1.35 0.1,0.23 0.19,0.48 0.25,0.73 0.46,1.75 0.11,3.79 -1.29,6.18 0.96,3.92 0.45,7.73 -0.21,11.55 -0.51,2.96 -1.12,5.91 -1.19,8.91 -0.06,2.32 -1.48,2.08 -3.02,1.33 -0.98,-0.48 -1.99,-0.91 -3,-1.32 -3.04,-1.23 -6.14,-2.34 -8.8,-4.37l0 0 -0.01 0c-6.05,-2.16 -12.25,-3.95 -18.33,-6.03 -4.26,-1.45 -8.46,-3.05 -12.53,-5.02 -3.75,-0.08 -6.68,-0.98 -8.88,-3.18 -1.33,-1.31 -2.39,-3.1 -3.21,-5.46 -2.47,-7.06 -7.75,-13.02 -8.93,-20.72l0 0.01c0,0 0,-0.01 0,-0.01 -0.08,-0.56 -0.15,-1.13 -0.22,-1.69l-0.09 -0.16c-1.04,-1.29 -2.29,-2.47 -3.06,-3.9 -0.96,-1.78 -0.96,-2.98 1.9,-2.96 5.05,0.04 10.14,0.29 14.92,1.62 17.51,4.89 34.27,11.79 50.56,19.83 1.89,0.94 3.39,2.03 4.36,3.32zm-4.14 34.46c1.57,1.85 1.22,4.1 -0.46,6.97 -0.94,6.38 -1.84,12.77 -2.82,19.14 -0.3,1.96 -0.84,3.94 -3.57,2.52 -1.33,-0.69 -2.71,-1.29 -4.11,-1.86 -0.45,-0.18 -0.89,-0.36 -1.33,-0.54 -3.75,-1.53 -7.46,-3.13 -10.21,-6.42l0 0c-3.92,0.2 -7.79,-0.02 -10.7,-2.08 -1.32,-0.94 -2.45,-2.25 -3.3,-4.09 -4.79,-10.34 -9.14,-20.89 -13.97,-32.06 10.54,2.39 20.45,4.88 29.61,9.26 5.7,2.73 11.75,4.33 17.48,6.87 1.56,0.69 2.67,1.45 3.38,2.29zm-5.33 33.33c0.72,1.62 -1.17,3.6 -1.98,5.3 0.69,5.34 -0.67,10.27 -2.62,15.08 -0.28,0.69 -0.57,1.37 -0.87,2.06l-0.01 0.01c0.03,0.57 0.06,1.15 0.09,1.72 -0.09,2.61 -1.54,2.53 -2.5,0.82 -6.5,-11.82 -12.82,-23.73 -19.87,-36.87 9.61,3.79 17.97,6.75 26.01,10.4 0.96,0.44 1.5,0.94 1.74,1.48zm-33.28 15.82c-1.65,-0.83 -3.08,-2.23 -4.96,-2.53 -6.51,-1.03 -6.86,-4.71 -4.06,-9.55 1.85,-3.19 4.04,-6.19 6.59,-10.06 1.48,5.82 3.11,10.55 8.22,13.18 1.3,0.67 2.41,2.92 2.26,4.96 -0.4,5.37 3.66,8.57 6.42,12.89 -6.08,-1.45 -9.53,-6.4 -14.47,-8.9zm-20.45 -8.01c-8.65,-3.14 -8.76,-10.69 -9.93,-17.64 -0.47,-2.81 -1.02,-6.03 -3.05,-7.29 -4.95,-3.06 -3.02,-5.59 -0.63,-8.94 3,-4.23 5.53,-8.78 7,-11.14 6.44,-7.18 6.42,-6.94 11.06,-0.93 3.64,4.72 5.19,9.88 5.42,15.61 0.17,4 0.01,8.01 4.06,10.55 1.37,0.86 1.68,2.21 0.75,3.81 -2.81,4.86 -5.4,9.84 -8.32,14.63 -1.5,2.46 -3.41,2.42 -6.38,1.35zm-22.85 -30.86c-4.22,-2.26 -8.61,-4.22 -12.7,-6.7 -5.26,-3.19 -6.78,-7.31 -4.57,-13.73 4.44,-12.9 10.06,-25.17 16.84,-36.94 1.43,-2.48 3.42,-4.74 6.39,-6.53 4.57,11.53 8.81,22.57 13.32,33.48 1.46,3.52 1.42,6.2 -1.49,9 -5.78,5.55 -9.06,12.94 -13.53,19.46 -1.21,1.75 -1.88,3.22 -4.27,1.95zm-22.75 -17.11c-1.85,0.36 -1.84,-1.98 -2.91,-2.87 -0.97,-0.8 -1.87,-1.68 -2.81,-2.53 -6.15,-5.49 -10.27,-12.59 -15.24,-19.01 -1.08,-1.38 -0.86,-2.44 -0.46,-3.99 4.24,-16.41 12.04,-31.16 21.09,-45.31 2.22,-3.47 4.41,-4.77 8.41,-1.27 6.2,5.46 11.11,11.89 16.05,18.35 2.31,3.02 2.08,5.6 -0.34,8.98 -9.52,13.3 -16.59,27.9 -21.44,43.55 -0.48,1.54 -0.36,3.72 -2.35,4.1zm-24.84 -35.36c-1.89,-0.28 -1.9,-2.26 -2.47,-3.88 -3.71,-10.46 -2,-21.49 -3.68,-32.16 -0.39,-2.47 -0.23,-5.1 -1.02,-7.43 -2.75,-8.17 -2.26,-15.62 3.09,-22.78 4.61,-6.17 8.64,-12.77 12.92,-19.19 2.9,-3.67 4.65,-4.22 7.91,0.33 5.37,7.51 6.07,16.09 8.26,24.49 2.6,9.99 -0.71,17.46 -6.26,25.32 -6.76,9.58 -11.48,20.37 -15.45,31.44 -0.57,1.57 -0.64,4.24 -3.3,3.85zm-61.52 -191.38l0 0.03c1.57,3.52 1.85,7.34 1.86,11.04 0.04,12.57 2.44,25.02 1.21,37.7 -0.67,6.99 -1.99,13.47 -5.29,19.66 -2.77,5.17 -5.32,10.45 -3.08,16.71 0.76,2.13 0.39,4.49 -0.84,6.68 -0.91,1.61 -1.72,3.47 -1.85,5.27 -1,13.88 -7.35,23.13 -21.65,25.76 12.24,4.14 13.08,3.87 19.76,-6.44 9.42,-15.18 14.55,-31.35 16.81,-48.17 0.22,-1.68 0.42,-3.37 0.59,-5.07 0.34,-3.39 0.57,-6.8 0.7,-10.24 0.2,-5.15 0.18,-10.35 -0.02,-15.6 -0.37,-9.59 -1.33,-19.16 -2.08,-29.41 10.64,4.64 19.28,11.34 27.39,18.81 2.34,2.15 0.23,3.95 -0.59,5.58 -14.03,27.72 -17.43,57.44 -16.86,87.97 0.07,3.73 2.48,7.17 1.1,11 0.22,0.51 0.41,1.02 0.58,1.55 1.19,3.65 1.32,7.51 1.95,11.27 1.44,6.32 2.9,12.66 4.34,18.98 0.25,3.32 3.14,6.21 1.56,9.81 4.95,8.35 7.59,17.89 13.3,25.83 2.55,3.55 2.22,8.36 5.36,11.61 4.29,7.46 11.35,12.71 15.77,20.22 2.54,4.33 7.31,7.35 11.13,10.91 3.52,3.28 7.1,6.49 10.66,9.74 0.64,0.56 1.27,1.11 1.9,1.67 0,0 0,0 0,0 0,0 -0,-0.01 -0,-0.01 9.96,5.68 19.93,11.37 29.9,17.04 1.62,0.92 3.26,1.8 4.9,2.69 18.06,8.84 36.19,17.5 55.07,24.52 5.51,2.05 7.77,0.65 9.22,-4.88 5.01,-19.08 8.46,-38.46 12.14,-57.81 2.19,-11.55 3.57,-23.08 3.64,-34.62l0 -1.53c-0.04,-9.17 -0.91,-18.35 -2.88,-27.54 -10.35,-48.37 -37.55,-85.84 -75.8,-115.94 -3.87,-3.05 -7.86,-6.63 -13.23,-7.32 1.36,2.53 3.47,4.12 5.74,5.51 1.77,1.08 3.63,2.04 5.31,3.23 2.03,1.44 3.9,3.14 5.52,5.65 -10.43,-2.43 -20.87,-4.87 -31.3,-7.3 -9.8,-0.6 -19.6,-1.17 -29.4,-1.8 -4.51,-0.3 -6.83,-4.69 -7.69,-7.31 -1.75,-5.29 -5.07,-9.35 -8.61,-14.99 5.48,1.01 9.86,1.8 14.24,2.6 13.52,3.38 27.07,6.68 39.53,13.24 1.1,0.57 1.97,0.35 2.84,-0.36 -2.08,-1.99 -4.44,-3.46 -7.1,-4.6 -16.24,-6.88 -33.33,-10.74 -50.53,-14.16 -4.11,-0.82 -7.11,-2.42 -9.54,-6.12 -5.25,-7.97 -12.57,-13.8 -20.88,-18.55 -3.4,-1.95 -7.63,-2.33 -10.36,-5.5 -0.97,-0.22 -1.93,-0.43 -2.9,-0.65 -0.52,1.21 -1.04,2.42 -1.55,3.62z"/>
    <path class="fil11" d="M553.21 80.94c-12.46,-6.56 -26.01,-9.87 -39.54,-13.24 0.24,3.05 2.88,3.08 4.9,4 4.65,2.13 10.03,2.81 11.32,9.73 0.72,3.87 6,4.78 9.55,4.36 3.44,-0.4 4.31,1.43 5.7,3.39 10.43,2.43 20.87,4.87 31.3,7.3 -1.63,-2.51 -3.48,-4.21 -5.52,-5.65 -1.68,-1.19 -3.54,-2.15 -5.3,-3.23 -2.27,-1.39 -4.38,-2.97 -5.75,-5.51l0 0c-1.64,0.44 -2.46,-1.22 -3.82,-1.51 -0.87,0.7 -1.74,0.93 -2.84,0.35z"/>
    <path class="fil12" d="M445.2 131.71c0.13,-1.81 0.94,-3.67 1.85,-5.28 1.23,-2.18 1.61,-4.55 0.84,-6.67 -2.24,-6.26 0.31,-11.54 3.08,-16.71 3.3,-6.19 4.62,-12.68 5.3,-19.66 1.23,-12.68 -1.17,-25.13 -1.21,-37.7 -0.01,-3.71 -0.29,-7.52 -1.87,-11.04 -1.5,0.88 -0.77,3.77 -3.32,3.72 -4.08,-0.14 -6.04,1.26 -4.45,5.68 1.7,4.76 1.56,9.77 1.55,14.74 -0.06,15.89 -0.45,31.78 -4.29,47.28 -2.4,9.66 -5.69,18.95 -12.12,27.05 -1.33,1.68 -2.87,3.17 -4.44,4.62 -2.2,2.03 -4.49,3.96 -6.45,6.19 -1.12,1.27 -2.14,2.64 -2.97,4.19 1.28,0.85 2.04,2.1 2.68,3.42 1.07,2.21 1.82,4.65 4.17,5.92 14.31,-2.63 20.66,-11.88 21.65,-25.75z"/>
    <path class="fil12" d="M563.34 213.73c2.42,-3.38 2.66,-5.96 0.35,-8.98 -4.95,-6.46 -9.85,-12.9 -16.06,-18.35 -3.99,-3.51 -6.18,-2.21 -8.41,1.27 -9.05,14.15 -16.85,28.89 -21.08,45.31 -0.4,1.54 -0.61,2.61 0.46,3.99 4.97,6.42 9.1,13.52 15.24,19.01 0.93,0.85 1.84,1.73 2.81,2.53 1.08,0.88 1.06,3.22 2.91,2.86 1.99,-0.38 1.87,-2.56 2.35,-4.1 4.86,-15.65 11.92,-30.25 21.45,-43.54z"/>
    <path class="fil12" d="M533.46 190.71c5.55,-7.86 8.86,-15.33 6.26,-25.32 -2.19,-8.4 -2.88,-16.99 -8.26,-24.49 -3.27,-4.56 -5.02,-4 -7.91,-0.34 -4.28,6.41 -8.3,13.02 -12.92,19.19 -5.35,7.16 -5.84,14.62 -3.09,22.78 0.78,2.33 0.63,4.97 1.02,7.44 1.69,10.66 -0.02,21.69 3.68,32.15 0.57,1.62 0.58,3.6 2.48,3.88 2.66,0.39 2.72,-2.29 3.29,-3.86 3.97,-11.07 8.69,-21.86 15.45,-31.44z"/>
    <path class="fil12" d="M580.11 257.06c2.9,-2.79 2.95,-5.47 1.49,-9 -4.52,-10.91 -8.76,-21.94 -13.33,-33.48 -2.97,1.79 -4.96,4.04 -6.39,6.52 -6.78,11.77 -12.39,24.05 -16.83,36.95 -2.21,6.41 -0.69,10.53 4.56,13.72 4.08,2.48 8.48,4.44 12.7,6.7 2.39,1.27 3.07,-0.2 4.27,-1.95 4.47,-6.52 7.75,-13.91 13.54,-19.46z"/>
    <path class="fil13" d="M611.69 223.44c-6.8,-3.58 -14.28,-4.76 -21.08,-7.95 -3.84,-1.8 -7.31,-0.33 -10.93,0.33 0,0 0.08,0.16 0.08,0.16 0.08,0.56 0.14,1.13 0.22,1.69 7.34,9.55 15.31,18.65 21.02,29.37 4.07,1.97 8.28,3.57 12.53,5.02 6.09,2.08 12.28,3.87 18.34,6.03l0 0c2.95,-7.02 5.91,-14.04 8.86,-21.05 -8.82,-6.42 -19.61,-8.62 -29.05,-13.6z"/>
    <path class="fil13" d="M579.98 217.68c0,0 0,-0.01 0,-0.01 0,0 0,-0.01 0,-0.01l0 0.01z"/>
    <path class="fil12" d="M492.64 122.97c3.79,13.58 7.02,27.31 10.78,42.13 7.76,-10.53 12.47,-21.66 20.65,-30.4 1.4,-1.5 0.86,-3.23 0,-4.68 -5.34,-9.08 -8.43,-19.03 -11.54,-29 -1.67,-5.32 -3.76,-5.59 -7.6,-1.43 -1.99,2.17 -4.41,4.11 -5.78,6.63 -2.88,5.24 -8.59,9.25 -6.5,16.75z"/>
    <path class="fil13" d="M625.24 207.03c-7.06,-4.41 -14.56,-8.11 -21.93,-12.01 -1.79,-0.95 -3.42,-2.01 -4.92,-3.2 -4.48,-3.57 -7.67,-8.22 -9.7,-13.87 -2.56,-0.3 -5.13,-0.54 -7.7,-0.82 -1.67,-0.18 -3.34,-0.37 -5,-0.59 -1.4,-0.19 -2.8,-0.4 -4.19,-0.66 -2.24,-0.41 -3.78,-0.18 -3,1.96 3.27,9.05 4.36,18.8 8.78,27.47 3.55,0.22 7.04,0.67 10.51,1.29 5.78,1.02 11.46,2.48 17.17,3.98 12.24,3.21 23,9.93 34.86,13.95 -1.55,-8.72 -8.18,-13.33 -14.88,-17.51z"/>
    <path class="fil11" d="M622.71 155.88c-0.36,-0.24 -0.66,-0.55 -0.86,-0.93 -2.88,-5.45 -9.13,-6.07 -13.18,-9.78 -2.87,-2.63 -6.75,-2.9 -10.56,-2.89 -2.85,0.01 -5.83,0.98 -8.49,-0.89 1.32,8.84 -0.85,17.49 -1.45,26.22 13.17,2.58 26.06,6.1 39.08,10.91 4.34,1.6 8.7,3.35 13.08,5.25 -1.9,-4.46 -3.5,-8.76 -5.22,-12.83 -0.66,-1.57 -1.35,-3.1 -2.07,-4.59 -1.7,-3.51 -3.62,-6.81 -6.08,-9.85 -1.49,0.26 -3.17,0.1 -4.26,-0.63z"/>
    <path class="fil11" d="M590.68 108.38c-6.74,-0.56 -13.12,-2.73 -19.62,-4.39 -2.17,-0.55 -4.34,-1.05 -6.55,-1.41 -3.35,-0.55 -6.62,-0.68 -9.9,0.14 1.57,4.01 3.24,7.99 4.7,12.05 1.82,5.05 4.89,9.13 9.1,12.4 8,1.7 16.01,3.37 23.99,5.23 2,0.47 3.99,0.94 5.98,1.44 3.98,0.99 7.95,2.05 11.9,3.2 1.98,0.57 3.95,1.17 5.93,1.8 -1.94,-2.77 -3.85,-5.53 -5.81,-8.24 -0.57,-0.79 -1.14,-1.58 -1.72,-2.35 -5.36,-7.25 -11.07,-14.08 -18,-19.87z"/>
    <path class="fil13" d="M545.88 132.73c4.94,11.16 12.18,19.94 15.32,30.67 8.56,4.16 18.04,2.39 26.97,4.22 0.6,-8.73 2.77,-17.38 1.45,-26.23 -6.93,-3.11 -14.8,-4.02 -20.93,-8.97 0,0 -0.03,0.01 -0.03,0.01 -7.12,2 -14.36,1.73 -22.78,0.3z"/>
    <path class="fil11" d="M592.35 177.79c-1.22,-0.48 -2.46,-0.42 -3.66,0.16 2.03,5.66 5.22,10.3 9.71,13.87 1.5,1.19 3.13,2.26 4.92,3.2 7.36,3.9 14.87,7.61 21.92,12.01 6.7,4.18 13.33,8.79 14.88,17.51 0.84,0.62 1.6,1.54 2.53,1.79 1.92,0.49 3.81,3.06 5.59,1.39 0.96,-0.9 0.47,-3.55 0.32,-5.39 -0.59,-6.86 -1.22,-13.73 -3.21,-20.37 -1.06,-0.92 -2.34,-1.72 -2,-3.45l0.01 -0.01c-6.02,-5.02 -13.28,-7.49 -20.24,-10.8 -9.95,-4.74 -20.73,-6.02 -30.76,-9.92z"/>
    <path class="fil12" d="M599.85 293.37c0.93,-1.6 0.61,-2.96 -0.75,-3.81 -4.05,-2.54 -3.9,-6.55 -4.06,-10.55 -0.23,-5.73 -1.78,-10.89 -5.43,-15.61 -4.64,-6.01 -4.62,-6.25 -11.06,0.93 -1.47,2.37 -4,6.92 -7,11.14 -2.39,3.36 -4.32,5.89 0.63,8.95 2.03,1.26 2.58,4.48 3.05,7.28 1.17,6.96 1.27,14.5 9.93,17.64 2.97,1.08 4.88,1.11 6.38,-1.35 2.92,-4.79 5.5,-9.77 8.32,-14.63z"/>
    <path class="fil12" d="M561.6 168.52c-4.66,-0.09 -5.25,1.42 -3.47,5.07 4.66,9.58 9.47,19.08 14,28.72 0.61,1.3 1.35,2.11 2.25,2.57 0.9,0.46 1.96,0.56 3.21,0.43 -4.42,-8.67 -5.52,-18.41 -8.78,-27.46 -0.78,-2.15 0.77,-2.37 3,-1.97 1.39,0.25 2.79,0.46 4.19,0.66 1.66,0.22 3.33,0.41 5,0.59 2.56,0.28 5.13,0.53 7.7,0.81l0 0c1.2,-0.58 2.44,-0.63 3.66,-0.15 10.04,3.89 20.81,5.17 30.76,9.92 6.95,3.31 14.23,5.79 20.24,10.8 0.95,-4.3 0.65,-8.44 -3.53,-10.82 -4.16,-2.37 -8.53,-4.54 -13.05,-6.05 -21.15,-7.13 -42.64,-12.65 -65.17,-13.11z"/>
    <path class="fil13" d="M559.3 114.78c-1.46,-4.06 -3.13,-8.04 -4.7,-12.05 -3.01,-3.37 -6.73,-4.56 -11.25,-4.25 -5.85,0.4 -10.97,-4.65 -17.2,-2.49 -1.41,0.49 -3.61,-0.79 -4.32,1.29 -0.57,1.66 1.3,2.43 2.3,3.36 6.63,6.09 13.18,12.22 14.58,21.81 5.54,2.04 11.3,2.74 17.08,3.3 4.22,0.41 8.45,0.74 12.62,1.43 -4.21,-3.26 -7.28,-7.35 -9.1,-12.4z"/>
    <path class="fil12" d="M623.35 259.04c-9.16,-4.39 -19.07,-6.87 -29.61,-9.26 4.84,11.16 9.18,21.72 13.97,32.06 0.85,1.83 1.98,3.15 3.3,4.09 2.92,2.06 6.78,2.28 10.71,2.08l0.01 0c0,0 0.04,-0.03 0.08,-0.06l0.21 -0.15c-5.26,-6.17 -8.77,-13.25 -11.49,-20.75 -0.39,-1.07 -0.76,-2.15 -1.12,-3.24 -0.38,-1.15 -1.43,-2.46 -0.49,-3.53 1.29,-1.47 2.63,-0.03 3.93,0.45 4.88,1.77 9.71,3.67 14.15,6.42 6.15,1.51 11.8,4.05 16.76,8.03 1.68,-2.86 2.03,-5.12 0.47,-6.97 -0.72,-0.84 -1.82,-1.59 -3.39,-2.29 -5.73,-2.54 -11.78,-4.14 -17.48,-6.87z"/>
    <path class="fil12" d="M532.89 123.28c0.23,0.23 0.48,0.41 0.74,0.54 0.25,0.14 0.53,0.22 0.8,0.26 1.37,0.22 2.92,-0.57 4.27,-1.64 -1.4,-9.58 -7.94,-15.71 -14.57,-21.8 -1.01,-0.93 -2.89,-1.7 -2.31,-3.37 0.72,-2.08 2.91,-0.79 4.33,-1.29 6.24,-2.16 11.36,2.89 17.21,2.49 4.52,-0.32 8.24,0.88 11.24,4.26 3.29,-0.83 6.56,-0.7 9.91,-0.15 2.21,0.36 4.39,0.87 6.55,1.42 6.5,1.66 12.88,3.82 19.62,4.39 -2.32,-2.61 -4.93,-4.45 -7.93,-5.81 -1.8,-0.82 -3.74,-1.46 -5.84,-2.01 -10.04,-2.58 -20.26,-4.32 -30.24,-6.94 -10.49,-2.75 -20.97,-1.83 -32.76,-2.85 6.5,11.29 12.24,21.57 18.33,31.65 0.2,0.34 0.43,0.63 0.66,0.85z"/>
    <path class="fil12" d="M593.44 210.59c-4.79,-1.33 -9.87,-1.59 -14.92,-1.63 -2.85,-0.02 -2.85,1.18 -1.9,2.96 0.78,1.43 2.03,2.61 3.06,3.9 3.62,-0.66 7.08,-2.13 10.93,-0.33 6.8,3.19 14.28,4.36 21.08,7.94 9.44,4.97 20.23,7.18 29.05,13.59 3.54,0.04 4.83,3.41 7.35,4.97 1.4,-2.4 1.75,-4.43 1.29,-6.18 -0.07,-0.25 -0.15,-0.5 -0.25,-0.73 -0.2,-0.47 -0.46,-0.93 -0.79,-1.36 -0.96,-1.28 -2.46,-2.38 -4.36,-3.32 -16.28,-8.05 -33.05,-14.94 -50.56,-19.83z"/>
    <path class="fil11" d="M626.99 267.14c-1.66,6.88 -3.32,13.77 -4.98,20.65 0,0 -0.12,0.09 -0.2,0.15 -0.05,0.03 -0.09,0.06 -0.09,0.06 2.75,3.31 6.46,4.9 10.21,6.43 0.44,0.18 0.88,0.36 1.32,0.54 1.4,0.57 2.78,1.16 4.11,1.86 2.72,1.42 3.27,-0.56 3.57,-2.52 0.98,-6.38 1.88,-12.76 2.82,-19.14 -4.97,-3.98 -10.61,-6.52 -16.76,-8.03z"/>
    <path class="fil13" d="M539.45 85.79c-3.56,0.42 -8.83,-0.49 -9.55,-4.37 -1.29,-6.92 -6.67,-7.59 -11.32,-9.72 -2.01,-0.93 -4.65,-0.96 -4.89,-4.01 -4.38,-0.8 -8.76,-1.6 -14.24,-2.6 3.54,5.64 6.86,9.7 8.61,14.99 0.87,2.62 3.18,7.01 7.69,7.31 9.8,0.63 19.6,1.2 29.4,1.79 -1.38,-1.96 -2.25,-3.79 -5.69,-3.39z"/>
    <path class="fil12" d="M561.21 163.4c-3.14,-10.73 -10.38,-19.52 -15.32,-30.67 8.41,1.43 15.65,1.7 22.78,-0.3 -1.47,-1.09 -2.68,-2.12 -4.89,-2.27 -7.64,-0.51 -15.25,-1.57 -22.86,-2.47 -1.62,-0.19 -3.58,-1.14 -4.6,0.55 -0.93,1.56 0.46,3.22 1.2,4.67 4.68,9.12 9.43,18.21 14.14,27.32 0.54,1.05 1.12,1.96 1.77,2.69 1.93,2.18 4.39,2.73 7.78,0.48z"/>
    <path class="fil12" d="M611.13 289.64c7.05,13.14 13.37,25.06 19.87,36.87 0.95,1.72 2.41,1.79 2.5,-0.81 -0.03,-0.58 -0.06,-1.16 -0.09,-1.73l0.01 -0.01c-4.3,-6.28 -2.43,-13.74 -4.73,-21.66 3.43,1.89 5.82,3.21 8.22,4.53 0.81,-1.69 2.7,-3.68 1.97,-5.3 -0.24,-0.54 -0.77,-1.04 -1.73,-1.48 -8.05,-3.65 -16.41,-6.62 -26.01,-10.4z"/>
    <path class="fil12" d="M583.38 133.77c-0.62,-0.15 -1.25,-0.31 -1.89,-0.5 -0.63,-0.18 -1.27,-0.37 -1.91,-0.56 -3.52,-1.03 -7.14,-1.93 -10.89,-0.3 6.14,4.95 14.01,5.86 20.93,8.98 2.66,1.87 5.64,0.9 8.5,0.89 3.81,-0.01 7.69,0.25 10.56,2.88 4.06,3.72 10.3,4.34 13.19,9.78 0.2,0.38 0.49,0.69 0.85,0.93 1.09,0.74 2.77,0.89 4.26,0.63l0 0c-0.21,-0.61 -0.42,-1.2 -0.64,-1.8 -0.43,-1.15 -0.88,-2.27 -1.4,-3.34 -0.13,-0.27 -0.26,-0.54 -0.41,-0.8 -0.24,-0.46 -0.49,-0.91 -0.77,-1.35 -0.29,-0.47 -0.59,-0.93 -0.93,-1.37 -0.43,-0.56 -0.88,-1.1 -1.38,-1.61 -1.62,-1.62 -3.68,-2.89 -6.4,-3.63 -10.27,-2.81 -20.31,-6.67 -30.73,-8.64 -0.32,-0.05 -0.63,-0.12 -0.94,-0.2z"/>
    <path class="fil11" d="M640.74 237.03c-2.95,7.02 -5.91,14.04 -8.87,21.05l0 0c2.66,2.03 5.76,3.14 8.8,4.37 1.01,0.41 2.02,0.84 3,1.32 1.54,0.76 2.96,0.99 3.02,-1.33 0.07,-2.99 0.67,-5.95 1.19,-8.91 0.66,-3.81 1.17,-7.63 0.22,-11.54 -2.52,-1.55 -3.81,-4.93 -7.36,-4.97z"/>
    <path class="fil12" d="M613.65 313.36c0.15,-2.05 -0.96,-4.29 -2.26,-4.96 -5.11,-2.64 -6.73,-7.36 -8.22,-13.18 -2.55,3.87 -4.75,6.86 -6.59,10.06 -2.79,4.83 -2.45,8.51 4.07,9.55 1.88,0.3 3.31,1.7 4.96,2.53 4.94,2.5 8.38,7.44 14.47,8.89 -2.76,-4.32 -6.82,-7.51 -6.42,-12.88z"/>
    <path class="fil12" d="M490.37 112.01c5.8,-6.67 9.75,-13.68 15.52,-19.19 1.56,-1.5 1.48,-3.29 0.17,-5.12 -3.53,-4.9 -6.3,-10.45 -12.45,-14.23 2.19,13.08 -0.88,25.31 -3.24,38.54z"/>
    <path class="fil12" d="M601 247.04c-5.71,-10.72 -13.68,-19.82 -21.02,-29.37 0,0 0,0 0,0 1.19,7.7 6.46,13.67 8.93,20.72 0.82,2.36 1.89,4.15 3.21,5.46 2.21,2.2 5.13,3.1 8.88,3.18z"/>
    <path class="fil12" d="M579.98 217.67c0,0 0,0.01 0,0.01 0,0 0,-0.01 0,-0.01l0 0z"/>
    <path class="fil11" d="M628.68 302.3c2.3,7.92 0.43,15.38 4.74,21.67 0.3,-0.69 0.59,-1.37 0.87,-2.06 1.95,-4.81 3.3,-9.74 2.61,-15.08 -2.4,-1.32 -4.79,-2.64 -8.22,-4.53z"/>
    <path class="fil12" d="M486.62 57.76c-6.23,-10.99 -15.81,-17.38 -27.71,-20.63 8.98,7.23 19.72,12.05 27.71,20.63z"/>
    <path class="fil12" d="M454.74 31c-0.43,-0.18 -0.91,-0.34 -1.34,-0.38l-0.28 0c-0.45,0.03 -0.84,0.24 -1.1,0.76 -0.63,1.27 0.18,2.37 1.16,3.24 0.51,-1.2 1.03,-2.41 1.55,-3.62z"/>
    <path class="fil12" d="M643.34 198.51c-0.33,1.73 0.94,2.53 2.01,3.45 0.05,-0.42 0.02,-0.78 -0.08,-1.11 -0.09,-0.33 -0.25,-0.62 -0.45,-0.89 -0.1,-0.14 -0.2,-0.27 -0.32,-0.39 -0.35,-0.37 -0.76,-0.71 -1.16,-1.06z"/>
    <path class="fil9 str1" d="M579.98 217.68c0,0 0,-0.01 0,-0.01"/>
    <path class="fil9 str1" d="M579.98 217.67c0,0 0,0.01 0,0.01"/>
    <path class="fil9 str1" d="M579.98 217.67c-0.08,-0.56 -0.14,-1.13 -0.22,-1.69"/>
    <path class="fil9 str2" d="M633.5 325.7c-0.03,-0.57 -0.06,-1.15 -0.09,-1.72"/>
    <path class="fil10" d="M445.85 34.39c0.04,0.2 0.09,0.4 0.13,0.59l0.18 -0.01c-0.11,-0.19 -0.2,-0.39 -0.31,-0.58z"/>
    <path class="fil13" d="M626.99 267.14c-4.44,-2.75 -9.27,-4.64 -14.15,-6.42 -1.3,-0.48 -2.64,-1.92 -3.92,-0.45 -0.95,1.07 0.1,2.38 0.49,3.53 0.36,1.09 0.73,2.17 1.11,3.24 2.72,7.51 6.24,14.58 11.5,20.75 1.66,-6.88 3.32,-13.77 4.98,-20.65z"/>
    <path class="fil6" d="M492 261.9c-10.26,10.13 -12.92,23.06 -13.68,39.99 -0.71,4.42 1.7,11.52 4.86,18.08 7.75,16.1 23.2,19.32 35,7.03 14.97,-15.59 17.54,-41.67 7.74,-60.39 -7.43,-14.21 -22.47,-16.02 -33.92,-4.71z"/>
    <path class="fil14" d="M288.28 409.28c-1.39,-6.5 2.56,-11.49 4.09,-17.15 -1.38,-4.05 -4.11,-5.86 -7.97,-6.24 -0.55,-0.05 -1.12,-0.08 -1.72,-0.08 -5.06,0.01 -9.45,1.9 -13.67,4.24 -16.6,9.22 -34.2,15.62 -52.59,20.42 -14.37,3.74 -28.68,8.29 -40.33,18.33 1.88,3.67 4.37,1.18 6.28,0.3 1.72,-0.79 3.26,-1.77 5.23,-1.6 1.21,0.1 2.6,-0.2 3.25,1.24 0.61,1.35 -0.23,2.33 -0.99,3.36 -3.66,4.94 -9.27,7.13 -14.54,9.23 -5.24,2.09 -6.79,8.27 -12.3,9.96 -1.45,-3.19 1.29,-5.81 0.47,-8.62 -0.03,0 -0.05,0.01 -0.08,0.01 0,-0.01 0.01,-0.02 0.01,-0.02 -1.98,2.24 -3.84,4.57 -5.64,6.94 -1.75,2.3 -3.41,4.66 -5,7.07 -1.61,2.42 -3.15,4.87 -4.63,7.38 -2.67,4.54 -5.15,9.21 -7.53,13.94 3.34,4.57 1.37,9.8 0.46,14.13 -2.72,12.96 -0.49,25.2 2.74,37.59 1.67,6.41 5.69,12.13 5.54,19.06 0.7,2.01 1.99,3.58 3.41,5.05 0.48,0.49 0.96,0.96 1.45,1.44 14.2,13.78 31.34,16.83 49.58,11.6 17.78,-5.09 33.4,-12.45 46.73,-22.2 2.22,-1.62 4.37,-3.31 6.47,-5.07 2.09,-1.76 4.12,-3.58 6.08,-5.47 15.69,-15.14 27.19,-34.58 34.13,-58.62 2.43,-13.76 4.12,-27.53 1.08,-41.43 -7.72,-6.49 -8.11,-15.89 -10.01,-24.76z"/>
    <path class="fil14" d="M149.69 430.03c-0.01,0.02 -0.03,0.03 -0.05,0.05 -0.01,0.02 -0.02,0.03 -0.02,0.05 2.28,-0.33 3.53,-2.14 5.04,-3.55 20.59,-19.16 44.13,-32.07 72.41,-36.12 8.87,-1.27 18.41,-2.01 25.83,-8.44 1.59,-6.1 0.11,-8.39 -5.73,-8.58 -2.91,-0.09 -5.78,-0.07 -8.68,0.85 -14.3,4.56 -29.26,7.22 -43.01,13.26 -7.52,3.31 -14.39,7.38 -20.58,12.21 -2.06,1.61 -4.05,3.31 -5.97,5.08 -1.45,1.35 -2.84,2.75 -4.21,4.19 -1.22,1.29 -2.42,2.61 -3.56,3.98 -3.39,4.02 -6.47,8.36 -9.24,13.04 -0.18,0.3 -0.36,0.61 -0.54,0.91 -0.59,1.03 -1.18,2.06 -1.74,3.11 0.02,-0.02 0.04,-0.03 0.05,-0.05z"/>
    <path class="fil3" d="M120.68 497.69c-0.52,-9.76 0.25,-19.24 5.93,-27.62 2.8,-4.14 3.58,-8.77 4.08,-13.53 -1.6,0.03 -2.81,0.72 -3.56,2.16 -6.02,11.42 -12.68,22.67 -14.92,35.56 -0.23,1.37 -0.43,2.76 -0.54,4.14 -0.52,6.01 0.28,12.05 3.99,17.45 4.65,-5.23 5.4,-11.57 5.04,-18.16z"/>
    <path class="fil3" d="M292.37 392.13c-1.53,5.67 -5.48,10.65 -4.09,17.15 1.9,8.88 2.29,18.28 10.01,24.77 0.04,-2.07 0.07,-4.14 0.12,-6.21 0.01,-0.67 0.01,-1.34 0.01,-2.01 -0.02,-1.34 -0.09,-2.68 -0.2,-4 -0.15,-2 -0.4,-3.99 -0.69,-5.96 -0.43,-2.91 -0.94,-5.81 -1.43,-8.7 -0.23,-1.37 -0.45,-2.74 -0.66,-4.1 -0.22,-1.43 -0.41,-2.85 -0.56,-4.28 -0.1,-0.9 -0.19,-1.81 -0.26,-2.71 -0.75,-1.32 -1.5,-2.62 -2.25,-3.93z"/>
    <path class="fil9 str3" d="M149.64 430.08c-0.43,0.45 -0.86,0.9 -1.3,1.35"/>
    <path class="fil9 str3" d="M149.69 430.03c-0.01,0.02 -0.03,0.03 -0.05,0.05"/>
    <path class="fil14" d="M149.65 430.08l0.67 0c0,-0.37 -0.3,-0.67 -0.67,-0.67 -0.37,0 -0.67,0.3 -0.67,0.67 0,0.37 0.3,0.67 0.67,0.67 0.37,0 0.67,-0.3 0.67,-0.67l-0.67 0z"/>
    <path class="fil3" d="M149.37 548.75c0.15,-6.93 -3.87,-12.65 -5.54,-19.06 -3.23,-12.39 -5.45,-24.63 -2.74,-37.59 0.9,-4.33 2.87,-9.56 -0.46,-14.13 -10.7,11.47 -13.23,25.3 -10.56,40.09 0.28,1.57 0.62,3.13 1.01,4.65 2.77,10.64 8.36,19.8 18.29,26.05z"/>
    <path class="fil3" d="M163.49 442.66c0.82,2.8 -1.92,5.43 -0.46,8.62 5.5,-1.7 7.05,-7.87 12.29,-9.96 5.27,-2.1 10.88,-4.29 14.54,-9.22 0.76,-1.03 1.6,-2.01 0.99,-3.36 -0.65,-1.43 -2.04,-1.14 -3.24,-1.24 -1.98,-0.17 -3.51,0.81 -5.23,1.6 -1.91,0.88 -4.4,3.38 -6.28,-0.3 -2.67,0.81 -2.64,4.31 -5.21,5.22l-1.19 1.1c-0.38,0.38 -0.76,0.76 -1.14,1.14 -0.06,1.08 -0.18,2.12 -1.33,2.65l0 -0.01c-0.4,0.4 -0.8,0.8 -1.2,1.21 -0.07,1.62 -0.94,2.43 -2.52,2.55z"/>
    <path class="fil14" d="M163.42 442.64c0,0.01 -0.01,0.02 -0.01,0.03 0.02,0 0.05,-0.01 0.07,-0.01 1.58,-0.12 2.45,-0.93 2.51,-2.55 -0.02,0.02 -0.03,0.03 -0.05,0.05 0.02,-0.02 0.03,-0.03 0.05,-0.05 0,-0.01 0.01,-0.02 0.01,-0.03 -0.84,0.03 -1.41,0.32 -1.82,0.78 -0.23,0.27 -0.41,0.61 -0.54,0.98 -0.09,0.25 -0.17,0.53 -0.23,0.81z"/>
    <path class="fil14" d="M167.21 438.91c1.16,-0.53 1.29,-1.57 1.33,-2.65 -0.23,0.15 -0.44,0.33 -0.61,0.52 -0.52,0.57 -0.77,1.27 -0.72,2.12l0.09 -0.09 -0.09 0.09 0 0.01z"/>
    <line class="fil9 str3" x1="167.29" y1="438.82" x2="167.21" y2= "438.9" />
    <path class="fil9 str3" d="M167.21 438.9c-0.4,0.4 -0.8,0.8 -1.2,1.21"/>
    <path class="fil9 str3" d="M165.95 440.16c0.02,-0.02 0.04,-0.04 0.06,-0.06"/>
    <line class="fil9 str3" x1="169.69" y1="435.11" x2="170.87" y2= "434.01" />
   </g>
   <rect class="fil15" x="-0" width="702.06" height="702.06"/>
  </g>
 </g>
</svg>
