<?xml version="1.0" encoding="UTF-8"?>
<!DOCTYPE svg PUBLIC "-//W3C//DTD SVG 1.1//EN" "http://www.w3.org/Graphics/SVG/1.1/DTD/svg11.dtd">
<!-- Creator: CorelDRAW 2018 (64-Bit) -->
<svg xmlns="http://www.w3.org/2000/svg" xml:space="preserve" width="4in" height="4in" version="1.1" style="shape-rendering:geometricPrecision; text-rendering:geometricPrecision; image-rendering:optimizeQuality; fill-rule:evenodd; clip-rule:evenodd"
viewBox="0 0 379.84 379.84"
 xmlns:xlink="http://www.w3.org/1999/xlink">
 <defs>
  <style type="text/css">
   <![CDATA[
    .fil3 {fill:none}
    .fil0 {fill:#B50006;fill-rule:nonzero}
    .fil2 {fill:#BE141C;fill-rule:nonzero}
    .fil1 {fill:url(#id0);fill-rule:nonzero}
   ]]>
  </style>
  <linearGradient id="id0" gradientUnits="userSpaceOnUse" x1="162.37" y1="22.23" x2="183.55" y2="318.15">
   <stop offset="0" style="stop-opacity:1; stop-color:#F3A409"/>
   <stop offset="0.490196" style="stop-opacity:1; stop-color:#F9C933"/>
   <stop offset="1" style="stop-opacity:1; stop-color:#F3A60B"/>
  </linearGradient>
 </defs>
 <g id="Layer_x0020_1">
  <metadata id="CorelCorpID_0Corel-Layer"/>
  <g id="_2257827438512">
   <g>
    <path class="fil0" d="M171.82 127.04c-0.11,1.26 -0.75,2.13 -1.2,3.07 -1.93,4.01 -3.88,8 -5.8,12 -15.97,33.31 -29.1,67.61 -36.11,104.04 -2.98,15.5 -5.36,31.07 -6.21,46.86 -0.56,10.38 -0.19,20.76 -0.41,31.14 -0.04,2.05 0.59,3.6 1.8,5.2 8.64,11.39 17.25,22.81 25.74,34.31 1.4,1.89 2.84,2.58 5.15,2.6l0.11 0c26.17,-0.09 52.34,-0.05 78.51,-0.05 0.63,0 1.27,-0.03 1.91,0 1.16,0.05 1.81,-0.37 1.71,-1.65 -0.06,-0.74 -0.02,-1.48 -0.01,-2.22 0.13,-15.78 -0.28,-31.57 0.62,-47.34 0.81,-14.29 2.32,-28.5 4.76,-42.59 4.46,-25.76 12.24,-50.53 22.34,-74.62 7.62,-18.19 16.77,-35.59 26.06,-52.94 6.8,-12.69 13.25,-25.54 18.38,-39.03 4.99,-13.13 8.4,-26.62 9.76,-40.61 0.15,-1.58 0.18,-3 -0.92,-4.46 -10.76,-14.17 -21.45,-28.39 -32.13,-42.63 -0.83,-1.11 -1.68,-1.69 -3.14,-1.68 -13.35,0.05 -26.7,0.04 -40.05,0.01 -1.26,-0 -1.99,0.24 -1.99,1.71 -0.01,1.15 -0.25,2.32 -0.49,3.46 -1.78,8.58 -8.4,12.08 -16.43,8.71 -1.27,-0.53 -2.5,-1.15 -3.71,-1.8 -2.33,-1.25 -4.63,-2.55 -6.95,-3.82 -6.5,-3.58 -13.18,-6.71 -20.41,-8.57 -14.58,-3.76 -29.19,-2.91 -43.79,-0.28 -10.49,1.89 -20.39,5.49 -29.8,10.48 -2.52,1.34 -5.04,2.7 -7.76,3.61 -3.12,1.04 -4.33,0.43 -5.11,-2.72 -0.74,-2.97 -1.31,-5.99 -1.86,-9 -0.49,-2.64 -0.43,-2.67 -3.01,-2.67 -12.61,-0.01 -25.21,-0 -37.82,-0 -0.53,0 -1.06,0.02 -1.59,0.01 -0.82,-0.01 -1.1,0.45 -1.08,1.19 0.01,0.53 -0.01,1.06 -0.01,1.59 0,43.23 0.01,86.45 -0.04,129.68l0 0.08c0.01,1.69 0.57,2.93 1.6,4.19 8.23,9.97 16.43,19.95 24.56,30 1.19,1.47 2.42,2 4.29,1.98 11.76,-0.16 23.52,-0.19 35.28,-0.27 4.45,-0.03 8.9,-0.04 13.35,-0.1 2.33,-0.03 2.37,-0.07 2.44,-2.2 0.2,-6.57 0.63,-13.12 1.29,-19.66 0.8,-7.9 1.9,-15.76 4.41,-23.35 1.03,-3.13 2.32,-6.14 4.33,-8.79 1.58,-2.07 3.48,-3.87 6.1,-4.29 4.54,-0.72 9.01,-0.32 13.34,1.45z"/>
    <path class="fil1" d="M193.8 166.28c0.41,-0.11 0.83,-0.17 1.22,-0.33 6.23,-2.64 12.48,-3.19 18.7,-0.06 1.27,0.64 1.68,0.04 2.16,-0.91 1.42,-2.83 2.82,-5.69 4.33,-8.48 8.63,-16.02 17.38,-31.99 25.92,-48.05 6.96,-13.1 13.15,-26.54 17.36,-40.82 3.1,-10.51 4.9,-21.23 4.77,-32.23 -0.04,-2.88 0.19,-2.71 -2.79,-2.71 -3.29,0 -6.57,0.04 -9.85,-0.02 -1.2,-0.02 -1.84,0.26 -2.22,1.56 -2.12,7.32 -7.31,11.33 -14.45,13.29 -6.72,1.85 -13.21,1.3 -19.48,-1.67 -5.83,-2.75 -11.63,-5.57 -17.4,-8.46 -7.62,-3.81 -15.51,-6.76 -24.06,-7.59 -5.61,-0.55 -11.21,-0.23 -16.81,0.29 -10.83,1 -21.29,3.41 -31.21,7.92 -4.72,2.14 -9.47,4.21 -14.37,5.88 -3.91,1.33 -7.9,2.33 -12.03,2.78 -3.27,0.36 -5.76,-0.9 -7.79,-3.33 -1.36,-1.64 -2.46,-3.45 -3.33,-5.39 -0.68,-1.54 -1.31,-3.12 -1.86,-4.72 -0.36,-1.05 -0.97,-1.5 -2.09,-1.49 -3.28,0.05 -6.56,0.04 -9.85,0.01 -1.2,-0.01 -1.76,0.48 -1.67,1.71 0.05,0.64 0,1.28 0,1.91l0 95.98c0,0.32 -0,0.63 0,0.95 0.04,2.67 0.04,2.68 2.85,2.7 2.55,0.01 5.09,0 7.63,0 4.03,0 8.05,0.01 12.08,-0.01 2.67,-0.01 2.68,-0.03 2.74,-2.82 0.02,-1.16 0.02,-2.33 0.07,-3.49 0.55,-10.93 2.16,-21.69 5.74,-32.08 3.07,-8.9 7.29,-17.15 14.18,-23.77 6.62,-6.36 14.49,-9.69 23.76,-9.7 10.68,-0.01 21.02,1.69 31.16,5.13 12.46,4.23 25.18,7.32 38.44,7.51 1.89,0.03 2.42,0.64 2.42,2.53 -0,0.86 -0.27,1.65 -0.52,2.47 -1.12,3.65 -2.59,7.16 -4.26,10.59 -3.99,8.19 -8.61,16.04 -13.37,23.79 -9.64,15.7 -18.8,31.67 -26.71,48.32 -0.38,0.79 -1.01,1.55 -0.92,2.81 6.51,-2.3 12.88,-4.3 19.22,0.19 -0.97,1.34 -2.26,2.11 -3.38,3.05 -6.63,5.45 -13.15,11.02 -18.96,17.37 -1.48,1.62 -2.52,3.31 -2.74,5.56 -0.2,2.1 -0.77,4.16 -1.07,6.25 -3.02,20.58 -4.31,41.27 -3.98,62.07 0.02,1.08 0.1,2.16 0.16,3.37 0.31,-0.21 0.44,-0.24 0.46,-0.31 0.29,-0.91 0.54,-1.82 0.83,-2.73 8.36,-25.85 20.53,-49.63 38.44,-70.24 1.1,-1.26 0.93,-2.09 0.18,-3.29 -1.91,-3.06 -3.57,-6.26 -4.8,-9.65 -1.37,-3.77 -2.77,-7.55 -2.75,-11.66l0 -0 -0 0 0 -0 -0 0c-1.79,0.16 -2.05,-0.77 -1.82,-2.31 0.96,-6.47 1.87,-12.95 2.74,-19.44 0.41,-3.03 0.72,-6.08 0.98,-9.13 0.1,-1.12 0.39,-1.99 1.28,-2.74 16.85,-14.3 28.91,-32.37 40.16,-51.07 0.75,-1.26 1.34,-2.63 2.4,-3.69 0.33,0.03 0.67,0.07 1,0.1 -2.07,6 -4.16,11.99 -6.19,18 -3.88,11.47 -6.73,23.17 -7.94,35.23 -0.18,1.74 -0.83,2.85 -2.17,3.91 -10.62,8.36 -20.19,17.77 -28.59,28.37 -0.7,0.89 -1.67,1.63 -1.92,2.84l0 -0 -0 0zm14.18 -81.05c-1.13,-0.86 -1.97,-1.49 -3.12,-1.46 -7.35,0.24 -14.18,-2.09 -21.01,-4.35 -5.51,-1.83 -10.85,-4.15 -16.52,-5.55 -6.61,-1.63 -13.3,-2.48 -20.1,-2.68 -7.3,-0.2 -13.45,2.39 -18.66,7.37 -5.97,5.71 -9.59,12.84 -12.26,20.52 -3.4,9.77 -4.99,19.9 -5.71,30.17 -0.26,3.81 -0.41,7.62 -0.49,11.43 -0.03,1.36 -0.18,2.1 -1.87,2.09 -12.39,-0.07 -24.79,-0.06 -37.19,-0.02 -1.38,0 -1.95,-0.45 -1.79,-1.83 0.06,-0.52 0.01,-1.06 0.01,-1.59 0,-37.3 0,-74.6 0,-111.89 0,-3.99 -0.37,-3.54 3.58,-3.55 7.31,-0.01 14.62,0.04 21.93,-0.03 1.65,-0.02 2.4,0.36 2.61,2.2 0.35,3.05 1.21,6.02 2.84,8.69 2.06,3.37 3.82,4.11 7.67,3.23 5.92,-1.35 11.47,-3.73 16.88,-6.37 16.82,-8.18 34.65,-10.72 53.11,-9.77 8.03,0.42 15.56,2.85 22.89,6.03 5.15,2.24 9.98,5.11 14.91,7.77 3.73,2.01 7.56,3.84 11.84,4.37 3.87,0.48 7.63,-0.04 11.14,-1.75 4.71,-2.31 7.65,-5.99 7.98,-11.36 0.09,-1.5 0.58,-1.98 2.08,-1.97 8.69,0.06 17.38,0.09 26.06,-0.02 2.09,-0.03 1.8,1.15 1.85,2.42 0.67,17.92 -2.48,35.19 -8.73,51.96 -5.08,13.63 -11.58,26.57 -18.49,39.33 -9.48,17.5 -19.11,34.91 -27.31,53.06 -9.75,21.57 -17.55,43.78 -22.24,67.03 -2.32,11.53 -3.9,23.17 -4.83,34.9 -1.09,13.86 -0.97,27.73 -0.98,41.62 0,3.91 0.17,3.46 -3.37,3.47 -19.07,0.01 -38.15,0 -57.22,0 -0.42,0 -0.85,-0.04 -1.27,0.01 -1.49,0.18 -2.06,-0.38 -2.04,-1.94 0.11,-8.37 -0.12,-16.74 0.43,-25.1 2.87,-43.57 15.64,-84.52 33.06,-124.21 12.07,-27.48 26.43,-53.75 42.43,-79.12 0.61,-0.98 1.21,-1.96 1.91,-3.08z"/>
    <path class="fil0" d="M193.87 166.21c-0.03,4.11 1.38,7.9 2.75,11.67 1.23,3.39 2.89,6.59 4.8,9.65 0.75,1.2 0.92,2.04 -0.18,3.29 -17.91,20.61 -30.07,44.39 -38.44,70.24 -0.29,0.9 -0.55,1.82 -0.84,2.73 -0.02,0.07 -0.15,0.11 -0.46,0.31 -0.06,-1.21 -0.15,-2.28 -0.16,-3.37 -0.33,-20.79 0.96,-41.49 3.98,-62.07 0.31,-2.09 0.87,-4.15 1.07,-6.25 0.22,-2.25 1.25,-3.95 2.73,-5.56 5.81,-6.35 12.33,-11.91 18.96,-17.37 1.13,-0.93 2.42,-1.7 3.38,-3.05 -6.34,-4.49 -12.71,-2.49 -19.22,-0.19 -0.09,-1.26 0.54,-2.02 0.92,-2.81 7.92,-16.65 17.08,-32.62 26.72,-48.32 4.76,-7.76 9.38,-15.6 13.37,-23.79 1.67,-3.43 3.14,-6.94 4.26,-10.59 0.25,-0.81 0.52,-1.61 0.53,-2.47 0.01,-1.88 -0.53,-2.5 -2.42,-2.52 -13.27,-0.19 -25.99,-3.28 -38.44,-7.51 -10.13,-3.44 -20.47,-5.14 -31.16,-5.13 -9.27,0.01 -17.13,3.33 -23.76,9.7 -6.89,6.62 -11.11,14.87 -14.18,23.77 -3.58,10.38 -5.19,21.14 -5.74,32.08 -0.06,1.16 -0.05,2.33 -0.08,3.49 -0.06,2.79 -0.06,2.81 -2.73,2.82 -4.03,0.02 -8.05,0 -12.08,0 -2.54,0 -5.09,0.01 -7.63,-0 -2.82,-0.01 -2.82,-0.02 -2.85,-2.69 -0,-0.32 -0,-0.63 -0,-0.95 0,-31.99 0,-63.98 0,-95.97 0,-0.64 0.04,-1.27 -0.01,-1.91 -0.09,-1.23 0.47,-1.72 1.67,-1.71 3.29,0.02 6.57,0.04 9.85,-0.01 1.13,-0.02 1.73,0.43 2.09,1.49 0.55,1.6 1.17,3.17 1.86,4.72 0.86,1.94 1.96,3.75 3.33,5.39 2.03,2.43 4.52,3.69 7.79,3.33 4.12,-0.46 8.12,-1.45 12.03,-2.78 4.91,-1.67 9.65,-3.73 14.37,-5.87 9.93,-4.5 20.38,-6.92 31.21,-7.92 5.6,-0.52 11.2,-0.84 16.81,-0.29 8.55,0.84 16.43,3.79 24.06,7.6 5.77,2.88 11.56,5.7 17.4,8.46 6.27,2.96 12.76,3.51 19.48,1.67 7.13,-1.96 12.33,-5.97 14.45,-13.29 0.38,-1.31 1.01,-1.59 2.22,-1.57 3.28,0.06 6.57,0.02 9.85,0.02 2.99,0 2.76,-0.17 2.8,2.71 0.13,11 -1.67,21.72 -4.77,32.23 -4.21,14.27 -10.39,27.72 -17.35,40.81 -8.55,16.07 -17.29,32.03 -25.92,48.06 -1.51,2.79 -2.9,5.65 -4.33,8.49 -0.48,0.95 -0.89,1.54 -2.16,0.91 -6.23,-3.13 -12.48,-2.58 -18.71,0.07 -0.38,0.16 -0.81,0.22 -1.21,0.33 0.25,-1.2 1.21,-1.95 1.92,-2.84 8.4,-10.6 17.97,-20.01 28.59,-28.37 1.34,-1.06 2,-2.17 2.17,-3.91 1.21,-12.06 4.06,-23.76 7.94,-35.23 2.03,-6.01 4.12,-12 6.19,-18 0.41,-0.97 1.18,-1.85 0.77,-3.22 -0.82,1.08 -1.51,1.97 -1.77,3.12 -1.06,1.06 -1.65,2.43 -2.4,3.69 -11.25,18.71 -23.31,36.77 -40.16,51.07 -0.89,0.75 -1.18,1.63 -1.28,2.75 -0.26,3.05 -0.57,6.1 -0.98,9.13 -0.87,6.49 -1.78,12.97 -2.74,19.44 -0.23,1.54 0.03,2.47 1.82,2.31z"/>
    <path class="fil2" d="M240.6 77.93c-0.33,-0.03 -0.67,-0.07 -1,-0.1 0.26,-1.14 0.96,-2.04 1.77,-3.12 0.42,1.37 -0.36,2.25 -0.77,3.22z"/>
   </g>
   <rect class="fil3" x="-0" width="379.84" height="379.84"/>
  </g>
 </g>
</svg>
